<svg width="260" height="210" viewBox="0 0 260 210" fill="none" xmlns="http://www.w3.org/2000/svg">
<g clip-path="url(#clip0)">
<path d="M108.6 127.4H47.6999C46.0999 127.4 44.8999 126.2 44.8999 124.6V58.2C44.8999 56.6 46.0999 55.4 47.6999 55.4H108.6C110.2 55.4 111.4 56.6 111.4 58.2V124.7C111.4 126.1 110.1 127.4 108.6 127.4Z" fill="white"/>
<path d="M111.4 95.5H44.8999V58.2C44.8999 56.6 46.0999 55.4 47.6999 55.4H108.6C110.2 55.4 111.4 56.6 111.4 58.2V95.5Z" fill="#D6DAE9"/>
<path d="M104.3 104.8H51.7C50.2 104.8 49 103.6 49 102.1C49 100.6 50.2 99.4 51.7 99.4H104.3C105.8 99.4 107 100.6 107 102.1C107 103.5 105.7 104.8 104.3 104.8Z" fill="#D6DAE9"/>
<path d="M105.6 110.1H50.3996C49.6996 110.1 49.0996 109.5 49.0996 108.8C49.0996 108.1 49.6996 107.5 50.3996 107.5H105.6C106.3 107.5 106.9 108.1 106.9 108.8C107 109.4 106.3 110.1 105.6 110.1Z" fill="#EBEDF2"/>
<path d="M105.6 115.9H50.3996C49.6996 115.9 49.0996 115.3 49.0996 114.6C49.0996 113.9 49.6996 113.3 50.3996 113.3H105.6C106.3 113.3 106.9 113.9 106.9 114.6C107 115.3 106.3 115.9 105.6 115.9Z" fill="#EBEDF2"/>
<path d="M78.1996 121.5H50.3996C49.6996 121.5 49.0996 120.9 49.0996 120.2C49.0996 119.5 49.6996 118.9 50.3996 118.9H78.1996C78.8996 118.9 79.4996 119.5 79.4996 120.2C79.5996 120.9 78.8996 121.5 78.1996 121.5Z" fill="#EBEDF2"/>
<path d="M77.7999 81.5C77.2999 81.5 76.8999 81.4 76.4999 81.3C75.6999 81 74.7999 81 73.9999 81.2C73.3999 81.3 72.8999 81.4 72.2999 81.5C71.2999 81.6 70.2999 81 70.0999 80.1C69.9999 79.6 69.9999 79.2 70.1999 78.7C70.2999 78.3 70.6999 78.1 70.9999 77.9C71.1999 77.8 71.5999 77.7 71.7999 77.5C72.2999 77.3 72.4999 76.9 72.8999 76.6C73.0999 76.3 73.2999 76 73.4999 75.7C74.0999 75.1 74.6999 75 75.4999 75C76.0999 75.1 76.6999 75.4 77.0999 75.9C77.1999 76 77.2999 76.1 77.2999 76.2C77.8999 77.1 78.5999 77.8 79.3999 78.3C79.7999 78.5 79.9999 78.9 80.0999 79.2C80.2999 80 79.9999 80.8 78.9999 81.1C78.6999 81.5 78.2999 81.5 77.7999 81.5Z" fill="#F67506"/>
<path d="M78.5999 72.6C78.5999 73.2 78.3999 74 77.9999 74.6C77.7999 74.8 77.5999 75 77.2999 75C76.9999 75 76.5999 74.8 76.3999 74.4C75.9999 73.8 75.8999 73.2 75.9999 72.5C76.0999 71.9 76.1999 71.1 76.5999 70.6C76.9999 70.1 77.4999 70 77.8999 70.4C78.0999 70.5 78.2999 70.8 78.3999 71C78.5999 71.5 78.5999 72 78.5999 72.6Z" fill="#F67506"/>
<path d="M75.1998 72.2C75.1998 72.8 75.0998 73.5 74.5998 74.1C74.4998 74.2 74.3998 74.3 74.1998 74.5C73.7998 74.8 73.2998 74.7 72.9998 74.2C72.6998 73.8 72.4998 73.3 72.3998 72.8C72.2998 72.1 72.2998 71.3 72.6998 70.6C72.7998 70.4 72.9998 70.2 73.1998 70C73.5998 69.6 74.0998 69.8 74.4998 70.3C75.0998 70.9 75.1998 71.5 75.1998 72.2Z" fill="#F67506"/>
<path d="M78.3999 75.7C78.4999 74.9 78.5999 74.2 79.0999 73.6C79.6999 72.9 80.5999 73 80.9999 73.9C81.3999 74.8 80.9999 76.3 80.2999 76.9C79.5999 77.5 78.7999 77.3 78.5999 76.3C78.4999 76.2 78.4999 75.9 78.3999 75.7Z" fill="#F67506"/>
<path d="M72.2997 74.6C72.2997 75 72.1997 75.5 71.8997 75.8C71.4997 76.4 70.7997 76.4 70.2997 76C69.5997 75.4 69.2997 73.9 69.6997 73.1C70.1997 72.3 71.0997 72.2 71.5997 72.9C72.1997 73.4 72.2997 74 72.2997 74.6Z" fill="#F67506"/>
<path d="M226.2 127.4H165.3C163.7 127.4 162.5 126.2 162.5 124.6V58.2C162.5 56.6 163.7 55.4 165.3 55.4H226.2C227.8 55.4 229 56.6 229 58.2V124.7C229 126.1 227.7 127.4 226.2 127.4Z" fill="white"/>
<path d="M229 95.5H162.5V58.2C162.5 56.6 163.7 55.4 165.3 55.4H226.2C227.8 55.4 229 56.6 229 58.2V95.5Z" fill="#D6DAE9"/>
<path d="M221.9 104.8H169.3C167.8 104.8 166.6 103.6 166.6 102.1C166.6 100.6 167.8 99.4 169.3 99.4H221.9C223.4 99.4 224.6 100.6 224.6 102.1C224.6 103.5 223.3 104.8 221.9 104.8Z" fill="#D6DAE9"/>
<path d="M223.2 110.1H168C167.3 110.1 166.7 109.5 166.7 108.8C166.7 108.1 167.3 107.5 168 107.5H223.2C223.9 107.5 224.5 108.1 224.5 108.8C224.6 109.4 223.9 110.1 223.2 110.1Z" fill="#EBEDF2"/>
<path d="M223.2 115.9H168C167.3 115.9 166.7 115.3 166.7 114.6C166.7 113.9 167.3 113.3 168 113.3H223.2C223.9 113.3 224.5 113.9 224.5 114.6C224.6 115.3 223.9 115.9 223.2 115.9Z" fill="#EBEDF2"/>
<path d="M195.8 121.5H168C167.3 121.5 166.7 120.9 166.7 120.2C166.7 119.5 167.3 118.9 168 118.9H195.8C196.5 118.9 197.1 119.5 197.1 120.2C197.2 120.9 196.5 121.5 195.8 121.5Z" fill="#EBEDF2"/>
<path opacity="0.3" d="M260.1 197.4V198.7C260.1 201.5 257.8 203.8 255 203.8C254.8 203.8 254.7 203.8 254.5 203.8C244 202.8 233.7 201 223.2 201.3C203.9 201.9 184.4 209.8 165.7 204.9C160.4 203.5 155.2 201.2 149.8 201.7C144.9 202.1 140.6 204.9 135.9 206.2C121.6 210.1 106.9 200.2 92.0998 200.6C82.2998 200.8 72.8998 205.6 63.0998 205.1C57.3998 204.8 51.9998 202.7 46.4998 201.4C32.6998 198.2 18.4998 200 4.2998 201.1C2.1998 201.3 0.399805 199.7 0.299805 197.7C0.299805 197.6 0.299805 197.5 0.299805 197.5V196.4C0.299805 194.3 1.9998 192.7 3.9998 192.7L254.9 192.5C257.8 192.3 260.1 194.6 260.1 197.4Z" fill="#F67506"/>
<path opacity="0.1" d="M260.1 197.4V198.7C260.1 201.5 257.8 203.8 255 203.8C254.8 203.8 254.7 203.8 254.5 203.8C244 202.8 233.7 201 223.2 201.3C203.9 201.9 184.4 209.8 165.7 204.9C160.4 203.5 155.2 201.2 149.8 201.7C144.9 202.1 140.6 204.9 135.9 206.2C121.6 210.1 106.9 200.2 92.0998 200.6C82.2998 200.8 72.8998 205.6 63.0998 205.1C57.3998 204.8 51.9998 202.7 46.4998 201.4C32.6998 198.2 18.4998 200 4.2998 201.1C2.1998 201.3 0.399805 199.7 0.299805 197.7C0.299805 197.6 0.299805 197.5 0.299805 197.5V196.4C0.299805 194.3 1.9998 192.7 3.9998 192.7L254.9 192.5C257.8 192.3 260.1 194.6 260.1 197.4Z" fill="#F67506"/>
<path opacity="0.2" d="M260.1 195V196.3C260.1 196.5 260.1 196.7 260.1 196.9C259.8 199.6 257.3 201.7 254.6 201.4C244.1 200.4 233.8 198.5 223.3 198.9C204 199.5 184.5 207.4 165.8 202.5C160.5 201.1 155.3 198.8 149.9 199.3C145 199.7 140.7 202.5 136 203.8C121.7 207.7 107 197.8 92.1999 198.2C82.3999 198.4 72.9999 203.2 63.1999 202.7C57.4999 202.4 52.0999 200.3 46.5999 199C32.7999 195.8 18.5999 197.6 4.3999 198.7C2.4999 198.8 0.799902 197.5 0.499902 195.6C0.499902 195.4 0.399902 195.2 0.399902 194.9V193.8C0.399902 191.7 2.0999 190.1 4.0999 190.1L66.9999 190L195.5 189.9L255 189.8C257.8 189.9 260.1 192.2 260.1 195Z" fill="#F67506"/>
<path opacity="0.1" d="M198.7 190.7C198.7 191.3 197.5 191.8 195.4 192.4C186.8 194.5 162.6 196.1 133.9 196.1C105.7 196.1 81.7997 194.6 72.8997 192.5C70.4997 191.9 69.1997 191.4 69.1997 190.7C69.1997 190.5 69.3997 190.3 69.6997 190.1L198.2 190C198.4 190.2 198.7 190.5 198.7 190.7Z" fill="black"/>
<path d="M179 49.1H180.5C180.9 49.1 181.1 49.3 181.1 49.7V71.1C181.1 71.5 180.9 71.7 180.5 71.7H179C178.6 71.7 178.4 71.5 178.4 71.1V49.8C178.4 49.5 178.6 49.1 179 49.1Z" fill="#3F3D56"/>
<path d="M87.2999 31.4H87.9999C88.1999 31.4 88.3999 31.6 88.3999 31.8V38.5C88.3999 38.7 88.1999 38.9 87.9999 38.9H87.2999C87.0999 38.9 86.8999 38.7 86.8999 38.5V31.9C86.9999 31.6 87.0999 31.4 87.2999 31.4Z" fill="#3F3D56"/>
<path d="M87.2999 45H88.0999C88.2999 45 88.4999 45.2 88.4999 45.4V57.5C88.4999 57.7 88.2999 57.9 88.0999 57.9H87.2999C87.0999 57.9 86.8999 57.7 86.8999 57.5V45.5C86.8999 45.2 87.0999 45 87.2999 45Z" fill="#3F3D56"/>
<path d="M87.2999 62.5H88.0999C88.2999 62.5 88.4999 62.7 88.4999 62.9V75.1C88.4999 75.3 88.2999 75.5 88.0999 75.5H87.2999C87.0999 75.5 86.8999 75.3 86.8999 75.1V63C86.8999 62.8 87.0999 62.5 87.2999 62.5Z" fill="#3F3D56"/>
<path d="M97.2998 6.79999H170.3C175.5 6.79999 179.8 11 179.8 16.3V184C179.8 189.2 175.6 193.5 170.3 193.5H97.2998C92.0998 193.5 87.7998 189.3 87.7998 184V16.3C87.7998 11 92.0998 6.79999 97.2998 6.79999Z" fill="#3F3D56"/>
<path d="M125.6 12.4H137.1C137.5 12.4 137.8 12.7 137.8 13.1V14.3C137.8 14.7 137.5 15 137.1 15H125.6C125.2 15 124.9 14.7 124.9 14.3V13.1C125 12.6 125.2 12.4 125.6 12.4Z" fill="#E6E8EC"/>
<path d="M141.2 15.1C142 15.1 142.7 14.4 142.7 13.6C142.7 12.8 142 12.1 141.2 12.1C140.4 12.1 139.7 12.8 139.7 13.6C139.7 14.5 140.4 15.1 141.2 15.1Z" fill="#E6E8EC"/>
<path d="M174.2 18.9V181.3C174.2 185.3 170.9 188.6 166.9 188.6H100.9C96.8996 188.6 93.5996 185.3 93.5996 181.3V18.9C93.5996 14.9 96.8996 11.6 100.9 11.6H110.8V13C110.8 16.3 113.5 19 116.8 19H150.4C153.7 19 156.4 16.3 156.4 13V11.7H166.9C170.9 11.6 174.2 14.9 174.2 18.9Z" fill="#F5F6FA"/>
<path d="M170.4 26.1H170.2L170.1 26C170.4 25.6 170.6 25.2 170.6 24.7C170.6 23.6 169.7 22.7 168.6 22.7C167.5 22.7 166.6 23.6 166.6 24.7C166.6 25.8 167.5 26.7 168.6 26.7C169.1 26.7 169.5 26.5 169.9 26.2L170 26.3V26.5L171.5 28.1L171.9 27.7L170.4 26.1ZM168.6 26.1C167.9 26.1 167.2 25.5 167.2 24.7C167.2 24 167.8 23.3 168.6 23.3C169.4 23.3 170 23.9 170 24.7C169.9 25.5 169.3 26.1 168.6 26.1Z" fill="#111111"/>
<path d="M237.3 191.2C238.1 189.7 237.2 187.9 236.2 186.6C235.1 185.3 233.9 183.9 234 182.2C234.1 179.8 236.6 178.4 238.6 177.1C240.1 176.2 241.5 175 242.8 173.8C243.4 173.3 243.7 172.7 244.1 172.1C244.5 171.2 244.5 170.1 244.5 169C244.4 165.6 244.3 162.1 244 158.7" stroke="#3F3D56" stroke-width="4" stroke-miterlimit="10"/>
<path d="M247.7 158.7C247.6 157.4 247 156.3 245.8 155.6L245 157.2V155.2C244.6 155.1 244.2 155 243.8 155C241.7 155.1 240.1 156.9 240.2 158.9C240.3 160.9 242.1 162.6 244.1 162.5C246.2 162.5 247.8 160.8 247.7 158.7Z" fill="#4BAE4F"/>
<path d="M241 184C240.1 185.8 237.8 186.6 236 185.6C234.1 184.7 233.4 182.4 234.4 180.6C235.3 178.8 237.6 178 239.4 179C240.2 179.4 240.9 180.1 241.2 181L238.8 182.9L241.4 182.3C241.4 182.9 241.3 183.5 241 184Z" fill="#4BAE4F"/>
<path d="M239.1 176.7C237 176.8 235.2 175.3 235.1 173.2C235 171.4 236.2 169.8 237.9 169.3V170.9L238.8 169.2C240.9 169.1 242.6 170.7 242.7 172.8C242.7 173.2 242.7 173.7 242.5 174.1C242.1 175.6 240.8 176.6 239.1 176.7Z" fill="#4BAE4F"/>
<path d="M248.2 170.7C246.1 170.8 244.4 169.2 244.3 167.1C244.2 165 245.8 163.3 247.9 163.2C248.6 163.2 249.2 163.3 249.8 163.6L249.1 165.4L250.5 164.1C251.2 164.8 251.7 165.7 251.7 166.7C251.7 167.1 251.7 167.4 251.6 167.8C251.4 169.4 249.9 170.6 248.2 170.7Z" fill="#4BAE4F"/>
<path opacity="0.1" d="M247.2 159.7C246.3 159.8 245.5 160.1 244.6 160.1C243.7 160.2 242.8 159.9 242.2 159.3C241.9 158.9 241.8 158.5 241.5 158.1C241.3 157.7 240.9 157.4 240.6 157.2C239.7 159.1 240.5 161.2 242.3 162.2C244.2 163.1 246.4 162.3 247.3 160.5C247.4 160.3 247.5 160 247.5 159.8C247.4 159.7 247.3 159.7 247.2 159.7Z" fill="black"/>
<path opacity="0.1" d="M248.2 170.7C246.1 170.8 244.4 169.2 244.3 167.1C244.3 166.5 244.4 165.9 244.7 165.3C245 165.5 245.3 165.7 245.4 166C245.6 166.4 245.8 166.9 246.1 167.2C246.7 167.9 247.7 168.1 248.6 168.1C249.5 168.1 250.4 167.8 251.3 167.7C251.4 167.7 251.5 167.7 251.7 167.7C251.4 169.4 249.9 170.6 248.2 170.7Z" fill="black"/>
<path opacity="0.1" d="M239.1 176.7C237 176.8 235.3 175.2 235.2 173.1C235.2 172.5 235.3 171.9 235.5 171.4C235.8 171.6 236.1 171.8 236.3 172.1C236.6 172.5 236.8 173 237.1 173.3C237.7 174 238.8 174.2 239.7 174.2C240.6 174.2 241.5 174 242.4 173.9C242.1 175.6 240.8 176.6 239.1 176.7Z" fill="black"/>
<path opacity="0.1" d="M241 184C240.1 185.9 237.9 186.7 236.1 185.9C234.2 185.1 233.4 182.8 234.2 181C234.5 181.2 234.8 181.4 235 181.7C235.4 182.1 235.6 182.6 236 183C236.7 183.7 238 184.1 239.1 184.1C239.7 184.1 240.4 184.1 241 184Z" fill="black"/>
<path d="M231.7 189.5C231.7 189.5 234.7 189.4 235.6 188.8C236.5 188.2 240.1 187.4 240.4 188.4C240.7 189.4 244.8 193.4 241.5 193.5C238.1 193.5 233.7 193 232.8 192.4C231.9 191.8 231.7 189.5 231.7 189.5Z" fill="#656380"/>
<path opacity="0.2" d="M241.4 193.1C238 193.1 233.6 192.5 232.7 192C232 191.6 231.8 190.1 231.6 189.4H231.5C231.5 189.4 231.7 191.8 232.6 192.3C233.5 192.9 237.9 193.4 241.3 193.4C242.2 193.4 242.6 193 242.6 192.5C242.5 192.9 242.1 193.1 241.4 193.1Z" fill="black"/>
<path d="M24.8999 68.1C30.1999 68.1 34.3999 63.9 34.3999 58.6C34.3999 53.4 30.0999 49.1 24.8999 49.1C19.5999 49.1 15.3999 53.3 15.3999 58.6C15.3999 63.8 19.6999 68.1 24.8999 68.1Z" fill="#3F3D56"/>
<path d="M19.5 132.5C20.5 139.4 19.3 146.4 17.4 153.1C17 154.3 16.7 155.6 16 156.7C15.3 157.8 14.4 158.8 13.7 159.8C12.1 162 11.1 164.6 10.3 167.1C7.9 174.2 5.9 181.4 4.2 188.7C4.1 189 4.1 189.3 4.2 189.6C4.4 190.2 5.1 190.2 5.7 190.2L13.2 190.1C13.4 189.6 13 189 12.6 188.5C11.5 186.9 12.5 184.7 13.5 183C15.8 178.8 17.5 174.3 18.8 169.7C19.3 167.8 19.7 165.8 20.5 163.9C21.5 161.7 23.1 159.7 24.4 157.7C25.9 155.3 27 152.7 28.1 150C29.6 146.3 31.1 142.7 31.7 138.7C32.3 135 32 131.3 31.6 127.6C31.7 127.2 31.4 126.9 31 126.8C30.9 126.8 30.8 126.8 30.8 126.8L20.8 126.3C18.7 126.2 18.2 125.7 18.6 127.7C18.7 129.6 19.2 131 19.5 132.5Z" fill="#3F3D56"/>
<path opacity="0.1" d="M19.5 132.5C20.5 139.4 19.3 146.4 17.4 153.1C17 154.3 16.7 155.6 16 156.7C15.3 157.8 14.4 158.8 13.7 159.8C12.1 162 11.1 164.6 10.3 167.1C7.9 174.2 5.9 181.4 4.2 188.7C4.1 189 4.1 189.3 4.2 189.6C4.4 190.2 5.1 190.2 5.7 190.2L13.2 190.1C13.4 189.6 13 189 12.6 188.5C11.5 186.9 12.5 184.7 13.5 183C15.8 178.8 17.5 174.3 18.8 169.7C19.3 167.8 19.7 165.8 20.5 163.9C21.5 161.7 23.1 159.7 24.4 157.7C25.9 155.3 27 152.7 28.1 150C29.6 146.3 31.1 142.7 31.7 138.7C32.3 135 32 131.3 31.6 127.6C31.7 127.2 31.4 126.9 31 126.8C30.9 126.8 30.8 126.8 30.8 126.8L20.8 126.3C18.7 126.2 18.2 125.7 18.6 127.7C18.7 129.6 19.2 131 19.5 132.5Z" fill="black"/>
<path d="M21.4 115.8C19.3 118.7 17.2 122.1 17.9 125.6C18.4 128.3 20.5 130.3 22.3 132.3C30 140 37.5 148.5 40.1 159C40.8 161.7 41.1 164.5 41.7 167.2C42.8 172.2 44.6 176.9 46.5 181.7L51.5 194.3C54.7 194.4 57.5 192.5 58.7 189.5C58 189.4 57.2 188.8 56.8 188.3C54.7 185.4 54.2 181.6 53.7 178C53.1 174 52.3 170.1 51.5 166.2L48 148.7C47.6 146.7 47.2 144.7 46.6 142.7C44.5 135 40.6 127.8 39.9 119.8C39.8 118.6 39.8 117.4 39 116.5C38.2 115.6 36.8 115.4 35.6 115.4C30.6 115.1 26.3 114.6 21.4 115.8Z" fill="#3F3D56"/>
<path d="M7.89956 188.8C7.29956 188.7 6.79956 188.6 6.19956 188.6C5.09956 188.6 4.09956 189.2 3.49956 190.1C3.19956 190.6 2.89956 191.2 2.79956 191.7L1.99956 193.8C1.79956 194.4 1.59956 195.1 1.89956 195.7C2.09956 196.1 2.49956 196.3 2.79956 196.4C4.49956 197.1 6.49956 197.2 8.39956 197.4C10.2996 197.6 12.0996 197.9 13.8996 198.3C14.4996 198.4 15.0996 198.5 15.7996 198.6C17.1996 198.7 18.6996 198.6 20.0996 198.5L21.5996 198.4C22.0996 198.4 22.5996 198.3 22.9996 198.2C23.4996 198 23.8996 197.7 24.0996 197.3C24.4996 196.4 23.6996 195.3 22.6996 195.2C22.2996 195.1 21.9996 195.1 21.4996 195.1C21.0996 195 20.5996 194.9 20.1996 194.7C18.2996 194 16.3996 193.2 14.7996 192.1C14.3996 191.8 13.8996 191.4 13.8996 190.8C13.9996 190.6 13.9996 190.3 14.0996 190.1C14.2996 189.5 14.2996 188.9 14.0996 188.3C13.9996 188.1 13.8996 187.8 13.5996 187.7C12.8996 187.6 12.9996 188.6 12.8996 189C12.7996 189.6 12.4996 189.6 11.9996 189.6C10.7996 189.1 9.39956 189 7.89956 188.8Z" fill="#3F3D56"/>
<path d="M49.9998 196C49.9998 197.1 50.3998 198.1 50.9998 198.9C51.1998 199.1 51.3998 199.3 51.6998 199.5C52.0998 199.7 52.5998 199.7 52.9998 199.7C54.2998 199.7 55.5998 199.4 56.6998 199C57.0998 198.8 57.5998 198.6 57.9998 198.5C58.5998 198.4 59.0998 198.3 59.6998 198.3C61.8998 198 63.7998 196.7 65.9998 196.1C66.5998 195.9 67.1998 195.7 67.8998 195.5C68.7998 195.1 69.3998 194.4 70.0998 193.8C70.4998 193.4 70.7998 193.1 71.0998 192.6C71.4998 191.9 71.4998 191 71.4998 190.2C71.4998 190.1 71.4998 190 71.3998 189.8C71.2998 189.7 71.2998 189.6 71.1998 189.6C70.5998 189.3 69.7998 189.4 69.0998 189.6C66.4998 190 63.8998 190 61.2998 189.9C60.7998 190 60.2998 189.7 60.0998 189.2L59.0998 187.6C58.7998 187.2 58.3998 186.6 57.8998 186.8C57.4998 186.9 57.2998 187.4 57.2998 187.9C57.2998 188.4 57.4998 188.8 57.3998 189.2C57.2998 189.7 56.9998 190.1 56.4998 190.3C56.0998 190.5 55.5998 190.7 55.1998 190.8C53.6998 191.2 51.9998 191.7 50.8998 192.8C49.8998 193.2 49.9998 194.9 49.9998 196Z" fill="#3F3D56"/>
<path d="M49.4998 90.3C50.0998 89.9 50.5998 89.3 50.9998 88.7C51.3998 88 51.5998 87.3 51.5998 86.5L51.9998 84C52.1998 82.5 52.4998 81 53.4998 79.9C54.4998 78.8 56.3998 78.4 57.3998 79.5C57.7998 80 57.9998 80.6 58.0998 81.2C58.6998 85.1 57.4998 88.9 54.8998 91.9C53.6998 93.2 52.1998 94.3 50.9998 95.5C49.9998 96.5 48.9998 97.8 47.9998 98.9C45.5998 101.7 42.6998 104.2 39.5998 106.2C39.5998 104.2 39.8998 102.1 39.5998 100.2C39.3998 98.8 38.7998 98 40.1998 97.1C43.2998 94.8 46.5998 92.8 49.4998 90.3Z" fill="#FBBEBE"/>
<path d="M22.5997 70.9C22.4997 72.3 21.8997 73.8 20.6997 74.6C24.0997 75.8 27.2997 77 30.4997 78.5C29.8997 77.9 29.6997 77 29.5997 76.1C29.4997 73.9 30.2997 71.6 31.4997 69.7C31.6997 69.5 31.7997 69.1 31.7997 68.8C31.7997 68.2 31.0997 67.9 30.3997 67.7C28.2997 67.2 26.1997 66.9 23.9997 66.8C23.0997 66.8 21.9997 66.5 22.1997 67.7C22.4997 68.6 22.6997 69.8 22.5997 70.9Z" fill="#FBBEBE"/>
<path d="M28.9997 71.6C33.2997 71.6 36.7997 68.1 36.7997 63.8C36.7997 59.5 33.2997 56 28.9997 56C24.6997 56 21.1997 59.5 21.1997 63.8C21.2997 68.1 24.6997 71.6 28.9997 71.6Z" fill="#FBBEBE"/>
<path d="M36.7999 84.8C36.5999 84.2 36.1999 83.7 35.7999 83.2C34.3999 81.2 32.8999 79.2 31.0999 77.5C29.6999 76.3 28.1999 75.2 26.6999 74.3C25.7999 73.7 24.8999 73.2 23.8999 73C23.2999 72.9 22.6999 72.8 22.0999 72.8L19.9999 72.5C19.7999 72.5 19.5999 72.5 19.3999 72.5C18.7999 72.6 18.5999 73.3 18.6999 73.9C18.7999 74.5 19.2999 74.9 19.5999 75.3C19.6999 79.4 17.8999 83.5 17.5999 87.6C17.1999 94.8 21.5999 101.5 21.8999 108.7C21.8999 109 21.8999 109.4 21.7999 109.6C21.6999 109.8 21.5999 109.9 21.5999 110C21.3999 110.4 21.3999 110.9 21.3999 111.5C21.2999 113.3 20.4999 114.9 19.1999 116.2C19.4999 116.6 19.8999 116.9 20.3999 117.1C21.2999 117.5 22.2999 117.5 23.1999 117.8C25.5999 118.5 27.9999 119.2 30.3999 119C30.6999 118.3 30.8999 117.6 30.9999 116.9C31.3999 116.7 31.6999 117.1 31.7999 117.5C31.8999 117.9 31.7999 118.4 31.9999 118.7C32.2999 119 32.6999 118.9 32.9999 118.9C34.4999 118.7 35.8999 118.2 37.3999 117.8C38.8999 117.4 40.4999 117.3 41.7999 117.8C42.0999 117.4 41.9999 116.9 41.6999 116.5C41.3999 116.1 41.0999 115.8 40.9999 115.3C40.8999 115.1 40.8999 114.7 40.8999 114.5C40.8999 112.3 41.3999 109.9 40.8999 107.7C40.7999 107 40.4999 106.4 40.3999 105.8C40.1999 104.5 40.1999 103.2 40.1999 101.9C40.2999 100.6 40.0999 99.2 39.9999 97.9C39.9999 97.3 39.9999 96.8 39.8999 96.3C39.7999 95.7 39.6999 95.2 39.5999 94.6C39.4999 93.1 39.9999 91.7 39.9999 90.2C40.1999 88.1 37.5999 86.9 36.7999 84.8Z" fill="#FF6584"/>
<path d="M19.0996 83.8C17.1996 88.8 16.2996 94.1 15.3996 99.4L13.2996 111.8C12.6996 115.3 12.0996 118.8 12.0996 122.4C12.0996 123.4 12.1996 124.4 11.8996 125.4C11.4996 126.6 10.6996 127.7 9.99964 128.9C8.69964 131.3 8.29964 133.9 8.79964 136.6C8.99964 137.7 9.59964 139 10.6996 139.1C11.5996 139.2 12.3996 138.5 12.8996 137.7C14.0996 136 14.7996 133.8 15.2996 131.8C16.9996 125.1 18.2996 118.2 18.9996 111.3C19.0996 110.4 19.1996 109.6 19.3996 108.7C19.5996 107.8 19.9996 107 20.2996 106.1C21.0996 104.1 21.8996 102.1 22.6996 100.1C24.5996 95.4 26.4996 90.8 29.0996 86.4C26.4996 85.7 23.8996 84.8 21.2996 84.1C20.7996 83.6 19.9996 83.8 19.0996 83.8Z" fill="#FBBEBE"/>
<path d="M23.5999 87.6C21.7999 87.2 19.8999 87.4 18.0999 87.3C17.8999 87.3 17.5999 87.2 17.3999 87.1C16.9999 86.8 17.1999 86.2 17.3999 85.7L18.2999 83.6C18.3999 83.2 18.6999 82.7 18.9999 82.4C19.3999 82 20.0999 81.9 20.6999 81.8C22.5999 81.6 24.5999 81.5 26.5999 82C28.4999 82.6 30.2999 83.7 31.0999 85.5C31.4999 86.2 31.5999 87.2 31.1999 87.9C30.4999 88.9 28.9999 90 27.7999 89.5C26.1999 88.8 25.1999 87.9 23.5999 87.6Z" fill="#FF6584"/>
<path d="M33.1999 51.8C31.5999 51.8 30.0999 52.2 28.7999 53C26.2999 50.6 22.6999 49.8 19.4999 50.8C18.9999 47.9 16.0999 45.9 13.1999 46.4C10.1999 46.9 8.29988 49.7 8.79988 52.7C9.19988 54.9 10.9999 56.7 13.1999 57.1C11.4999 62.1 14.2999 67.5 19.1999 69.1C24.0999 70.7 29.5999 68 31.2999 63.1C31.3999 62.9 31.3999 62.7 31.4999 62.4C32.0999 62.5 32.5999 62.6 33.1999 62.6C36.8999 62.6 39.9999 60.2 39.9999 57.2C39.8999 54.2 36.8999 51.8 33.1999 51.8Z" fill="#3F3D56"/>
<path opacity="0.1" d="M34.4996 59.9C33.8996 59.9 33.3996 59.8 32.7996 59.7C32.5996 60.7 32.0996 61.6 31.5996 62.4C32.1996 62.5 32.6996 62.6 33.1996 62.6C36.7996 62.6 39.5996 60.5 39.9996 57.7C38.5996 59 36.6996 59.9 34.4996 59.9Z" fill="black"/>
<path opacity="0.1" d="M23.5998 66.7C18.2998 66.7 14.0998 62.4 14.0998 57.2C14.0998 56.3 14.1998 55.3 14.4998 54.5C11.8998 53.9 9.99978 51.6 9.99978 49C9.99978 48.7 9.99978 48.3 10.0998 48C7.99978 50.2 8.19978 53.7 10.3998 55.7C11.0998 56.4 12.0998 56.9 13.0998 57.1C11.4998 62.1 14.3998 67.4 19.4998 69C24.4998 70.5 29.7998 67.8 31.3998 62.8C29.4998 65.2 26.6998 66.7 23.5998 66.7Z" fill="black"/>
<path d="M99.1997 28.8C100.9 28.8 102.2 27.4 102.2 25.8C102.2 24.1 100.8 22.8 99.1997 22.8C97.4997 22.8 96.1997 24.2 96.1997 25.8C96.1997 27.4 97.5997 28.8 99.1997 28.8Z" fill="#F67506"/>
<path d="M110.6 24.5H105.4C105.2 24.5 105 24.3 105 24.1C105 23.9 105.2 23.7 105.4 23.7H110.6C110.8 23.7 111 23.9 111 24.1C111 24.3 110.8 24.5 110.6 24.5Z" fill="#111111"/>
<path d="M110.6 26.1H105.4C105.2 26.1 105 25.9 105 25.7C105 25.5 105.2 25.3 105.4 25.3H110.6C110.8 25.3 111 25.5 111 25.7C111 25.9 110.8 26.1 110.6 26.1Z" fill="#111111"/>
<path d="M110.6 27.7H105.4C105.2 27.7 105 27.5 105 27.3C105 27.1 105.2 26.9 105.4 26.9H110.6C110.8 26.9 111 27.1 111 27.3C111 27.5 110.8 27.7 110.6 27.7Z" fill="#111111"/>
<path d="M164.6 105.6H103.7C102.1 105.6 100.9 104.4 100.9 102.8V36.4C100.9 34.8 102.1 33.6 103.7 33.6H164.6C166.2 33.6 167.4 34.8 167.4 36.4V102.9C167.4 104.3 166.1 105.6 164.6 105.6Z" fill="white"/>
<path d="M167.4 73.7H100.9V36.4C100.9 34.8 102.1 33.6 103.7 33.6H164.6C166.2 33.6 167.4 34.8 167.4 36.4V73.7Z" fill="#D6DAE9"/>
<path d="M131.8 48.5C131.7 48.7 131.6 49 131.4 49.4C131 50.1 130.9 50.9 130.8 51.6C130.7 52.1 130.7 52.6 130.7 53V53.1C131.4 54.2 132.2 55.3 133.1 56.3C133.2 56.4 133.2 56.5 133.2 56.7C133.8 58.6 134.3 60.3 134.9 62.2C135 62.6 134.9 62.9 134.8 63.3C134.6 63.7 134.3 63.9 133.8 63.9C133.6 63.9 133.3 63.9 133.2 63.9C132.8 63.8 132.6 63.7 132.5 63.4C132.4 63.3 132.4 63.2 132.3 62.9C132.2 62.6 132.2 62.3 132.1 62C131.6 60.6 131.2 59.1 130.7 57.8C130.7 57.8 130.7 57.7 130.6 57.7C129.6 56.6 128.5 55.5 127.5 54.2C127.1 53.7 126.9 53.2 126.9 52.6C126.9 52.1 126.9 51.6 127 51.2C127.2 50.2 127.5 49.3 127.9 48.3C128.1 47.6 128.5 46.8 128.9 46.1C129.3 45.5 129.6 44.9 130.1 44.4C130.3 44.2 130.5 44 130.8 43.9C131.4 43.8 132.2 43.9 132.5 44.5C133.2 45.5 133.9 46.6 134.6 47.6C135.6 49.2 136.7 50.7 137.7 52.3C137.9 52.7 138.1 53.2 137.8 53.5C137.7 53.9 137.4 54 137.2 54.1C136.6 54.3 136 54.2 135.6 53.6C134.7 52.4 133.9 51 133 49.7C132.6 49.5 132.2 49 131.8 48.5C131.9 48.6 131.8 48.5 131.8 48.5Z" fill="#F67506"/>
<path d="M135.2 45.8C133.8 45.8 132.7 44.7 132.7 43.3C132.7 41.9 133.8 40.8 135.2 40.8C136.6 40.8 137.7 41.9 137.7 43.3C137.8 44.7 136.7 45.8 135.2 45.8Z" fill="#F67506"/>
<path d="M128.3 56.6C128.4 56.8 128.7 57 128.8 57.1C129 57.5 129.4 57.7 129.7 58.1C129.7 58.1 129.7 58.2 129.8 58.2C129.9 58.6 130 59.1 130.2 59.4V59.5C129.8 60.6 129.5 61.7 129.1 63C129 63.4 128.7 63.5 128.5 63.7C128.3 63.8 128 63.9 127.9 63.8C127.4 63.8 126.9 63.4 126.7 62.9C126.6 62.5 126.6 62.2 126.7 61.9C127 60.4 127.7 58.5 128.3 56.6C128.2 56.7 128.3 56.6 128.3 56.6Z" fill="#F67506"/>
<path d="M136.6 55.4C137 55.4 137.2 55.3 137.6 55.2C138.3 58.2 139.1 61.1 139.8 64.1C139.8 64.1 139.8 64.1 139.7 64.1C139.5 64.1 139.1 64.1 138.8 64.1C138.8 64.1 138.7 64.1 138.7 64C138.2 61.9 137.7 59.9 137.2 57.8C136.9 56.9 136.9 56.1 136.6 55.4Z" fill="#F67506"/>
<path d="M160.3 83H107.7C106.2 83 105 81.8 105 80.3C105 78.8 106.2 77.6 107.7 77.6H160.3C161.8 77.6 163 78.8 163 80.3C163 81.7 161.7 83 160.3 83Z" fill="#D6DAE9"/>
<path d="M161.6 88.3H106.4C105.7 88.3 105.1 87.7 105.1 87C105.1 86.3 105.7 85.7 106.4 85.7H161.6C162.3 85.7 162.9 86.3 162.9 87C163 87.6 162.3 88.3 161.6 88.3Z" fill="#EBEDF2"/>
<path d="M161.6 94.1H106.4C105.7 94.1 105.1 93.5 105.1 92.8C105.1 92.1 105.7 91.5 106.4 91.5H161.6C162.3 91.5 162.9 92.1 162.9 92.8C163 93.5 162.3 94.1 161.6 94.1Z" fill="#EBEDF2"/>
<path d="M134.2 99.7H106.4C105.7 99.7 105.1 99.1 105.1 98.4C105.1 97.7 105.7 97.1 106.4 97.1H134.2C134.9 97.1 135.5 97.7 135.5 98.4C135.6 99 134.9 99.7 134.2 99.7Z" fill="#EBEDF2"/>
<path d="M164.6 183.3H103.7C102.1 183.3 100.9 182.1 100.9 180.5V114C100.9 112.4 102.1 111.2 103.7 111.2H164.6C166.2 111.2 167.4 112.4 167.4 114V180.5C167.4 182.1 166.1 183.3 164.6 183.3Z" fill="white"/>
<path d="M167.4 151.5H100.9V114.1C100.9 112.5 102.1 111.3 103.7 111.3H164.6C166.2 111.3 167.4 112.5 167.4 114.1V151.5Z" fill="#D6DAE9"/>
<path d="M160.3 160.6H107.7C106.2 160.6 105 159.4 105 157.9C105 156.4 106.2 155.2 107.7 155.2H160.3C161.8 155.2 163 156.4 163 157.9C163 159.5 161.7 160.6 160.3 160.6Z" fill="#D6DAE9"/>
<path d="M161.6 165.9H106.4C105.7 165.9 105.1 165.3 105.1 164.6C105.1 163.9 105.7 163.3 106.4 163.3H161.6C162.3 163.3 162.9 163.9 162.9 164.6C163 165.4 162.3 165.9 161.6 165.9Z" fill="#EBEDF2"/>
<path d="M161.6 171.8H106.4C105.7 171.8 105.1 171.2 105.1 170.5C105.1 169.8 105.7 169.2 106.4 169.2H161.6C162.3 169.2 162.9 169.8 162.9 170.5C163 171.2 162.3 171.8 161.6 171.8Z" fill="#EBEDF2"/>
<path d="M134.2 177.4H106.4C105.7 177.4 105.1 176.8 105.1 176.1C105.1 175.4 105.7 174.8 106.4 174.8H134.2C134.9 174.8 135.5 175.4 135.5 176.1C135.6 176.8 134.9 177.4 134.2 177.4Z" fill="#EBEDF2"/>
<path d="M136.7 130.2C136.7 130.8 136.7 131.4 136.7 132.1C134.7 132.1 132.8 132.1 130.8 132.1C130.8 131.5 130.8 130.9 130.8 130.2C130.8 130.2 130.7 130.2 130.7 130.1C130.3 130.5 129.8 131 129.5 131.3C129.2 131.6 128.9 131.9 128.6 132.2C128 132.6 127.5 132.6 127.1 132.2C126.7 131.8 126.8 131.3 127.2 130.8C128.4 129.7 129.8 128.4 131 127.1C131.3 126.9 131.7 126.7 132.1 126.7C133.2 126.6 134.3 126.7 135.5 126.7C136.1 126.7 136.4 126.9 136.7 127.3C137.9 128.5 139.1 129.7 140.4 131C141 131.6 141 132.1 140.5 132.5C140.1 132.9 139.4 132.9 139 132.4C138.2 131.6 137.6 131 136.7 130.2C136.7 130.1 136.7 130.2 136.7 130.2Z" fill="#F67506"/>
<path d="M131 123.5C131 121.9 132.2 120.6 133.7 120.6C135.3 120.6 136.6 121.8 136.6 123.5C136.6 125.1 135.4 126.4 133.7 126.4C132.3 126.3 131 125.1 131 123.5Z" fill="#F67506"/>
<path d="M131.4 137C132 137.6 132.5 138.1 133.1 138.7C133.5 139.1 133.5 139.6 133.3 139.9C133.1 140.3 132.7 140.5 132.2 140.5C132 140.5 131.8 140.3 131.6 140.2C130.7 139.3 129.8 138.4 129 137.5C128.3 136.8 128.4 135.8 129.1 135.1C129.7 134.5 130.2 134 130.8 133.5C130.8 133.5 130.9 133.5 130.8 133.5C131.5 134.2 132.3 134.9 133 135.7C132.6 135.9 132 136.4 131.4 137Z" fill="#F67506"/>
<path d="M136.1 137.1C135.5 136.5 135 136 134.5 135.6C135.2 134.9 136 134.2 136.7 133.4C137.3 134 137.9 134.5 138.6 135.3C139.2 135.9 139 136.8 138.5 137.4C137.6 138.3 136.7 139.3 135.8 140.3C135.4 140.7 134.7 140.9 134.3 140.4C133.9 140 133.9 139.5 134.4 138.9C135 138.1 135.5 137.6 136.1 137.1Z" fill="#F67506"/>
<path d="M203.4 72.7L197.2 74.6C196.8 74.7 196.3 74.7 196.1 74.6L191.7 73.3C191.5 73.5 191.3 73.8 191.3 74.1C191.5 74.2 191.7 74.5 191.7 74.7C191.7 74.9 191.6 75.1 191.4 75.3L192 77.9C192.1 78.1 191.9 78.3 191.6 78.3H190.4C190.2 78.3 190 78.1 190 77.9L190.6 75.3C190.4 75.2 190.3 75 190.3 74.7C190.3 74.5 190.5 74.2 190.7 74.1C190.7 73.7 190.9 73.4 191.1 73L190 72.6C189.4 72.4 189.4 71.7 190 71.6L196.2 69.7C196.6 69.6 196.9 69.6 197.3 69.7L203.5 71.6C204 71.9 204 72.6 203.4 72.7ZM200.7 74.3L201 76.9C201 77.7 199.1 78.3 196.7 78.3C194.3 78.3 192.4 77.7 192.4 76.9L192.7 74.3L195.9 75.3C196.2 75.4 196.7 75.5 197.4 75.3L200.7 74.3Z" fill="#F67506"/>
</g>
<defs>
<clipPath id="clip0">
<rect width="260" height="210" fill="white"/>
</clipPath>
</defs>
</svg>
