<svg width="260" height="210" viewBox="0 0 260 210" fill="none" xmlns="http://www.w3.org/2000/svg">
<path opacity="0.1" d="M151.2 161.1C134.6 161 118.7 160.5 103.5 159.8C88.4002 159.2 73.4002 158.5 57.2002 158.1C46.8002 157.9 34.8002 157.9 26.4002 158.4C18.3002 159 15.6002 159.9 14.2002 160.9C13.2002 161.6 12.5002 162.3 15.4002 163C17.4002 163.5 21.0002 163.8 23.5002 164.3C32.1002 165.8 26.0002 167.6 16.7002 169.1C12.3002 169.8 7.20017 170.4 3.90017 171.2C0.500165 171.9 -0.999835 172.7 2.00017 173.5C4.90017 174.2 11.9002 174.8 19.4002 175.2C34.7002 176 52.8002 176.2 70.4002 176.3C109.4 176.6 148.7 176.5 187.8 176.4C202.3 176.3 216.8 176.3 231.1 176.1C239 176 247.2 175.8 252.9 175.2C260.2 174.6 262 173.5 257.1 172.7C248.9 171.4 226.3 171 220.5 169.6C217.3 168.8 220.6 167.9 225.1 167.2C234.9 165.6 251.4 164.2 252.3 162.4C252.9 161.1 245 159.9 232.7 159.3C219.9 158.7 202 158.8 192.6 159.8C183 160.7 165.9 161.1 151.2 161.1Z" fill="#F67506"/>
<path d="M208 163.7C207.1 163.4 206.1 163.3 205.1 163.4C203.9 163.5 204.1 165.3 205.3 165.2C205.9 165.1 206.5 165 207.1 164.9L208 163.7Z" fill="#4BAE4F"/>
<path d="M208.3 163.7C208.7 164.6 208.9 165.5 209 166.5C209 167.7 207.2 167.8 207.1 166.6C207.1 166 207.1 165.4 207.2 164.8L208.3 163.7Z" fill="#4BAE4F"/>
<path d="M211.1 159.8C211.1 159.8 210.5 158 207 158.7C205.4 159 205.5 161.3 207.1 161.6H207.2C209.3 161.9 210.2 160.9 211.1 159.8Z" fill="#4BAE4F"/>
<path d="M211.4 159.7C211.4 159.7 213.3 159.9 213.4 163.5C213.5 165.1 211.2 165.6 210.6 164.1V164C209.8 161.8 210.5 160.8 211.4 159.7Z" fill="#4BAE4F"/>
<path d="M214 155C213.7 153.7 212.7 152.5 211.4 152.1C209 151.4 207.7 155 210.1 155.9C211.1 156.2 212.1 156.4 213.1 156.4L214 155Z" fill="#4BAE4F"/>
<path d="M216.9 149C216.9 149 215.9 146.7 213.4 146.2C210.7 145.7 209.9 149.7 212.5 150.3C213.7 150.6 214.9 150.6 216.1 150.3L216.9 149Z" fill="#4BAE4F"/>
<path d="M218.7 143.1C217.8 141.8 216.5 140.9 215 140.6C212.7 140.2 211.9 143.6 214.2 144.2C215.6 144.5 217.1 144.5 218.5 144.1L218.7 143.1Z" fill="#4BAE4F"/>
<path d="M220.3 137.3C219.6 136.1 218.4 135.2 217.1 134.7C214.8 134 213.7 137.5 216 138.2C217.3 138.7 218.8 138.7 220.2 138.2L220.3 137.3Z" fill="#4BAE4F"/>
<path d="M221 132.1C221 132.1 220.1 129.9 218.2 128.8C216.1 127.5 214.1 130.6 216.1 132C217.4 132.9 218.9 133.5 220.7 133L221 132.1Z" fill="#4BAE4F"/>
<path d="M221.4 125.9C221.4 125.9 220.4 123.7 218.5 122.7C216.3 121.6 214.4 124.7 216.5 126.1C217.8 127 219.5 127.6 221.3 126.8L221.4 125.9Z" fill="#4BAE4F"/>
<path d="M221.2 120.2C220.5 119 219.5 118 218.4 117C216.9 115.7 215 118 216.4 119.3C217.7 120.5 219.4 121.5 221.1 121.5L221.2 120.2Z" fill="#4BAE4F"/>
<path d="M220.6 114.7C219.7 113.2 218.7 111.9 217.5 110.7C216.3 109.6 214.6 111.3 215.7 112.5C217 113.9 218.7 115.3 220.8 115.9L220.6 114.7Z" fill="#4BAE4F"/>
<path d="M219.5 108.3C218.8 107.2 218 106.1 217 105.2C215.8 104 214 105.8 215.1 107C216.3 108.3 217.9 109.5 219.7 109.9L219.5 108.3Z" fill="#4BAE4F"/>
<path d="M218.5 102.3C217.8 101.3 217 100.4 216.1 99.4C215.1 98.4 213.6 99.8 214.5 100.8C215.5 102.1 216.9 103.1 218.5 103.3V102.3Z" fill="#4BAE4F"/>
<path d="M217.5 96.7C216.8 95.4 216.1 94.1 215.2 92.9C214.5 91.9 213 93 213.7 94C214.6 95.3 215.8 96.6 217.4 97.3L217.5 96.7Z" fill="#4BAE4F"/>
<path d="M216.7 89.4C216.7 89.4 216.1 88.4 215.3 87.3C214.6 86.3 212.9 87.3 213.7 88.4C214.5 89.6 215.5 90.6 216.6 90.8L216.7 89.4Z" fill="#4BAE4F"/>
<path d="M216.3 84.5L215.6 80.9C215.4 79.9 214 80.2 214.1 81.1C214.4 83 215 84.9 216.5 86.2L216.3 84.5Z" fill="#4BAE4F"/>
<path d="M216.7 74.3C216.5 74 216.1 73.8 215.8 74C215.5 74.1 215.3 74.5 215.4 74.7C215.6 75.7 215.8 76.6 216.1 77.6L216.7 74.3Z" fill="#4BAE4F"/>
<path d="M214.1 154.9C215.4 154.5 216.9 154.8 217.9 155.7C219.7 157.4 217.3 160.3 215.3 158.7C214.5 158.1 213.9 157.2 213.4 156.3L214.1 154.9Z" fill="#4BAE4F"/>
<path d="M217.1 148.8C217.1 148.8 219.5 148.2 221.4 149.9C223.3 151.8 220.7 154.8 218.5 153.1C217.6 152.3 216.8 151.3 216.3 150.2L217.1 148.8Z" fill="#4BAE4F"/>
<path d="M218.8 143.5C220.1 142.6 221.7 142.2 223.2 142.5C225.5 143 224.9 146.5 222.6 146.1C221.2 145.9 219.8 145.3 218.6 144.4L218.8 143.5Z" fill="#4BAE4F"/>
<path d="M220.5 137.3C221.6 136.4 223 136 224.4 136.1C226.8 136.3 226.6 139.9 224.1 139.8C222.7 139.7 221.3 139.2 220.2 138.2L220.5 137.3Z" fill="#4BAE4F"/>
<path d="M221 132.2C221 132.2 222.3 130.3 224.3 129.4C226.6 128.5 228 131.9 225.8 132.9C224.4 133.5 222.8 133.9 221 133.2V132.2Z" fill="#4BAE4F"/>
<path d="M221.1 125.8C221.1 125.8 222.4 123.8 224.4 123C226.7 122.1 228.2 125.5 225.9 126.6C224.5 127.3 222.7 127.7 221 126.7V125.8H221.1Z" fill="#4BAE4F"/>
<path d="M220.7 120.1C221.2 118.8 221.8 117.6 222.7 116.4C223.9 114.9 226.3 116.6 225.2 118.2C224.2 119.7 222.8 121.1 221.1 121.3L220.7 120.1Z" fill="#4BAE4F"/>
<path d="M220.5 114.7C220.9 113 221.5 111.5 222.4 109.9C223.2 108.5 225.4 109.7 224.7 111.2C223.8 112.9 222.6 114.7 220.7 115.9L220.5 114.7Z" fill="#4BAE4F"/>
<path d="M219.1 108C219.6 106.7 220.2 105.5 221 104.4C222 103 224 104.4 223.2 105.8C222.2 107.3 220.9 108.9 219.1 109.7V108Z" fill="#4BAE4F"/>
<path d="M218.1 102.3C218.4 101.1 218.7 99.9 219.1 98.7C219.6 97.4 221.6 98 221.2 99.3C220.7 100.8 219.9 102.4 218.6 103.2L218.1 102.3Z" fill="#4BAE4F"/>
<path d="M217.4 96.7C217.7 95.3 218.2 93.8 218.8 92.5C219.3 91.4 221 92 220.5 93.2C219.9 94.7 219 96.2 217.6 97.2L217.4 96.7Z" fill="#4BAE4F"/>
<path d="M216.3 89.9C216.3 89.9 216.5 88.8 216.9 87.5C217.2 86.3 219.1 86.8 218.8 88C218.5 89.4 217.9 90.7 216.9 91.2L216.3 89.9Z" fill="#4BAE4F"/>
<path d="M216.5 84.3L217.8 80.9C218.1 80 219.5 80.4 219.2 81.4C218.6 83.3 217.7 85.1 216.1 86.1L216.5 84.3Z" fill="#4BAE4F"/>
<path d="M218.1 74.7C218.1 74.7 218.3 74.5 218.6 74.3C219.2 73.8 220 74.6 219.5 75.2C218.5 76.1 217.3 76.8 216.1 77.4L218.1 74.7Z" fill="#4BAE4F"/>
<path d="M218 72.7C218.7 71.2 219.6 69.7 220.5 68.2C220.6 68 220.5 67.7 220.3 67.6C220.1 67.5 219.9 67.5 219.7 67.7C219 68.7 218.3 70.2 217.7 72.3L218 72.7Z" fill="#4BAE4F"/>
<path d="M216.6 90.9H216.9C215.8 80.2 216.3 73.6 218.2 72.3L218.1 72.1C215.9 73.4 215.4 79.9 216.6 90.9Z" fill="#444053"/>
<path d="M220.5 116.2L220.9 116.1C220.7 115.1 220.6 114.1 220.4 113.1C218.7 104.4 217.4 96.4 216.8 90.3L216.5 90.1C217.1 96.2 218.3 104.5 220.1 113.2C220.2 114.2 220.4 115.2 220.5 116.2Z" fill="#444053"/>
<path d="M201.9 170.3C202 170.2 208.1 165.5 213.5 156.6C216.7 151.3 218.9 145.6 220.3 139.7C222 132.2 222 123.5 220.8 115.4L220.5 115.7C223.3 134 218 148.2 213 156.4C207.7 165.3 201.6 169.9 201.6 170L201.9 170.3Z" fill="#444053"/>
<path opacity="0.2" d="M44.9001 170.2C53.3001 170.2 60.2001 168.9 60.2001 167.3C60.2001 165.7 53.3001 164.4 44.9001 164.4C36.5001 164.4 29.6001 165.7 29.6001 167.3C29.6001 168.9 36.4001 170.2 44.9001 170.2Z" fill="#444053"/>
<path d="M44.6 168.4C45.6 168.4 46.4001 167.4 46.4001 166C46.4001 164.6 45.6 163.6 44.6 163.6C43.6 163.6 42.8 164.6 42.8 166C42.8 167.4 43.7 168.4 44.6 168.4Z" fill="#3F3D56"/>
<path d="M44.6 165.6C45.6 165.6 46.4001 164.6 46.4001 163.2C46.4001 161.9 45.6 160.8 44.6 160.8C43.6 160.8 42.8 161.8 42.8 163.2C42.9 164.5 43.7 165.6 44.6 165.6Z" fill="#3F3D56"/>
<path d="M44.6 162.7C45.6 162.7 46.4001 161.7 46.4001 160.3C46.4001 159 45.6 157.9 44.6 157.9C43.6 157.9 42.8 158.9 42.8 160.3C42.9 161.6 43.7 162.7 44.6 162.7Z" fill="#3F3D56"/>
<path d="M44.6 159.9C45.6 159.9 46.4001 158.9 46.4001 157.5C46.4001 156.1 45.7 155.1 44.6 155.1C43.5 155.1 42.8 156.1 42.8 157.5C42.8 158.9 43.7 159.9 44.6 159.9Z" fill="#3F3D56"/>
<path d="M44.6 157.1C45.6 157.1 46.4001 156.1 46.4001 154.7C46.4001 153.3 45.6 152.3 44.6 152.3C43.6 152.3 42.8 153.3 42.8 154.7C42.8 156.1 43.7 157.1 44.6 157.1Z" fill="#3F3D56"/>
<path d="M44.6 154.2C45.6 154.2 46.4001 153.2 46.4001 151.8C46.4001 150.4 45.6 149.4 44.6 149.4C43.6 149.4 42.8 150.4 42.8 151.8C42.8 153.2 43.7 154.2 44.6 154.2Z" fill="#3F3D56"/>
<path d="M44.6 151.3C45.6 151.3 46.4001 150.3 46.4001 148.9C46.4001 147.5 45.6 146.5 44.6 146.5C43.6 146.5 42.8 147.5 42.8 148.9C42.8 150.3 43.7 151.3 44.6 151.3Z" fill="#3F3D56"/>
<path d="M51.4 129.5C51.6 129.2 51.9 128.9 52 128.5L47.3 127.8H52.3C53.3 125.7 53.3 123.2 52.5 121L45.7 124.5L52 119.9C49.6 115.8 44.4 114.5 40.3 116.7C36.2 119.1 34.8 124.3 37.1 128.3C37.3 128.6 37.6 129 37.8 129.3C37.5 129.8 37.1 130.3 36.8 130.8L42.9 134L36.4 131.8C35.5 134.6 36 137.5 37.8 139.8C34.9 143.5 35.5 148.9 39.2 151.8C42.9 154.7 48.3 154 51.2 150.4C53.7 147.3 53.7 142.9 51.2 139.8C53.8 136.9 53.8 132.6 51.4 129.5Z" fill="#4BAE4F"/>
<path opacity="0.55" d="M155.2 53.2H102.1C100.7 53.2 99.5 54.3 99.5 55.8V158.8C99.5 160.2 100.6 161.4 102.1 161.4H155.2C156.6 161.4 157.8 160.3 157.8 158.8V55.8C157.8 54.4 156.6 53.2 155.2 53.2Z" fill="#D9E8FF"/>
<path d="M156.4 44H101C98.2 44 96 46.2 96 49V165.5C96 168.3 98.2 170.5 101 170.5H156.4C159.2 170.5 161.4 168.3 161.4 165.5V49C161.5 46.2 159.2 44 156.4 44ZM157.8 158.8C157.8 160.2 156.7 161.4 155.2 161.4H102C100.6 161.4 99.4 160.3 99.4 158.8V55.8C99.4 54.4 100.5 53.2 102 53.2H155.1C156.5 53.2 157.7 54.3 157.7 55.8V158.8H157.8Z" fill="#3B55CE"/>
<path d="M100.9 170.6H156.3C159.1 170.6 161.3 168.4 161.3 165.6V49C161.3 47.8 160.8 46.6 160.2 45.8L156.3 53.4C157.2 53.8 157.7 54.7 157.7 55.8V158.8C157.7 160.2 156.6 161.4 155.1 161.4H102C101.6 161.4 101.3 161.3 100.9 161.2L96.8999 168.9C97.9999 169.9 99.3999 170.6 100.9 170.6Z" fill="#032575"/>
<path d="M125.7 50.3C124.8 50.3 124 49.6 124 48.6C124 47.6 124.7 46.9 125.7 46.9C126.6 46.9 127.4 47.6 127.4 48.6C127.4 49.5 126.6 50.3 125.7 50.3Z" fill="#000E5B"/>
<path d="M138.9 48.6C138.9 48 138.4 47.6 137.9 47.6H131.2C130.6 47.6 130.2 48.1 130.2 48.6C130.2 49.2 130.7 49.6 131.2 49.6H137.9C138.5 49.6 138.9 49.1 138.9 48.6Z" fill="#000E5B"/>
<path opacity="0.1" d="M36.1 134.8C36.1 136.7 36.7 138.6 37.9 140.1C35 143.8 35.6 149.2 39.3 152.1C43 155 48.4 154.3 51.3 150.7C53.8 147.6 53.8 143.2 51.3 140.1C52.5 138.6 36.1 133.8 36.1 134.8Z" fill="black"/>
<path opacity="0.1" d="M108.6 66.8H140.1C141.2 66.8 142 67.7 142 68.7V85.6C142 86.7 141.1 87.5 140.1 87.5H108.6C107.5 87.5 106.7 86.6 106.7 85.6V68.8C106.7 67.7 107.6 66.8 108.6 66.8Z" fill="black"/>
<path opacity="0.1" d="M184.1 87.2H153.6C152.5 87.2 151.7 86.3 151.7 85.3V69C151.7 67.9 152.6 67.1 153.6 67.1H184.1C185.2 67.1 186 68 186 69V85.3C186.1 86.4 185.2 87.2 184.1 87.2Z" fill="#444053"/>
<path d="M139.6 87.2H109.1C108 87.2 107.2 86.3 107.2 85.3V69C107.2 67.9 108.1 67.1 109.1 67.1H139.6C140.7 67.1 141.5 68 141.5 69V85.3C141.5 86.4 140.6 87.2 139.6 87.2Z" fill="#F67506"/>
<path opacity="0.1" d="M184.1 116.2H153.6C152.5 116.2 151.7 115.3 151.7 114.3V98C151.7 96.9 152.6 96.1 153.6 96.1H184.1C185.2 96.1 186 97 186 98V114.3C186.1 115.4 185.2 116.2 184.1 116.2Z" fill="#444053"/>
<path opacity="0.1" d="M139.6 116.2H109.1C108 116.2 107.2 115.3 107.2 114.3V98C107.2 96.9 108.1 96.1 109.1 96.1H139.6C140.7 96.1 141.5 97 141.5 98V114.3C141.5 115.4 140.6 116.2 139.6 116.2Z" fill="#444053"/>
<path opacity="0.1" d="M184.1 145.3H153.6C152.5 145.3 151.7 144.4 151.7 143.4V127.1C151.7 126 152.6 125.2 153.6 125.2H184.1C185.2 125.2 186 126.1 186 127.1V143.4C186.1 144.4 185.2 145.3 184.1 145.3Z" fill="#444053"/>
<path opacity="0.1" d="M139.6 145.3H109.1C108 145.3 107.2 144.4 107.2 143.4V127.1C107.2 126 108.1 125.2 109.1 125.2H139.6C140.7 125.2 141.5 126.1 141.5 127.1V143.4C141.5 144.4 140.6 145.3 139.6 145.3Z" fill="#444053"/>
<path opacity="0.1" d="M238 106.9C239.9 106.9 241.5 105.4 241.5 103.4C241.5 101.5 240 99.9 238 99.9C236 99.9 234.5 101.4 234.5 103.4C234.5 105.4 236.1 106.9 238 106.9Z" fill="#F67506"/>
<path opacity="0.1" d="M250.6 93.7C253.9 93.7 256.5 91.1 256.5 87.8C256.5 84.5 253.9 81.9 250.6 81.9C247.3 81.9 244.7 84.5 244.7 87.8C244.7 91.1 247.3 93.7 250.6 93.7Z" fill="#F67506"/>
<path opacity="0.1" d="M242.8 122.3C246.1 122.3 248.7 119.7 248.7 116.4C248.7 113.1 246.1 110.5 242.8 110.5C239.5 110.5 236.9 113.1 236.9 116.4C236.9 119.6 239.5 122.3 242.8 122.3Z" fill="#F67506"/>
<path opacity="0.1" d="M8.60005 94.7C13.2 94.7 16.9 91 16.9 86.4C16.9 81.8 13.2 78.1 8.60005 78.1C4.00005 78.1 0.300049 81.8 0.300049 86.4C0.300049 91 4.00005 94.7 8.60005 94.7Z" fill="#F67506"/>
<g opacity="0.1">
<path opacity="0.1" d="M197.8 94.8C198 95.8 198.1 96.9 198.6 97.8C198.5 97.5 198.5 97.1 198.4 96.7C198.2 95.8 198 94.9 197.7 94.1C197.7 94.4 197.8 94.7 197.8 94.8Z" fill="black"/>
<path opacity="0.1" d="M201.9 104.1C201.7 105.4 201.8 106.8 202.2 108.1C202.3 108.4 202.4 108.8 202.5 109.1C202.3 108.1 202.3 107 202.5 106C202.6 105.4 202.8 104.8 202.7 104.2C202.6 103.7 202.4 103.2 202.1 102.8C202 103.4 202 103.8 201.9 104.1Z" fill="black"/>
<path opacity="0.1" d="M204.5 114.4C204.4 114 204.2 113.5 204 113.1C204.1 113.6 204.1 114 203.9 114.4C203.6 115.4 202.5 116.1 202.4 117.2C202.3 117.8 202.6 118.3 202.7 118.8C202.8 119 202.9 119.2 202.9 119.4C202.9 119.3 202.9 119.2 202.9 119.1C203 118.1 204.1 117.3 204.4 116.3C204.7 115.8 204.7 115.1 204.5 114.4Z" fill="black"/>
<path opacity="0.1" d="M198.1 119.9C197.4 119.5 196.8 119 196.3 118.4C195.7 117.7 195.4 116.8 195 116C194.6 115.2 194.1 114.5 193.7 113.7C192 111.2 190.2 108.8 188.3 106.4C188.2 106.3 188.2 106.2 188.1 106.2C188 106.4 188 106.6 188 106.8C188.1 107.4 188.5 107.9 188.9 108.3C190.8 110.6 192.7 113 194.3 115.6C194.8 116.3 195.3 117.1 195.6 117.9C196 118.7 196.3 119.6 196.9 120.3C197.4 120.9 198 121.4 198.7 121.8C200.5 122.9 202.4 123.5 204.5 123.7L203.7 121.8C201.8 121.6 199.8 121 198.1 119.9Z" fill="black"/>
<path opacity="0.1" d="M186.3 99C185.6 98.1 184.7 97.5 184 96.7C183.9 96.6 183.9 96.5 183.8 96.5C183.8 97.3 184.1 98.1 184.6 98.7C185.2 99.6 186.2 100.2 186.9 101C187.2 101.3 187.4 101.7 187.6 102C187.4 100.9 187 99.9 186.3 99Z" fill="black"/>
</g>
<path d="M181.1 150.7C180.6 150.3 180 150 179.4 149.7C179.3 149.7 179.3 149.7 179.2 149.7C177.9 148.8 176.7 147.8 175.6 146.7C175.8 146.5 176.1 146.4 176.2 146.1C174.8 145.5 174.1 143.9 173.3 142.6C171.4 139 168.7 135.8 165.6 133C165.5 132.7 165.1 132.8 164.9 132.6C164.7 132.4 164.7 132.3 164.7 132C164.7 131.8 164.8 131.6 164.9 131.4C165 130.9 164.9 130.4 164.9 129.9C164.8 129.4 164.9 128.9 165.2 128.5C165.3 128.4 165.4 128.3 165.5 128.2C165.7 127.9 165.8 127.6 165.7 127.2C165.7 126.9 165.6 126.5 165.5 126.2C166.6 123.2 167.8 120.1 168.9 117C169.7 114.8 170.5 112.6 170.6 110.3C170.7 108.5 170.2 106.6 169.1 105.1C169.3 105 169.5 105 169.7 104.9C168.4 103.2 168.3 100.8 168.2 98.6C168.2 97.5 168.1 96.4 168.1 95.3C168.4 95.5 168.8 95.6 169.2 95.8L169.5 95.9C170.1 96.1 170.7 96.2 171.3 96.3C171.6 96.3 171.9 96.4 172.1 96.4C171.7 95.4 171.3 94.5 170.9 93.4C170.7 92.9 170.6 92.5 170.6 92C170.6 91.9 170.6 91.9 170.6 91.8C170.6 91.7 170.7 91.5 170.7 91.4C170.7 91.3 170.8 91.3 170.8 91.2C170.9 91 171 90.9 171.1 90.7C171.2 90.6 171.3 90.5 171.4 90.4C171.7 90 172 89.5 172.2 89.1C172.3 88.9 172.3 88.6 172.3 88.4C172.3 88.2 172.3 87.9 172.2 87.6C172.2 87.4 172.1 87.3 172.1 87.1C172.1 87 172 86.9 172 86.8V86.7C172 86.6 171.9 86.5 171.9 86.5V86.4C171.9 86.3 171.8 86.2 171.8 86.2V86C171.3 84.9 170.8 83.8 170.4 82.6C170.3 82.3 170.2 82 170.2 81.6C170.2 81.5 170.2 81.4 170.1 81.4C170.1 81.3 170.1 81.3 170.1 81.2C170.1 81.1 170.1 81 170.1 81V80.8C170.1 80.7 170.1 80.6 170.1 80.6C170.1 80.5 170.1 80.3 170.1 80.2C170.1 80.1 170.1 80.1 170.1 80C170.1 79.9 170.1 79.8 170.1 79.7C170.1 79.6 170.1 79.6 170.1 79.5C170.1 79.4 170.1 79.3 170.1 79.2C170.1 79.1 170.1 79.1 170.1 79C170.1 78.8 170.1 78.7 170.2 78.5C170.2 78.4 170.3 78.2 170.3 78.1C170.4 77.8 170.4 77.4 170.4 77C170.4 76.9 170.4 76.8 170.4 76.8C170.4 76.7 170.4 76.7 170.4 76.6C170.4 76.6 170.4 76.6 170.4 76.5C170.4 76.4 170.4 76.4 170.4 76.4C170.4 76.3 170.4 76.4 170.4 76.3V76.2C170.4 76.1 170.4 76.2 170.4 76.1C170.4 76.1 170.4 76 170.3 76V75.9C170.3 75.8 170.2 75.8 170.2 75.7C170.1 75.5 170 75.4 169.9 75.2C169.2 74.2 167.9 73.5 167.2 72.3C166.8 71.6 166.6 70.8 166.5 70C166.5 69.8 166.4 69.7 166.4 69.4C166.3 69.2 166.3 69.1 166.3 68.8C166.3 68.7 166.2 68.6 166.2 68.5V68.4C166.2 68.3 166.2 68.2 166.1 68.1V68C166.1 67.9 166 67.8 166 67.7V67.6C166 67.5 165.9 67.4 165.9 67.3C165.9 67.2 165.8 67.1 165.8 67C165.8 66.9 165.7 66.8 165.7 66.7C165.7 66.6 165.6 66.5 165.6 66.4C165.6 66.3 165.5 66.2 165.5 66.1C165.2 65.4 164.8 64.7 164.4 64C163.4 62.7 161.7 61.7 160 61.8C159.1 61.8 158.2 62.1 157.4 62.4L155.2 63.2L155.8 62.9C155.2 63 154.5 63 153.9 63.3C153.3 63.6 152.8 64.2 152.8 64.8C152.8 65.1 152.9 65.5 152.9 65.9C152.8 66.5 152.3 66.9 151.9 67.5C151.7 67.8 151.6 68.2 151.7 68.6C151.7 68.7 151.7 68.7 151.7 68.7V68.8C150.8 68.4 149.9 68 148.9 67.5C147.4 66.8 145.9 65.9 144.9 64.5C144.6 64 144.4 63.5 144 63.1C143.7 62.6 143.3 62.1 142.9 61.7L140.1 58.7C139.9 59.1 140.2 59.6 140.4 60C140.6 60.4 140.8 60.9 140.9 61.3C141 61.5 141 61.6 140.9 61.8C140.8 61.9 140.7 62 140.5 62.1C140 62.4 139.8 63.1 139.9 63.7C140.1 64.3 140.6 64.7 141.2 64.8C141.4 64.8 141.6 64.9 141.8 64.9C142.1 65.1 142.3 65.5 142.5 65.8C143 66.3 143.6 66.5 144.3 66.7C145.3 67.9 146.4 69.1 147.5 70.3C149.1 72.1 150.7 74 152.8 75.2C153 75.3 153.2 75.4 153.4 75.5V75.6C153.3 75.9 153.4 76.2 153.5 76.4C153.7 76.7 154.1 76.7 154.4 76.9L155.9 77.2C155.9 77.4 155.9 77.6 155.8 77.8C155.8 77.9 155.7 78 155.7 78.1V78.3V78.4C155.7 78.5 155.7 78.4 155.7 78.5V78.6V78.7C155.7 78.8 155.7 78.8 155.7 78.9C155.8 79.5 156.2 80 156.6 80.5L156.8 80.8C156.5 81.3 156.2 81.8 156.1 82.3C156 82.6 156 83 156 83.3C155.8 83.5 155.7 83.8 155.5 84C155.4 84.3 155.3 84.7 155.4 85.1C155.4 85.3 155.4 85.4 155.4 85.5C155.4 86.1 155.5 86.6 155.7 87.1C155.7 87.2 155.8 87.2 155.8 87.2C155.5 87.9 154.9 88.4 154.5 89C153.6 90.4 153.8 92.3 154.8 93.6C155.1 93.9 155.5 94.3 155.5 94.8C155.5 95 155.5 95.3 155.4 95.4C155.4 95.9 155.6 96.4 155.7 96.9C155.8 97.3 155.8 97.8 155.6 98.2C155.4 98.5 155.3 99 155.3 99.4C155.4 100 155.1 100.7 155.1 101.3C155.1 101.6 155.1 101.9 155.1 102.2C155.1 102.5 155 102.7 154.9 103V103.1C154.3 103.4 153.8 103.6 153.2 103.9C152.9 104 152.7 104.2 152.5 104.5C152.4 104.8 152.4 105.1 152.5 105.4L153 108.8H152.9C152.9 109.4 153 109.9 153 110.5C153 110.9 153.1 111.4 153.3 111.7C153.4 111.8 153.5 112 153.6 112.2C153.8 112.6 153.6 113.1 153.4 113.5C153.2 113.9 153.2 114.5 153.6 114.7C153.8 114.8 154 114.9 154.2 115C153.7 116.9 154.2 118.9 154.6 120.8C154.9 122.3 155.2 123.7 155.6 125.2C155.7 125.8 155.8 126.5 155.8 127.1C155.8 127.2 155.8 127.3 155.8 127.4C155.9 128.3 156 129.1 156.3 130C156.8 131.7 156.3 133.8 156.5 135.7C156.6 136.6 156.8 137.5 157 138.3C158.1 142.7 159.1 147 159.5 151.5C159.9 152 160.5 152.4 161.1 152.6C161 153.2 161.1 153.8 161.1 154.1C161.1 154.4 161 154.6 161 154.9C160.8 155.4 160.3 155.8 159.8 155.9C159.6 156 159.5 156 159.3 156L159.5 155.8C158.5 155.6 157.3 155.8 156.5 156.3C156.2 156.5 156 156.7 155.9 157C155.9 157.3 155.9 157.6 156.1 157.8C156.6 158.5 157.4 159.1 158.2 159.3C159.1 159.5 159.9 159.6 160.8 159.6L162.5 159.7C162.4 159.9 162.4 160.2 162.6 160.3C162.8 160.4 162.9 160.5 163.2 160.5C163.8 160.6 164.5 160.6 165.2 160.5C165.4 160.5 165.5 160.4 165.7 160.3C165.8 160.2 165.8 160 165.7 159.9C165.9 159.9 166 159.8 166.2 159.6C166.3 159.4 166.3 159.2 166.3 159C166.2 158.3 166.2 157.2 165.8 156.5C165.7 156.2 165.4 156.2 165.1 156.2C164.8 154.9 164.7 153.5 164.6 152.1C165 151.9 165.4 151.8 165.8 151.6C164.7 149.8 164.7 147.5 165 145.3C165.1 144.7 165.2 144 165.3 143.3C165.4 141.9 165.2 140.4 164.4 139.3C165.8 140.2 167 141.2 168 142.5C169.6 144.6 170.6 147.1 172.5 148.8C172.8 148.6 173 148.3 173.3 148.1C173.7 148.8 174.1 149.5 174.4 150.2C174.7 150.7 174.9 151.3 175.1 151.9C175.3 152.8 175.3 153.7 175.2 154.6C175.1 155.1 175.1 155.6 175 156C175 156.2 174.9 156.4 174.9 156.6C174.9 156.5 174.9 156.5 174.8 156.4C174.7 156.2 174.3 156.3 174.2 156.4C173.9 156.6 173.6 157 173.4 157.3C173.3 157.5 173.2 157.6 173.3 157.9C173.4 158.2 173.5 158.4 173.8 158.5C174.7 159 175.7 158.6 176.7 158.3C177 158.2 177.2 158.1 177.4 158C177.9 157.7 178.1 157.1 178.5 156.8C178.7 156.7 179 156.5 179.2 156.3C179.6 155.9 179.7 155.3 179.9 154.8C180.4 153.9 181.6 153.7 182 152.9C182.6 152.6 181.9 151.3 181.1 150.7Z" fill="url(#paint0_linear)"/>
<path d="M161.3 154.7C161.3 155 161.2 155.2 161.2 155.5C161 156 160.5 156.4 160 156.5C159.5 156.7 159 156.7 158.4 156.9C158.2 157 157.9 157.1 157.8 157.2C157.3 157.7 157.6 158.5 158.1 158.8C158.6 159.1 159.3 159.1 160 159.1C161.4 159 162.7 158.8 164 158.5C164.5 158.4 165 158.2 165.1 157.7C165.1 157.5 165.1 157.4 165.1 157.2C164.8 155.6 164.6 153.9 164.6 152.2C164.6 152.1 162 152 161.7 152.2C161.2 152.7 161.3 154.2 161.3 154.7Z" fill="#A1616A"/>
<path d="M173.2 148.9C173.7 149.6 174.1 150.4 174.5 151.1C174.8 151.6 175 152.2 175.2 152.8C175.4 153.7 175.4 154.6 175.3 155.5C175.2 156 175.2 156.5 175.1 156.9C175 157.4 174.9 157.9 174.5 158.2C174.8 158.4 175.3 158.4 175.7 158.3C176 158.1 176.4 158 176.7 157.7C178.6 156.1 180.1 153.7 180.3 151.2C180.3 151 180.3 150.8 180.2 150.6C180.1 150.5 180 150.4 179.9 150.3C178.4 149.3 177 148.1 175.8 146.9C175.7 146.8 175.6 146.7 175.5 146.7C175.4 146.7 175.3 146.7 175.2 146.8C174.5 147.1 173.2 147.7 172.8 148.6C172.9 148.5 173.1 148.7 173.2 148.9Z" fill="#A1616A"/>
<path d="M164 157.4C162.3 158.1 160.6 158.4 158.8 158.6C158.6 158.6 158.3 158.7 158.2 158.5C158.1 158.3 158.1 158.2 158.1 158C158.2 157.8 158.3 157.7 158.5 157.6L159.7 156.6C158.7 156.4 157.6 156.6 156.7 157.1C156.4 157.2 156.2 157.5 156.1 157.8C156.1 158.1 156.1 158.4 156.3 158.6C156.8 159.3 157.6 159.9 158.4 160.1C159.3 160.3 160.1 160.4 161 160.4L162.6 160.5C162.5 160.7 162.5 161 162.7 161.1C162.9 161.2 163.1 161.3 163.3 161.3C163.9 161.4 164.6 161.4 165.3 161.3C165.5 161.3 165.6 161.2 165.8 161.1C165.9 161 165.9 160.8 165.8 160.7C166 160.7 166.1 160.6 166.3 160.4C166.4 160.2 166.4 160.1 166.4 159.8C166.3 159.1 166.3 158 165.9 157.3C165.4 156.7 164.5 157.2 164 157.4Z" fill="#3F3D56"/>
<path d="M181.1 150.8C180.6 150.4 180 150.1 179.4 149.8C179.3 149.7 179.2 149.7 179.1 149.8C179.1 149.8 179.1 149.8 179.1 149.9C178 151.4 177.2 153 176.6 154.7C176.3 155.7 176 156.8 175.3 157.6C175.2 157.7 175.1 157.8 175 157.8C174.8 157.7 174.9 157.5 174.8 157.3C174.7 157.1 174.3 157.2 174.2 157.3C173.9 157.5 173.6 157.9 173.4 158.2C173.3 158.4 173.2 158.5 173.3 158.8C173.4 159 173.5 159.3 173.8 159.4C174.7 159.9 175.7 159.5 176.7 159.2C177 159.1 177.2 159 177.4 158.9C177.9 158.6 178.1 158 178.5 157.7C178.7 157.6 179 157.4 179.2 157.2C179.6 156.8 179.7 156.2 179.9 155.7C180.4 154.8 181.6 154.7 182 153.8C182.5 152.7 181.9 151.5 181.1 150.8Z" fill="#3F3D56"/>
<path d="M168.3 105C170.1 106.4 170.9 108.8 170.8 111C170.7 113.2 169.9 115.4 169.1 117.5C168 120.5 166.8 123.6 165.7 126.6C165.8 126.9 165.9 127.3 165.9 127.6C166 127.9 165.9 128.3 165.7 128.6C165.6 128.7 165.5 128.8 165.4 128.9C165.1 129.2 165.1 129.8 165.1 130.3C165.2 130.8 165.3 131.3 165.1 131.8C165 132 164.9 132.2 164.9 132.4C164.8 132.6 164.9 132.8 165.1 133C165.3 133.2 165.8 133.1 165.8 133.4C168.9 136 171.5 139.2 173.5 142.8C174.2 144.1 175 145.6 176.4 146.3C175.1 147.4 173.8 148.5 172.5 149.7C170.6 148 169.6 145.5 168 143.5C167 142.2 165.8 141.1 164.4 140.3C165.1 141.4 165.4 142.9 165.3 144.3C165.2 144.9 165.1 145.6 165 146.3C164.7 148.4 164.7 150.7 165.8 152.5C164.6 153.1 163.2 153.6 161.9 153.4C161 153.3 160.3 152.8 159.8 152.2C159.5 147.7 158.4 143.5 157.3 139.1C157 138.2 156.9 137.4 156.8 136.5C156.6 134.7 157.1 132.6 156.6 130.9C156.3 130.1 156.2 129.2 156.1 128.4C156.1 128.3 156.1 128.2 156.1 128.1C156.1 127.5 156 126.8 155.9 126.2L154.9 121.8C154.5 119.9 154 118 154.5 116.1C154.3 116 154.1 115.9 153.9 115.8C153.6 115.6 153.6 115.1 153.7 114.7C153.9 114.3 154.1 113.8 153.9 113.4C153.8 113.2 153.7 113.1 153.6 112.9C153.3 112.6 153.3 112.1 153.3 111.7L153.2 110C153.9 110.3 154.5 110.8 154.9 111.4C154 110 154.4 108 155.1 106.5C155.4 105.5 156.2 104.9 157.2 104.8C160.8 104.3 165.3 102.7 168.3 105Z" fill="#3F3D56"/>
<path opacity="0.1" d="M166.6 114.4C166.6 114.4 164.8 115.6 164.8 116.5C164.8 117.4 164.3 125.6 164.3 125.6V131.3C164.3 131.3 164.6 134.3 164.3 135.1C164 135.8 164.3 139.3 164.3 139.8C164.3 140.3 164.8 135.1 164.8 135.1V129.7L165.3 117.3L166.6 114.4Z" fill="black"/>
<path d="M156.5 72.6L155.5 72.2C153.3 71.3 151.2 70.5 149.1 69.4C147.6 68.7 146.1 67.8 145.1 66.4C144.8 65.9 144.6 65.4 144.2 65C143.9 64.5 143.5 64 143.1 63.6L140.3 60.6C140.1 61 140.4 61.5 140.6 61.9C140.8 62.3 141 62.8 141.1 63.2C141.2 63.4 141.2 63.5 141.1 63.7C141 63.8 140.9 63.9 140.7 64C140.2 64.3 140 65 140.1 65.5C140.3 66.1 140.8 66.5 141.4 66.6C141.6 66.6 141.8 66.7 142 66.7C142.3 66.9 142.5 67.3 142.7 67.6C143.2 68.1 143.8 68.3 144.5 68.5C145.5 69.7 146.6 70.8 147.7 72C149.3 73.8 150.9 75.6 152.9 76.8C153.6 77.3 154.4 77.5 155.3 77.8C155.5 76.1 155.9 74.3 156.5 72.6Z" fill="#FBBEBE"/>
<path opacity="0.1" d="M156.5 72.6L155.5 72.2C153.3 71.3 151.2 70.5 149.1 69.4C147.6 68.7 146.1 67.8 145.1 66.4C144.8 65.9 144.6 65.4 144.2 65C143.9 64.5 143.5 64 143.1 63.6L140.3 60.6C140.1 61 140.4 61.5 140.6 61.9C140.8 62.3 141 62.8 141.1 63.2C141.2 63.4 141.2 63.5 141.1 63.7C141 63.8 140.9 63.9 140.7 64C140.2 64.3 140 65 140.1 65.5C140.3 66.1 140.8 66.5 141.4 66.6C141.6 66.6 141.8 66.7 142 66.7C142.3 66.9 142.5 67.3 142.7 67.6C143.2 68.1 143.8 68.3 144.5 68.5C145.5 69.7 146.6 70.8 147.7 72C149.3 73.8 150.9 75.6 152.9 76.8C153.6 77.3 154.4 77.5 155.3 77.8C155.5 76.1 155.9 74.3 156.5 72.6Z" fill="black"/>
<path d="M154.6 78.6C154.3 78.5 153.9 78.5 153.7 78.2C153.6 78 153.5 77.7 153.6 77.4C153.8 75.7 154.2 74 154.7 72.3C155.2 73.3 156.2 73.8 157.2 74.3C158.1 74.8 158.9 75.2 159.8 75.5C159.6 75.4 159 78.9 158.7 79.2C158.3 79.5 157.3 79.1 156.9 79L154.6 78.6Z" fill="#FF6584"/>
<path d="M157 77.5C159.7 77.5 161.9 75.3 161.9 72.7C161.9 70 159.7 67.9 157 67.9C154.3 67.9 152.1 70.1 152.1 72.7C152.2 75.4 154.3 77.5 157 77.5Z" fill="#FBBEBE"/>
<path d="M156 76.7C156 76.7 159.2 79.4 157.8 81.2C156.4 83 155.7 84.2 157.5 84.4C159.3 84.6 165.4 81.4 165.4 81.4C165.4 81.4 159.8 76.9 160.7 74.2C161.6 71.4 156 76.7 156 76.7Z" fill="#FBBEBE"/>
<path d="M159 80.9C157.6 81.2 156.5 82.3 156.2 83.7C155.9 85.3 156.6 87.1 155.9 88.6C155.6 89.3 154.9 89.9 154.5 90.5C153.6 91.9 153.8 93.7 154.8 95C155.1 95.3 155.5 95.7 155.5 96.2C155.5 96.4 155.5 96.6 155.4 96.8C155.4 97.3 155.6 97.8 155.7 98.3C155.8 98.7 155.8 99.2 155.6 99.6C155.4 99.9 155.3 100.3 155.3 100.8C155.4 101.4 155.1 102.1 155.1 102.7C155.1 103 155.1 103.3 155.1 103.6C155.1 103.9 155 104.1 154.9 104.4L154.5 105.9C156.7 106.9 159 107.2 161.4 107.2C163.5 107.1 165.6 106.7 167.7 106.3C168.3 106.2 169 106 169.6 105.8C168.3 104.1 168.2 101.8 168.1 99.7C168 96.1 167.8 92.5 167.3 88.9C167.9 87.7 168.2 86.4 168.5 85.1C168.6 84.6 168.7 84 168.7 83.5C168.6 82.4 168.1 81.3 167.6 80.2C167.1 79.2 166.6 78.3 165.5 77.8C165 77.6 164.4 77.6 163.9 78C163.1 78.6 163.3 79.6 163.2 80.5C162.9 81.6 161.9 82.4 160.7 82.8C159.8 83 159 83.1 158.1 83C157.8 83 157.6 82.8 157.7 82.5C157.7 82.4 157.8 82.3 157.8 82.2C158.4 81.7 158.8 81.3 159 80.9Z" fill="#FF6584"/>
<path d="M162.8 99.6C161 101.1 159.2 102.5 157.1 103.6C155.9 104.2 154.6 104.6 153.4 105.3C153.1 105.4 152.9 105.6 152.7 105.9C152.6 106.2 152.6 106.5 152.7 106.8L153.2 110.4C153.4 111.4 154.3 112 155 112.6C154.9 112.3 154.9 112 155.1 111.7C155.2 111.6 155.2 111.5 155.3 111.4C155.6 110.9 155.6 110.3 155.6 109.7C155.5 109.1 155.4 108.6 155.4 108C155.4 107.8 155.5 107.6 155.6 107.5C158.2 106.2 160.9 105.3 163.5 104.2C164.2 103.9 164.8 103.6 165.4 103.1C166 102.6 166.4 102 166.5 101.3C166.5 101.2 166.5 101.1 166.4 101C166.3 100.9 166.3 100.9 166.2 100.9C165.2 100.4 164 100 162.8 99.6Z" fill="#FBBEBE"/>
<path opacity="0.1" d="M157.8 84.4C156.9 84.6 156 85 155.7 85.8C155.6 86.1 155.5 86.5 155.6 86.9C155.6 87.5 155.7 88 155.9 88.5C156.1 88.8 156.2 89.1 156.4 89.3C158.5 92 159.6 95.4 161.7 98.2C161.9 98.4 162.2 98.8 162.1 99.1C162.1 99.2 162 99.3 162 99.3C162 99.5 162 99.6 162.2 99.7C162.3 99.8 162.4 99.9 162.5 100C162.5 100.2 162.4 100.3 162.3 100.3C162.5 101 163.3 101.5 164 101.9C165.2 102.5 166.5 103 167.9 102.9C168.2 101.9 168.5 100.8 168.4 99.7C168.2 98.9 168 98.2 167.7 97.5L166.8 95.6C166.1 93.9 165.3 92.2 164.2 90.7C163.8 90.2 163.5 89.7 163.2 89.2C162.9 88.5 162.2 88 161.7 87.4C161 86.5 160.3 85.6 159.4 84.9C158.9 84.7 158.2 84.4 157.8 84.4Z" fill="black"/>
<path d="M157.8 84C156.9 84.2 156 84.6 155.7 85.4C155.6 85.7 155.5 86.1 155.6 86.5C155.6 87.1 155.7 87.6 155.9 88.1C156.1 88.4 156.2 88.7 156.4 88.9C158.5 91.6 159.6 95 161.7 97.8C161.9 98 162.2 98.4 162.1 98.7C162.1 98.8 162 98.9 162 98.9C162 99.1 162 99.2 162.2 99.3C162.3 99.4 162.4 99.5 162.5 99.6C162.5 99.8 162.4 99.9 162.3 99.9C162.5 100.6 163.3 101.1 164 101.5C165.2 102.1 166.5 102.6 167.9 102.5C168.2 101.5 168.5 100.4 168.4 99.3C168.2 98.5 168 97.8 167.7 97.1L166.8 95.2C166.1 93.5 165.3 91.8 164.2 90.3C163.8 89.8 163.5 89.3 163.2 88.8C162.9 88.1 162.2 87.6 161.7 87C161 86.1 160.3 85.2 159.4 84.5C158.9 84.2 158.2 83.9 157.8 84Z" fill="#F45B7F"/>
<path d="M155.8 64.8C155.2 64.9 154.5 64.9 153.9 65.2C153.3 65.5 152.8 66.1 152.8 66.7C152.8 67 152.9 67.4 152.9 67.8C152.8 68.4 152.3 68.8 151.9 69.4C151.4 70.4 151.8 71.6 152.5 72.4C153.1 73.2 154.1 73.9 154.8 74.7C155.9 76 156.3 77.8 156.1 79.5C156 79.8 156 80.1 156 80.5C156.1 81.1 156.5 81.6 156.9 82C158.8 84.3 160.7 86.7 162.3 89.3C162.8 90 163.3 90.8 163.6 91.6C164 92.4 164.3 93.3 164.9 94C165.4 94.6 166 95.1 166.7 95.5C168.5 96.6 170.4 97.2 172.5 97.4L171.3 94.5C171.1 94 170.9 93.4 171 92.9C171.1 91.9 172.2 91.1 172.5 90.1C172.7 89.5 172.6 88.7 172.4 88.1C172 86.6 171.1 85.3 170.7 83.8C170.3 82.5 170.2 81.2 170.4 79.8C170.5 79.2 170.7 78.6 170.6 78C170.4 76.2 168.3 75.4 167.3 73.8C166.7 72.8 166.6 71.6 166.3 70.5C166 68.8 165.4 67.2 164.4 65.9C163.4 64.6 161.7 63.6 160 63.7C159.1 63.7 158.2 64 157.4 64.3L155.2 65.1" fill="#3F3D56"/>
<defs>
<linearGradient id="paint0_linear" x1="161.308" y1="161.355" x2="161.308" y2="59.316" gradientUnits="userSpaceOnUse">
<stop stop-color="#808080" stop-opacity="0.25"/>
<stop offset="0.54" stop-color="#808080" stop-opacity="0.12"/>
<stop offset="1" stop-color="#808080" stop-opacity="0.1"/>
</linearGradient>
</defs>
</svg>
