<svg width="260" height="210" viewBox="0 0 260 210" fill="none" xmlns="http://www.w3.org/2000/svg">
<g clip-path="url(#clip0)">
<path d="M237.4 80H236.8V138.7H156.4V139.2H237.4V80Z" fill="#3F3D56"/>
<path d="M99.5002 139.2H21.2002V80H21.7002V138.7H99.5002V139.2Z" fill="#3F3D56"/>
<path d="M41.7001 60.7H41.3001V48.4C41.3001 44.5 38.1001 41.3 34.2001 41.3H8.2001C4.3001 41.3 1.1001 44.5 1.1001 48.4V115.9C1.1001 119.8 4.3001 123 8.2001 123H34.2001C38.1001 123 41.3001 119.8 41.3001 115.9V69.4H41.7001V60.7Z" fill="#3F3D56"/>
<path d="M39.8 48.8V116.2C39.8 119.1 37.4 121.5 34.5 121.5H8.3C5.4 121.5 3 119.1 3 116.2V48.8C3 45.9 5.4 43.5 8.3 43.5H11.5C11 44.8 11.6 46.3 12.9 46.8C13.2 46.9 13.5 47 13.8 47H28.7C30.1 47 31.2 45.9 31.2 44.5C31.2 44.2 31.1 43.8 31 43.6H34.4C37.4 43.5 39.8 45.9 39.8 48.8Z" fill="#D0CDE1"/>
<path d="M21.5 110.6C16.3 110.6 12 106.4 12 101.1C12 95.9 16.2 91.6 21.5 91.6C26.8 91.6 31 96 31 101.2C31 106.4 26.8 110.6 21.5 110.6ZM21.5 92C16.5 92 12.4 96.1 12.4 101.1C12.4 106.1 16.5 110.2 21.5 110.2C26.5 110.2 30.6 106.1 30.6 101.1C30.7 96.1 26.6 92.1 21.5 92Z" fill="#3F3D56"/>
<path d="M35.4002 61.3H6.7002V75.6H35.4002V61.3Z" fill="white"/>
<path d="M9.80029 62.3C9.20029 62 8.60029 62 8.30029 62C8.40029 62.2 8.70029 62.8 9.20029 63.2C9.80029 63.5 10.4003 63.5 10.6003 63.5C10.6003 63.2 10.3003 62.7 9.80029 62.3Z" fill="#FF7400"/>
<path d="M13.0002 71.2H9.1002C8.6002 71.2 8.2002 71.6 8.2002 72.1C8.2002 72.6 8.6002 73 9.1002 73H13.0002C13.5002 73 13.9002 72.6 13.9002 72.1C13.8002 71.6 13.4002 71.2 13.0002 71.2Z" fill="#FF7400"/>
<path d="M34.2001 60H8.4001C7.1001 60 6.1001 61 6.1001 62.3V74.9C6.1001 76.2 7.1001 77.2 8.4001 77.2H34.3001C35.6001 77.2 36.6001 76.2 36.6001 74.9V62.3C36.5001 61 35.5001 60 34.2001 60ZM7.7001 61.6C7.8001 61.6 9.0001 61.4 10.0001 62C11.0001 62.6 11.4001 63.8 11.4001 63.8L11.5001 63.9H11.4001C11.2001 63.9 11.0001 64 10.8001 64C10.2001 64 9.6001 63.9 9.1001 63.6C8.1001 63 7.7001 61.8 7.7001 61.8L7.6001 61.7L7.7001 61.6ZM13.3001 73.3H8.7001C8.0001 73.3 7.4001 72.7 7.4001 72C7.4001 71.3 8.0001 70.7 8.7001 70.7H13.3001C14.0001 70.7 14.6001 71.3 14.6001 72C14.6001 72.7 14.0001 73.3 13.3001 73.3ZM34.3001 73.1C34.3001 73.9 33.7001 74.5 32.9001 74.5H29.4001C28.6001 74.5 28.0001 73.9 28.0001 73.1V71C28.0001 70.2 28.6001 69.6 29.4001 69.6H32.9001C33.7001 69.6 34.3001 70.2 34.3001 71V73.1Z" fill="#FF7400"/>
<path d="M30.6002 72.7H29.1002C28.9002 72.7 28.7002 72.9 28.7002 73.1C28.7002 73.3 28.9002 73.5 29.1002 73.5H30.6002C30.8002 73.5 31.0002 73.3 31.0002 73.1C31.0002 72.9 30.8002 72.7 30.6002 72.7ZM30.6002 73.2H29.1002C29.0002 73.2 28.9002 73.1 28.9002 73C28.9002 72.9 29.0002 72.8 29.1002 72.8H30.6002C30.7002 72.8 30.8002 72.9 30.8002 73C30.7002 73.1 30.7002 73.2 30.6002 73.2Z" fill="#FF7400"/>
<path d="M33.2999 72.7H31.7999C31.5999 72.7 31.3999 72.9 31.3999 73.1C31.3999 73.3 31.5999 73.5 31.7999 73.5H33.2999C33.4999 73.5 33.6999 73.3 33.6999 73.1C33.7999 72.8 33.5999 72.7 33.2999 72.7ZM33.2999 73.2H31.7999C31.6999 73.2 31.5999 73.1 31.5999 73C31.5999 72.9 31.6999 72.8 31.7999 72.8H33.2999C33.3999 72.8 33.4999 72.9 33.4999 73C33.4999 73.1 33.3999 73.2 33.2999 73.2Z" fill="#FF7400"/>
<path d="M30.6002 71.6H29.1002C28.9002 71.6 28.7002 71.8 28.7002 72C28.7002 72.2 28.9002 72.4 29.1002 72.4H30.6002C30.8002 72.4 31.0002 72.2 31.0002 72C31.0002 71.8 30.8002 71.6 30.6002 71.6ZM30.6002 72.2H29.1002C29.0002 72.2 28.9002 72.1 28.9002 72C28.9002 71.9 29.0002 71.8 29.1002 71.8H30.6002C30.7002 71.8 30.8002 71.9 30.8002 72C30.7002 72.1 30.7002 72.2 30.6002 72.2Z" fill="#FF7400"/>
<path d="M33.2999 71.6H31.7999C31.5999 71.6 31.3999 71.8 31.3999 72C31.3999 72.2 31.5999 72.4 31.7999 72.4H33.2999C33.4999 72.4 33.6999 72.2 33.6999 72C33.7999 71.8 33.5999 71.6 33.2999 71.6ZM33.2999 72.2H31.7999C31.6999 72.2 31.5999 72.1 31.5999 72C31.5999 71.9 31.6999 71.8 31.7999 71.8H33.2999C33.3999 71.8 33.4999 71.9 33.4999 72C33.4999 72.1 33.3999 72.2 33.2999 72.2Z" fill="#FF7400"/>
<path d="M30.6002 70.6H29.1002C28.9002 70.6 28.7002 70.8 28.7002 71C28.7002 71.2 28.9002 71.4 29.1002 71.4H30.6002C30.8002 71.4 31.0002 71.2 31.0002 71C31.0002 70.8 30.8002 70.6 30.6002 70.6ZM30.6002 71.2H29.1002C29.0002 71.2 28.9002 71.1 28.9002 71C28.9002 70.9 29.0002 70.8 29.1002 70.8H30.6002C30.7002 70.8 30.8002 70.9 30.8002 71C30.7002 71.1 30.7002 71.2 30.6002 71.2Z" fill="#FF7400"/>
<path d="M33.2999 70.6H31.7999C31.5999 70.6 31.3999 70.8 31.3999 71C31.3999 71.2 31.5999 71.4 31.7999 71.4H33.2999C33.4999 71.4 33.6999 71.2 33.6999 71C33.7999 70.8 33.5999 70.6 33.2999 70.6ZM33.2999 71.2H31.7999C31.6999 71.2 31.5999 71.1 31.5999 71C31.5999 70.9 31.6999 70.8 31.7999 70.8H33.2999C33.3999 70.8 33.4999 70.9 33.4999 71C33.4999 71.1 33.3999 71.2 33.2999 71.2Z" fill="#FF7400"/>
<path d="M128.4 168.8C144.748 168.8 158 155.548 158 139.2C158 122.852 144.748 109.6 128.4 109.6C112.053 109.6 98.8003 122.852 98.8003 139.2C98.8003 155.548 112.053 168.8 128.4 168.8Z" fill="#59C602"/>
<path d="M122.5 150.6L111.8 140C111.5 139.7 111.4 139.3 111.4 138.8C111.4 138.3 111.6 137.9 111.8 137.6L114.2 135.3C114.5 135 114.9 134.8 115.3 134.8C115.7 134.8 116.1 135 116.5 135.3L123.7 142.5L139 127.2C139.3 126.9 139.7 126.7 140.2 126.7C140.6 126.7 141 126.9 141.3 127.2L143.7 129.5C144 129.8 144.1 130.2 144.1 130.7C144.1 131.2 143.9 131.6 143.7 131.9L124.9 150.7C124.6 151 124.2 151.2 123.7 151.2C123.2 151.2 122.8 150.9 122.5 150.6Z" fill="white"/>
<path d="M53.4001 139.4L48.2001 144.6C48.1001 144.7 47.9001 144.8 47.8001 144.8C47.6001 144.8 47.5001 144.7 47.4001 144.6L46.8001 144C46.7001 143.9 46.6001 143.7 46.6001 143.6C46.6001 143.4 46.7001 143.3 46.8001 143.2L50.9001 139.1L46.8001 135C46.7001 134.9 46.6001 134.7 46.6001 134.6C46.6001 134.4 46.7001 134.3 46.8001 134.2L47.4001 133.6C47.5001 133.5 47.7001 133.4 47.8001 133.4C48.0001 133.4 48.1001 133.5 48.2001 133.6L53.4001 138.8C53.5001 138.9 53.6001 139.1 53.6001 139.2C53.6001 139.1 53.5001 139.3 53.4001 139.4Z" fill="#B0B0BC"/>
<path d="M211.3 139.6L206.1 144.8C206 144.9 205.8 145 205.7 145C205.5 145 205.4 144.9 205.3 144.8L204.7 144.2C204.6 144.1 204.5 143.9 204.5 143.8C204.5 143.6 204.6 143.5 204.7 143.4L208.8 139.3L204.7 135.1C204.6 135 204.5 134.8 204.5 134.7C204.5 134.5 204.6 134.4 204.7 134.3L205.3 133.7C205.4 133.6 205.6 133.5 205.7 133.5C205.8 133.5 206 133.6 206.1 133.7L211.3 138.9C211.4 139 211.5 139.2 211.5 139.3C211.5 139.3 211.4 139.5 211.3 139.6Z" fill="#B0B0BC"/>
<path d="M249.5 75.9H224V86.6H249.5V75.9Z" fill="#D87012"/>
<path d="M223.3 83.5C223.3 85.2 221.9 86.5 220.3 86.5H171.2C169.5 86.5 168.2 85.1 168.2 83.5C168.2 81.8 169.6 80.5 171.2 80.5H220.2C222 80.5 223.3 81.8 223.3 83.5Z" fill="#D87012"/>
<path d="M219 81.1V52C219 49.3 216.8 47.1 214.1 47.1H174.3C171.6 47.1 169.4 49.3 169.4 52V81.1H219Z" fill="#D87012"/>
<path d="M171.3 53.8C171.3 51.1 173.5 48.9 176.2 48.9H216C216.9 48.9 217.7 49.1 218.4 49.5C217.6 48 216 47 214.2 47H174.4C171.7 47 169.5 49.2 169.5 51.9V81H171.3V53.8Z" fill="#FF7400"/>
<path d="M250.8 72.3C250.8 74.1 249.3 75.6 247.5 75.6H222.2C220.4 75.6 218.9 74.1 218.9 72.3V50.2C218.9 48.4 220.4 46.9 222.2 46.9H242.7C244.5 46.9 246 48.4 246 50.2L250.8 72.3Z" fill="#FFB104"/>
<path d="M222.3 48.2H242.8C244.6 48.2 246.1 49.7 246.1 51.5L250.8 73.1C250.9 72.8 250.9 72.6 250.9 72.3L246 50.2C246 48.4 244.5 46.9 242.7 46.9H222.2C220.4 46.9 218.9 48.4 218.9 50.2V51.5C219 49.7 220.5 48.2 222.3 48.2Z" fill="#FCC860"/>
<path d="M257.8 85.4C257.8 86.3 257.5 86.6 255.7 86.6H245.5C245.4 85.4 245.1 84.3 244.6 83.4C243.2 80.7 240.4 78.9 237.2 78.9C234 78.9 231.1 80.7 229.7 83.4C229.2 84.4 228.9 85.5 228.8 86.6H219.1V71.6H253.7C255.5 71.6 255.8 72.9 255.8 73.8L257.8 85.4Z" fill="#FFB104"/>
<path d="M259.5 83.9C259.5 83.6 259.4 83.2 258.8 83.2H250.2L251.1 87.8H259.5C260.1 87.8 260.2 87.7 260.2 87.4L259.5 83.9Z" fill="#0A1B2C"/>
<path d="M166.6 83.9C166.6 83.6 166.7 83.2 167.3 83.2H175.9L175 87.8H166.6C166 87.8 165.9 87.7 165.9 87.4L166.6 83.9Z" fill="#0A1B2C"/>
<path d="M255.3 77.6C255.5 80 254.9 82 253.8 82.1C252.8 82.2 251.7 80.4 251.4 78C251.2 75.6 251.8 73.6 252.9 73.5C254.1 73.4 255.1 75.2 255.3 77.6Z" fill="#D87012"/>
<path d="M249.5 82.5C249.5 83.2 249.3 83.4 248 83.4H244.6C243.2 80.7 240.4 78.9 237.1 78.9C233.8 78.9 231 80.7 229.6 83.4H221.5V72.5H246.4C247.7 72.5 247.9 73.4 247.9 74.1L249.5 82.5Z" fill="#FCC860"/>
<path d="M247 66.6C247 67.9 246 68.9 244.7 68.9H224.1C222.8 68.9 221.8 67.9 221.8 66.6V51.3C221.8 50 222.8 49 224.1 49H241.4C242.7 49 243.7 50 243.7 51.3L247 66.6Z" fill="white"/>
<path d="M254.6 77.7C254.7 79.1 254.3 80.3 253.7 80.4C253.1 80.5 252.4 79.4 252.3 78C252.2 76.6 252.6 75.4 253.2 75.3C253.8 75.1 254.4 76.2 254.6 77.7Z" fill="white"/>
<path d="M244.878 87.4009C244.923 83.2039 241.557 79.7652 237.36 79.7203C233.164 79.6754 229.725 83.0413 229.68 87.2382C229.635 91.4352 233.001 94.8739 237.198 94.9188C241.395 94.9637 244.834 91.5978 244.878 87.4009Z" fill="#0A1B2C"/>
<path d="M230.6 87.2C230.6 83.2 233.7 79.9 237.7 79.7C237.6 79.7 237.4 79.7 237.3 79.7C233.1 79.7 229.7 83.1 229.7 87.3C229.7 91.5 233.1 94.9 237.3 94.9C237.5 94.9 237.6 94.9 237.7 94.9C233.7 94.5 230.6 91.2 230.6 87.2Z" fill="#183349"/>
<path d="M237.3 91C239.399 91 241.1 89.2987 241.1 87.2C241.1 85.1013 239.399 83.4 237.3 83.4C235.202 83.4 233.5 85.1013 233.5 87.2C233.5 89.2987 235.202 91 237.3 91Z" fill="#AAB5BA"/>
<path d="M238.9 87.2C238.9 88.1 238.2 88.9 237.2 88.9C236.2 88.9 235.5 88.2 235.5 87.2C235.5 86.2 236.2 85.5 237.2 85.5C238.2 85.5 238.9 86.3 238.9 87.2Z" fill="#AAB5BA"/>
<path d="M245.5 74.3C245.5 74.5 245.3 74.7 245.1 74.7H224.7C224.5 74.7 224.3 74.5 224.3 74.3C224.3 74.1 224.5 73.9 224.7 73.9H245.1C245.3 74 245.5 74.1 245.5 74.3Z" fill="#FFB104"/>
<path d="M230.6 76.8C230.6 77.3 230.2 77.7 229.7 77.7H225.5C225 77.7 224.6 77.3 224.6 76.8C224.6 76.3 225 75.9 225.5 75.9H229.7C230.2 76 230.6 76.4 230.6 76.8Z" fill="#D87012"/>
<path d="M215.7 80.8V55.6C215.7 53.3 213.8 51.4 211.5 51.4H177C174.7 51.4 172.8 53.3 172.8 55.6V80.9H215.7V80.8Z" fill="#FF7400"/>
<path d="M199.87 87.3194C199.919 83.1224 196.557 79.68 192.36 79.6305C188.163 79.5809 184.721 82.9431 184.671 87.14C184.622 91.337 187.984 94.7794 192.181 94.8289C196.378 94.8785 199.82 91.5163 199.87 87.3194Z" fill="#0A1B2C"/>
<path d="M185.6 87.2C185.6 83.2 188.7 79.9 192.7 79.7C192.6 79.7 192.4 79.7 192.3 79.7C188.1 79.7 184.7 83.1 184.7 87.3C184.7 91.5 188.1 94.9 192.3 94.9C192.5 94.9 192.6 94.9 192.7 94.9C188.8 94.5 185.6 91.2 185.6 87.2Z" fill="#183349"/>
<path d="M192.3 91C194.399 91 196.1 89.2987 196.1 87.2C196.1 85.1013 194.399 83.4 192.3 83.4C190.202 83.4 188.5 85.1013 188.5 87.2C188.5 89.2987 190.202 91 192.3 91Z" fill="#AAB5BA"/>
<path d="M194 87.2C194 88.1 193.3 88.9 192.3 88.9C191.3 88.9 190.6 88.2 190.6 87.2C190.6 86.2 191.3 85.5 192.3 85.5C193.2 85.5 194 86.3 194 87.2Z" fill="#AAB5BA"/>
<path d="M234.9 59.7C234.6 59.7 234.3 59.6 234.1 59.6C232.4 59.2 230.9 57.9 230.6 57C230.6 56.9 230.6 56.9 230.7 56.9C230.8 56.9 230.8 56.9 230.8 57C231.1 57.9 232.6 59.2 234.2 59.5C235 59.7 236.1 59.7 236.9 58.8C236.9 58.8 237 58.7 237 58.8C237 58.8 237.1 58.9 237 58.9C236.3 59.5 235.6 59.7 234.9 59.7Z" fill="white"/>
<path d="M202.1 73C202 73 201.8 72.9 201.7 72.9C201.5 72.8 201.4 72.6 201.4 72.4L201.1 65.1C201.1 64.8 201.3 64.5 201.5 64.4L207.9 62.4C208.1 62.3 208.3 62.4 208.5 62.5C208.7 62.6 208.8 62.8 208.8 63L209.1 70.3C209.1 70.6 208.9 70.9 208.7 71L202.3 73C202.2 73 202.1 73 202.1 73ZM202.4 65.5L202.7 71.5L207.8 69.9L207.5 63.9L202.4 65.5Z" fill="white"/>
<path d="M202.1 73.1C202 73.1 201.9 73.1 201.8 73L196.6 69.7C196.4 69.6 196.3 69.4 196.3 69.2L196 61.9C196 61.7 196.1 61.4 196.3 61.3C196.5 61.2 196.8 61.2 197 61.3L202.2 64.6C202.4 64.7 202.5 64.9 202.5 65.1L202.8 72.3V72.4C202.7 72.8 202.4 73.1 202.1 73.1ZM197.5 68.8L201.4 71.2L201.1 65.5L197.2 63.1L197.5 68.8Z" fill="white"/>
<path d="M201.7 65.8C201.6 65.8 201.5 65.8 201.4 65.7L196.2 62.4C196 62.3 195.9 62 195.9 61.8C195.9 61.5 196.1 61.3 196.3 61.2L202.7 59.2C202.9 59.1 203.1 59.2 203.3 59.3L208.5 62.6C208.7 62.7 208.8 63 208.8 63.2C208.8 63.5 208.6 63.7 208.4 63.8L202 65.8C201.9 65.8 201.8 65.8 201.7 65.8ZM198 62L201.8 64.4L206.6 62.9L202.8 60.5L198 62Z" fill="white"/>
<path d="M197 62C197 62.4 196.8 62.7 196.5 62.7H182.7C182.4 62.7 182.2 62.4 182.2 62C182.2 61.6 182.4 61.3 182.7 61.3H196.5C196.8 61.4 197 61.7 197 62Z" fill="white"/>
<path d="M197 69.1C197 69.5 196.8 69.8 196.5 69.8H182.7C182.4 69.8 182.2 69.5 182.2 69.1C182.2 68.7 182.4 68.4 182.7 68.4H196.5C196.8 68.4 197 68.7 197 69.1Z" fill="white"/>
<path d="M184.7 65.7C184.7 66.1 184.5 66.4 184.2 66.4H178.2C177.9 66.4 177.7 66.1 177.7 65.7C177.7 65.3 177.9 65 178.2 65H184.2C184.5 65.1 184.7 65.4 184.7 65.7Z" fill="white"/>
<path d="M194.3 65.7C194.3 66.1 194.1 66.4 193.8 66.4H187.8C187.5 66.4 187.3 66.1 187.3 65.7C187.3 65.3 187.5 65 187.8 65H193.8C194.1 65.1 194.3 65.4 194.3 65.7Z" fill="white"/>
</g>
<defs>
<clipPath id="clip0">
<rect width="260" height="210" fill="white"/>
</clipPath>
</defs>
</svg>
