<?xml version="1.0" encoding="utf-8"?>
<!-- Generator: Adobe Illustrator 24.1.1, SVG Export Plug-In . SVG Version: 6.00 Build 0)  -->
<svg version="1.1" id="Layer_1" xmlns="http://www.w3.org/2000/svg" xmlns:xlink="http://www.w3.org/1999/xlink" x="0px" y="0px"
	 viewBox="0 0 260 210" style="enable-background:new 0 0 260 210;" xml:space="preserve">
<style type="text/css">
	.st0{fill:#ED985F;}
	.st1{fill:#F5E9E1;}
	.st2{fill:#233824;}
	.st3{fill:#1B1464;}
	.st4{fill:#FC7575;}
	.st5{fill:#BDBDBD;}
	.st6{fill:#FBB03B;}
	.st7{fill:#FFE696;}
	.st8{fill:#72797A;}
	.st9{fill:#653870;}
	.st10{fill:#552E5D;}
	.st11{fill:#9C5E2A;}
	.st12{fill:#333333;}
	.st13{fill:#535683;}
	.st14{fill:#B07959;}
	.st15{fill:#4F5B0B;}
	.st16{fill:#F98A8A;}
	.st17{fill:#EA7373;}
	.st18{fill:#D86666;}
	.st19{fill:#012540;}
	.st20{fill:#777CAA;}
	.st21{fill:#9DBA25;}
	.st22{fill:#64132C;}
	.st23{fill:#F57408;}
	.st24{fill:#F58A31;}
	.st25{fill:#C27535;}
	.st26{fill:#3F2424;}
	.st27{fill:#2C3A64;}
	.st28{fill:#2B478B;}
	.st29{fill:#233862;}
	.st30{fill:#FFB27D;}
	.st31{fill:#F99746;}
	.st32{fill:#ED7D2B;}
	.st33{display:none;}
	.st34{display:inline;fill:#233862;}
	.st35{display:inline;fill:#2B478B;}
	.st36{display:inline;fill:#CCDFED;}
</style>
<path class="st0" d="M107.7,91c-1.1,1-4.2-2.5-4.6-2.9c0,0,0,0,0,0l0.9-2.6c0,0,4-0.1,4.6,0.5C109.3,86.6,109,89.9,107.7,91z"/>
<path class="st0" d="M104,85.5l-0.4,2.7c0,0-0.2,0-0.5,0c-0.9,0-3.3-0.2-6-0.5c-4-0.4-8.7-1.1-10.6-2.3c-2.9-1.8-7.6-7.1-10.7-12.5
	c-0.1-0.1-0.1-0.3-0.2-0.4c-1.6-2.8-2.7-5.7-2.8-8c0-1.4,0.1-2.6,0.4-3.6c0.4-1.4,1-2.4,1.6-3.2c0.1-0.1,0.2-0.3,0.3-0.4
	c1-1.3,2.1-1.8,2.1-1.8c0.5-0.2,1.1,0,1.7,0.7l0,0c0.5,0.5,1,1.3,1.5,2.3l0,0c0.1,0.2,0.2,0.4,0.4,0.7c0,0,0,0.1,0.1,0.1
	c0.2,0.5,0.5,1,0.7,1.6c2.7,5.9,5.6,14.8,8,17.5c1,1.1,5.8,3.4,9.5,5C101.8,84.6,104,85.5,104,85.5z"/>
<ellipse class="st1" cx="129.5" cy="186.8" rx="116.5" ry="8.1"/>
<path class="st2" d="M181.6,166.6l-6.8-0.3c0,0-0.9,11-3.1,12.3c-2.3,1.2-4.4,2.7-6.7,2.6c-2.3-0.1-0.9,3.4-0.9,3.4l12.8-0.6
	l0.9-1.4l0.8,1.4l2.5,0l0.5-3.6L181.6,166.6z"/>
<path class="st3" d="M156.4,96.5c0,0-6.3-4.5-7.6-4.1c-1.2,0.5,3.2,3.5,2.7,4.1c-0.5,0.5-10.9-3.1-11.8-2c-1,1,9.2,2.7,8.3,3.6
	c-0.9,0.9-10.1-1.9-10.1,0c0,1.9,10.6,2,9.7,3c-0.9,1-11,0.9-9.7,2.3c1.3,1.4,11.5-0.7,9.9,0.9c-1.6,1.7-5.4,2.7-4.2,4
	c1.2,1.3,14.5-4.4,14.5-4.4L156.4,96.5z"/>
<path class="st4" d="M138,98.1c0,0.7,1.5,1.2,3.3,1.5c0.2-0.7,0.4-1.4,0.7-2C139.9,97.4,138,97.3,138,98.1z"/>
<path class="st4" d="M138,103.4c0.3,0.4,1.3,0.5,2.5,0.5c0-0.5,0.1-1,0.2-1.6C138.8,102.5,137.5,102.9,138,103.4z"/>
<path class="st4" d="M146.3,105.6c-1.7,1-3.4,1.8-2.5,2.7c0.4,0.5,2.3,0,4.5-0.6C147.7,106.7,147.2,105.9,146.3,105.6z"/>
<path class="st4" d="M148.8,92.5c-0.7,0.3,0.5,1.4,1.6,2.5c0.7-0.4,1.2-0.8,1.8-1.1C150.7,93,149.3,92.3,148.8,92.5z"/>
<path class="st4" d="M139.7,94.5c-0.4,0.4,1.1,0.9,2.9,1.5c0.2-0.5,0.4-0.9,0.6-1.3C141.5,94.3,140,94.2,139.7,94.5z"/>
<path class="st4" d="M154.1,99.5c0,0.5-0.5,1-1,1s-1-0.5-1-1s0.5-1,1-1C153.7,98.5,154.1,98.9,154.1,99.5z"/>
<rect x="87.7" y="75" class="st5" width="24.4" height="24.4"/>
<rect x="98.5" y="49.8" class="st6" width="23.3" height="25.1"/>
<rect x="91.9" y="49.8" class="st7" width="6.6" height="25.1"/>
<rect x="112.1" y="75" class="st8" width="6.9" height="24.4"/>
<path class="st9" d="M159.9,151.8c0,0,23.4-8.3,42.6-4.5l-1-59.4l-34.7-3.2L159.9,151.8z"/>
<path class="st10" d="M184.1,55.1c0,0,9.8-6.1,21.8-2.8c12,3.3-14.9,31.3-14.9,31.3l-19.4-6.9l3.8-14.7L184.1,55.1z"/>
<path class="st11" d="M191.3,52.1c0,0-17.8,17.9-24.2,36.7l-11.9,4.9l0.3,13.3c0,0,17.9-0.6,18.5-0.6
	C174.7,106.5,191.3,52.1,191.3,52.1z"/>
<path class="st12" d="M166.8,108c0,0,6.2,40.7,6.2,49.9c0,9.2-0.9,22.1-0.9,22.1l8.6,1.1c0,0,7.8-43.3,6.8-56.8
	c-1-13.5,1.2-19.6,1.2-19.6L166.8,108z"/>
<path class="st2" d="M201.6,171.7l-9.9-0.5c0,0,2.2,11.1-0.1,12.4c-2.3,1.2-4.4,2.7-6.7,2.6c-2.3-0.1-0.9,3.4-0.9,3.4l12.8-0.6
	l0.9-1.4l0.8,1.4l2.5,0l0.5-3.6L201.6,171.7z"/>
<path class="st13" d="M177.1,103v23.7c0,0,14.8,45.7,14.8,55.3h10.2c0,0,2.6-66.9,2.6-72.8C204.7,103.3,177.1,103,177.1,103z"/>
<path class="st14" d="M205.9,52.3c0,0-11-1.5-20.2,2.8s-18.1,11.9-22.6,55.1l46.4,4.8C209.5,115,220.1,65.2,205.9,52.3z"/>
<g>
	<path class="st15" d="M194.5,41.2c0,0,9.1,1.4,10.3,1.4c0,0-7-6.5-17.4-9.6c-3.6-1.1-5-1.4-5.2-0.9c-0.5,0.8,3.2,3.3,3.2,3.3
		L194.5,41.2z"/>
	<path class="st16" d="M196.8,36.7c0.5-2.8-2.3-4.9-5.1-5.3c-2.8-0.3-5.5-0.7-6.7,0.9c-2.9,3.7-0.5,12-0.5,12s1.4,3.9,5.1,4.5
		C192.1,49.1,196,42,196.8,36.7z"/>
	<path class="st17" d="M198.3,45.1c0,0-1.3,14.5-2,17.2c-0.8,2.7-8.2,0.9-9.3-1.4c-1.2-2.3,1.7-11.1,1.7-11.1L198.3,45.1z"/>
	<path class="st18" d="M187.2,55.1c0.6-2.7,1.4-5.4,1.4-5.4l9.6-4.6c0,0-0.3,3.7-0.7,7.7c-0.2-0.1-0.3-0.2-0.4-0.4
		c-0.8-1.3-1.4-5.2-1.4-5.2s-1.1,3.8-1.4,5.9c-0.2,1.4-2.8,1.9-5.3,2c-0.3-0.6-0.5-1.3-0.6-1.9c0,0.6,0,1.3,0.1,1.9
		C188.1,55.1,187.6,55.1,187.2,55.1z"/>
	<path class="st19" d="M184.6,49.7c-0.3,0.5-0.9,1.1-1.4,1.5c-0.7-1.2-1-2.6-0.8-3.8c0.3-2.1,1.8-3,1.9-3.7c0,0,0.2,1.8,2.5,2.6
		c2.3,0.7,4.6-0.8,5.7-1.6c1.1-0.8,2.4-1.5,2.6-3c0.2-1.5,1.3-7.4,1.3-7.4s0.4-1,2.8,0.8c2.4,1.7,1.9,2.7,2.1,4.7
		c0.1,2.1-0.7,3.5,0.9,4.2c1.5,0.8,3,3.5,1.3,5.9c-1.7,2.4-5.2,2.2-6,1c-0.9-1.2-1.5-4.8-1.5-4.8s-1.1,3.4-1.4,5.4
		c-0.2,1.3-2.8,1.7-5.2,1.8c-0.3-0.5-0.5-1.2-0.6-1.7c0,0.6,0,1.2,0.2,1.7c-1.3,0-2.4-0.1-3.2-0.2c-0.7-0.1-1.4-0.5-1.8-1
		C184.2,51.3,184.5,50.5,184.6,49.7z"/>
	<path class="st20" d="M199.5,34.9c2.3,1.4,2.1,2.7,2.2,4.5c0.2,2.7-0.6,3.5,0.9,4.2c3.3,2,2.6,7.5-1.9,8.2c-1.1,0.1-2.4,0-3.2-1
		c0.9,0.8,2.1,0.8,3.1,0.5c3.7-0.8,4.3-5.4,1.5-7c-2-0.9-1.1-2.6-1.2-5c0-1.7,0.4-2.6-1.7-4.2c-0.7-0.6-2.2-1.7-2.8-1
		C196.9,33.4,198.6,34.4,199.5,34.9z"/>
	<path class="st16" d="M194.2,39.7c0,0,0.9-0.9,2.3-0.4c1.3,0.5-0.3,3.9-1.5,3.7C193.8,42.8,194.2,39.7,194.2,39.7z"/>
	<path class="st18" d="M195.3,40.1c0,0,0.9-0.6,1,0.1c0.1,0.7-0.5,1.9-1.2,1.9C194.5,42,195.3,40.1,195.3,40.1z"/>
	<path class="st21" d="M187.4,32.9c-2.4-0.7-4-1.1-4.8-1.1c1.2-0.1,3.7-1.1,4.8-2.2c0.6-0.6,1.7-1.7,2.7-2.7c1.8-1.7,4.6-1.8,6.4,0
		l0,0c0.8,0.8,2.3,1.1,3.8,1.3c1.8,0.2,2.9,2.2,2,3.8c-0.7,1.3-1.2,2.7-1.2,3.7c0,2.5,3.7,6.8,3.7,6.8S197.8,36.1,187.4,32.9z"/>
</g>
<polygon class="st22" points="190.9,60.4 184.5,142.4 196.9,143.7 192.5,60.4 "/>
<polygon class="st22" points="179.8,58.5 166.8,120.8 181.2,123.3 184.5,60.4 "/>
<path class="st23" d="M205.9,52.3c0,0-13.3-3.7-16.4,9.1c-3.1,12.8,6.4,91.1,6.4,91.1l18.6-1.7c0,0,5.1-82.8,0-90.9
	C209.3,51.7,205.9,52.3,205.9,52.3z"/>
<path class="st24" d="M212.2,115.9c0,0,1.8,25.2-0.9,27.9c-2.7,2.8-12.2,0-12.2,0v-28.9L212.2,115.9z"/>
<path class="st23" d="M179.4,60.5c-2.2,2.9-4.6,7-6.1,12.1c-3.5,11.5-10.3,79.2-10.3,79.2h-3.2c0,0,3.6-68.7,9-81
	c3.2-7.2,5.4-8.8,9.9-12.2C179,59.2,179.2,59.9,179.4,60.5z"/>
<path class="st3" d="M201.8,97.3c0,0-6.3-4.5-7.6-4.1c-1.2,0.5,3.2,3.5,2.7,4.1c-0.5,0.5-10.9-3.1-11.8-2c-1,1,9.2,2.7,8.3,3.6
	c-0.9,0.9-10.1-1.9-10.1,0s10.6,2,9.7,3c-0.9,1-11,0.9-9.7,2.3c1.3,1.4,11.5-0.7,9.9,0.9c-1.6,1.7-5.4,2.7-4.2,4
	c1.2,1.3,14.5-4.4,14.5-4.4L201.8,97.3z"/>
<path class="st4" d="M193.1,105.4c-1.7,1.5-5,2.5-3.9,3.7c0.6,0.6,3.9-0.4,7.2-1.5C195.4,106.7,194.3,106,193.1,105.4z"/>
<path class="st4" d="M185.2,95.3c-0.7,0.7,3.9,1.7,6.5,2.6c0.3-0.4,0.5-0.9,0.5-1.4C189.2,95.6,185.7,94.7,185.2,95.3z"/>
<path class="st4" d="M188.9,102.7c-2.9,0.3-6.2,0.6-5.5,1.4c0.6,0.6,3.2,0.5,5.6,0.4C189.1,103.9,189,103.3,188.9,102.7z"/>
<path class="st25" d="M210.4,54.7c0,0,25.8,25,21.4,40.8c-4.4,15.8-30.4,11.6-30.4,11.6l-1-11.9c0,0,15.1-3.3,15.1-6.4
	C215.5,85.6,204.4,61,210.4,54.7z"/>
<rect x="207.1" y="100.5" class="st26" width="5.7" height="5.7"/>
<rect x="219.3" y="82.8" transform="matrix(0.6744 -0.7383 0.7383 0.6744 8.4704 193.5204)" class="st26" width="8.7" height="8.7"/>
<path class="st22" d="M208.9,54.3c-1.4,6.6-14.1,13.2-22.3,13.2c-3.8,0-6-3.4-7.3-7c-0.2-0.6-0.4-1.3-0.6-1.9
	c-0.9-3.4,1.7-5.8,2.3-7.3c1.6-3.9-0.1,1.6,9.1-0.9C199.4,47.9,210.4,47.7,208.9,54.3z"/>
<path class="st26" d="M196.4,75c0,1.4-1.1,2.5-2.5,2.5s-2.5-1.1-2.5-2.5c0-1.4,1.1-2.5,2.5-2.5S196.4,73.6,196.4,75z"/>
<circle class="st26" cx="194.7" cy="87.8" r="2.5"/>
<g>
	<path class="st27" d="M70.4,24.5c0-0.4-0.3-4.6-6.8-4.9c0,0,3.2,0.4,3.7,1.8c0,0-2.2-1.7-4-1.2c-1.8,0.5-2.8,3.7-2.8,4.7
		c0,1,1,4.3,2.1,4.6c0.4,0.1,0.9,0.1,1.4,0c-0.3,0.5-0.6,1-0.9,1.6c-2.6,5.3,0.1,10.5,2.3,10c1.4-0.4,1.8,2,1.8,2L80.9,32
		C80.9,31.9,75.9,21.5,70.4,24.5z"/>
	<path class="st28" d="M75.2,181.3l-2.9,1.1c0,0-12.6-17.5-14.2-32.9c-0.3-2.7-0.2-5.4,0.4-7.9c0,0-0.1-0.7-0.4-1.9
		c-0.1-0.6-0.2-1.3-0.4-2.1c-0.4-2.3-1-5.5-1.6-9.2c-1.5-8.4-3.4-19.2-4.9-27.1l0.8-0.3l8.5-2.7l1.8-5.5l6.3-1.7
		c0,0,1.4,2.7,2.7,15.8c0.2,1.7,0.5,3.6,0.6,5.6c0.5,6.2,0.5,14-0.6,22.8c-0.3,2.3-0.7,4.6-1.1,7c-0.3,1.8-0.4,4.1-0.2,6.9
		C70.6,161.7,75.2,181.3,75.2,181.3z"/>
	<path class="st29" d="M71.9,112.4l-13.7,27.2c-0.1-0.6-0.2-1.3-0.4-2.1c-0.4-2.3-1-5.5-1.6-9.2c-1.5-8.4-3.4-19.2-4.9-27.1L52,101
		l8.5-2.7l1.8-5.5l6.3-1.7c0,0,1.4,2.7,2.7,15.8C71.5,108.5,71.7,110.3,71.9,112.4z"/>
	<path class="st28" d="M65.9,94.5l-0.3-2.7C60.2,93.2,46,87.8,46,87.8s-5.1,4.5-4.5,15.4c0.3,5.3,0.9,27.8,1.6,34.4
		c0.2,2.4,0.4,4.1,0.5,4.8l0,0c0,0.2,0,0.4-0.1,0.6c-0.9,1.6-1.7,3.2-2.3,4.9c-6.2,16.5,0.9,36.7,0.9,36.7l1.8-0.8
		c0,0,4.1-22.5,7.3-32.5c0.5-1.7,1.1-3,1.6-3.8c1.4-2.3,2.7-6.1,4-10.6c2.3-8.5,4.1-19.5,5.3-28.1C62.4,108.9,65.9,94.5,65.9,94.5z"
		/>
	<path class="st30" d="M76,61.5c-1.7,0.8-3.7,1.3-6.1,1.4c-9.2,0.5-11.2-7.5-11.6-12.8c1.3-0.5,2.5-0.5,3.1-0.4
		c0.6,0,1.3,0.1,1.9,0.2c1.1-0.6,3.1-3.4,4.3-8.2L68,42l6.6,3.1c0,0-0.7,2.2-1.2,4.2c-0.4,1.6-0.7,3.2-0.5,3.6
		c0.5,0.2,0.8,0.4,0.8,0.4l0,0C73.8,53.3,75.3,57,76,61.5z"/>
	<path class="st31" d="M78.3,67.5c-0.1,0.2-0.1,0.4-0.2,0.5c-2.3,5-6.6,25.6-6.6,25.6c0.6,3.7-27.9-0.7-27.9-4.1
		c-1-3.6,3.6-9.3,6.1-12.2c0.3-0.4,0.6-0.8,0.9-1.2c0.6-1,1-2.2,1.2-3.4c0.5-4.8,0.3-9.3,0.4-12l0,0c0.5-0.4,1-0.7,1.4-1
		c0.7-0.5,1.3-1,1.8-1.4c0.5-0.5,0.8-1,0.9-1.7c0-0.5,0-0.9,0-1.4c0-0.2,0-0.5-0.1-0.7c-0.4-2.3-1.3-4.4-1.3-4.4
		c2.4-1,6.8-0.4,6.8-0.4s0,0.2,0,0.6c0,1.6,0,5.7,0.5,6.4c0.6,0.9,12.3,5.2,12.9,3.9c0.6-1.3-1-7.3-1.1-7.5l0,0
		c3.9,1.5,5.3,2.8,5.3,2.8C76.7,57.5,80.1,62.7,78.3,67.5z"/>
	<path class="st0" d="M74.6,45c0,0-0.7,2.2-1.2,4.2c-3.8-1.1-5-5.1-5.4-7.3L74.6,45z"/>
	<path class="st30" d="M75.4,47.3c0,0-9.2-2.1-7.8-7.8c1.4-5.7,1.2-9.8,7.1-8.7c6,1.1,6.5,3.6,6.5,5.6
		C81.2,38.4,77.8,47.7,75.4,47.3z"/>
	<path class="st27" d="M81.8,33.1c-1-2.1-2.2-2-2.9-1.6c-4.3-4-8.6-0.7-8.6-0.7c-1.6,4-5.2,5.5-5.2,5.5s1.4,1.4,5.5,1.4
		c1.3,0,2.5-0.6,3.7-1.4c-2.2,2.2-4.8,3.6-4.8,3.6c5.1-1,8.6-6.9,8.9-7.6c0.5,0.6,1.3,2,1.4,3.2c0.1,1.6-0.5,4.6,0.5,4.7
		C80.3,40.3,83.3,36.2,81.8,33.1z"/>
	<path class="st31" d="M79,56c0,0,2.2,3.9,2.6,4.9c0,0-2.9-0.1-4.1,2.1C77.6,63,77.3,56.5,79,56z"/>
	<path class="st32" d="M63.8,86.7c-5.6,0-10.4-5.9-13.3-10.5c0.6-1,1-2.2,1.2-3.4c0.5-4.8,0.3-9.3,0.4-12l0,0c0.5-0.4,1-0.7,1.4-1
		c0.7-0.5,1.3-1,1.8-1.4C59.8,66,71.4,86.8,63.8,86.7z"/>
	<path class="st29" d="M52.9,186.1H38.2c0,0-0.4-2.2,0.4-3.9c0.7-1.6,1.9-2.3,1.6-4.3c0.9,0.9,2.4,2,4.6,1.8
		c0.3,0.4,1.7,2.7,2.5,3.3C48.3,183.6,52.6,183.4,52.9,186.1z"/>
	<path class="st29" d="M84.3,186.1H69.6c0,0-0.5-2.3,0.4-3.9c0.9-1.4,0.5-2.2-0.1-3.4c0.7,0.3,1.5,0.5,2.5,0.5
		c0.7,0,1.5-0.4,2.2-0.8c0.6,0.7,3.3,3.8,4.1,4.4C79.7,183.6,84,183.4,84.3,186.1z"/>
	<g class="st33">
		<polygon class="st34" points="96.9,78.2 82.7,96.7 83.9,97.5 98.3,79 		"/>
		<polygon class="st35" points="98.3,79 112.7,79 97.6,97.5 83.9,97.5 		"/>
		<polygon class="st36" points="96.9,78.2 111.3,78.2 112.1,79 98.3,79 		"/>
		<polygon class="st35" points="97.3,78.4 111.5,78.4 111.8,78.2 96.9,78.2 		"/>
	</g>
	<path class="st30" d="M95.3,90.2c0-0.7-1-0.7-1.8-0.7c-1.2,0-3.1-0.1-4.2-0.5c0,0,3.5,0,2.8-1.2c-0.1-0.2-1.9,0-3.8,0
		c-0.8,0-2.8,1.1-2.7,1.2c-1.4-0.2-2.7-0.5-3.1-0.5l0,0c-0.9-0.5-2.1-1.2-3.4-1.8c-3-1.7-6.4-3.7-8.7-5.4c-1.4-0.9-2.3-1.8-2.7-2.4
		c-0.5-0.9-1.2-2.4-1.8-4.3c-0.4-0.9-0.7-2-1.1-3.2c-0.7-1.8-1.3-3.8-2-5.9c-1.2-3.7-2.6-7.3-3.8-10.1c-0.8-1.8-1.6-3.2-2.3-4.1
		c-0.6-0.7-1.2-1.1-1.7-1c-0.1,0-0.1,0-0.2,0c0,0-3.2,0.9-3.2,7.3c0,0.4,0,0.7,0,1.1c0,1.1,0.3,2.5,0.6,4c0.5,2.5,1.4,5.4,2.5,8.3
		c0.3,0.8,0.6,1.6,0.9,2.4c2.4,5.9,5.4,11.4,8,13.3c0.1,0.1,0.2,0.1,0.3,0.2c1.1,0.7,2.7,1.4,4.5,2c2.6,0.9,5.7,1.7,8.4,2.3l0,0
		c1.6,0.4,3.1,0.7,4.3,0.9c0,0,0.2,0,0.5,0.1c0,0,0.1,0,0.2,0c1.2,0.3,3.6,0.9,5.8,1.8c3.2,1.3,5.5-0.3,6.5-1.4
		C94.8,91.8,95.3,90.9,95.3,90.2z"/>
	<path class="st31" d="M58.9,55.3c-4.2-1.2-7.5,2.1-7.5,2.1c0-6.4,3.2-7.2,3.2-7.2C55.9,49.6,57.4,51.8,58.9,55.3z"/>
</g>
</svg>
