<svg width="242" height="133" viewBox="0 0 242 133" fill="none" xmlns="http://www.w3.org/2000/svg">
<g clip-path="url(#clip0)">
<path d="M44.6818 38.2792L45.6227 54.4296L51.9814 55.2796L51.2685 31.479L44.6818 38.2792Z" fill="#FFB8B8"/>
<path d="M124.521 132.32C120.7 132.887 116.823 133.057 112.973 132.887C103.649 132.405 94.4959 129.713 86.683 124.67C83.2043 122.432 79.8967 119.655 78.1003 115.971C75.648 110.928 76.5035 104.581 79.9822 100.189C81.2653 98.6026 82.8051 97.2709 84.573 96.2792C84.8296 96.1375 85.1148 95.9958 85.3714 95.8542C88.3083 94.3808 91.6445 93.7858 94.9236 94.1258C100.512 94.7208 105.645 98.1209 108.639 102.853C111.291 107.074 112.203 112.061 112.774 117.048C112.888 117.983 112.973 118.946 113.059 119.881C112.574 122.602 111.833 125.265 110.835 127.843C110.778 127.957 110.749 128.098 110.721 128.24C111.291 129.458 111.833 130.705 112.346 131.952C112.831 132.207 113.372 132.348 113.914 132.348L124.521 132.32Z" fill="#F2F2F2"/>
<path d="M112.089 132.575C111.804 132.717 111.462 132.575 111.319 132.292C111.262 132.178 111.234 132.065 111.177 131.98C110.778 130.988 110.35 129.997 109.894 129.033C104.134 116.481 95.5226 105.403 84.7442 96.7042C84.6302 96.6192 84.5446 96.4775 84.5732 96.3075C84.6302 95.9958 84.9438 95.7975 85.2575 95.8541C85.3145 95.8541 85.343 95.8825 85.3715 95.8825C85.4286 95.9108 85.4571 95.9391 85.4856 95.9675C90.1049 99.7076 94.325 103.873 98.1174 108.434C101.91 112.996 105.246 117.898 108.069 123.083C108.839 124.5 109.58 125.945 110.264 127.39C110.407 127.673 110.55 127.957 110.664 128.268C111.234 129.487 111.776 130.733 112.289 131.98C112.289 132.008 112.317 132.037 112.317 132.037C112.432 132.235 112.346 132.49 112.118 132.603C112.146 132.547 112.118 132.575 112.089 132.575Z" fill="white"/>
<path d="M74.2795 95.2024C80.4212 95.2024 85.4 90.255 85.4 84.1521C85.4 78.0492 80.4212 73.1018 74.2795 73.1018C68.1378 73.1018 63.1589 78.0492 63.1589 84.1521C63.1589 90.255 68.1378 95.2024 74.2795 95.2024Z" fill="#F67506"/>
<path d="M73.1674 88.3739C72.9108 88.3739 72.6827 88.2889 72.4831 88.1472L69.8598 86.1638C69.3465 85.7672 69.261 85.0588 69.6316 84.5488C70.0308 84.0388 70.7437 83.9538 71.257 84.3221L72.9393 85.6255L76.9313 80.4404C77.3305 79.9304 78.0433 79.8454 78.5566 80.2137L78.5281 80.242L78.5566 80.2137C79.0698 80.6104 79.1554 81.3187 78.7847 81.8287L74.0799 87.9205C73.8803 88.2039 73.5381 88.3739 73.1674 88.3739Z" fill="white"/>
<path d="M225.432 133H14.5344C14.36 133 14.2354 132.789 14.2354 132.492C14.2354 132.196 14.36 131.985 14.5344 131.985H225.432C225.607 131.985 225.731 132.196 225.731 132.492C225.731 132.789 225.582 133 225.432 133Z" fill="#3F3D56"/>
<path d="M47.191 38.506C51.7422 38.506 55.4316 34.8399 55.4316 30.3174C55.4316 25.795 51.7422 22.1289 47.191 22.1289C42.6399 22.1289 38.9504 25.795 38.9504 30.3174C38.9504 34.8399 42.6399 38.506 47.191 38.506Z" fill="#2F2E41"/>
<path d="M40.7752 25.9125C42.1114 24.5847 42.3822 22.701 41.38 21.7052C40.3778 20.7093 38.4822 20.9784 37.1459 22.3062C35.8097 23.634 35.5389 25.5177 36.5411 26.5136C37.5432 27.5095 39.4389 27.2404 40.7752 25.9125Z" fill="#2F2E41"/>
<path d="M55.8083 23.2948C56.365 21.9997 55.4076 20.3518 53.6697 19.6142C51.9319 18.8766 50.0718 19.3286 49.5151 20.6237C48.9584 21.9188 49.9159 23.5667 51.6537 24.3043C53.3915 25.0419 55.2516 24.5899 55.8083 23.2948Z" fill="#2F2E41"/>
<path d="M70.1734 77.6636C70.9718 76.1619 70.373 74.3486 68.8903 73.5552C68.7192 73.4702 68.5766 73.4135 68.4055 73.3569L56.4866 48.2812L51.0404 52.078L64.4706 75.5102C64.0714 77.1536 65.0694 78.797 66.7232 79.222C68.0919 79.562 69.5176 78.9103 70.1734 77.6636Z" fill="#FFB8B8"/>
<path d="M59.2239 52.4464L52.8938 55.2514C52.2095 55.5631 51.3825 55.2514 51.0689 54.5714C51.0404 54.5147 51.0119 54.4581 51.0119 54.3731L49.1584 47.7429C48.303 45.8162 49.1869 43.5778 51.1259 42.7561C53.0364 41.9061 55.289 42.7844 56.1444 44.6828L59.8513 50.463C60.2505 51.0863 60.0794 51.9363 59.4235 52.3613C59.338 52.3897 59.281 52.418 59.2239 52.4464Z" fill="#CCCCCC"/>
<path d="M29.9684 80.1569C31.6222 79.7886 32.6487 78.1452 32.2495 76.5019C32.221 76.3318 32.164 76.1618 32.0784 75.9918L43.3701 50.6329L36.8973 49.0178L27.8298 74.4335C26.3186 75.1985 25.7198 77.0402 26.4897 78.5419C27.1455 79.8169 28.5712 80.4686 29.9684 80.1569Z" fill="#FFB8B8"/>
<path d="M26.8889 126.086L30.168 127.276L36.3556 115.263L31.5082 113.506L26.8889 126.086Z" fill="#FFB8B8"/>
<path d="M35.3861 132.603L25.064 128.863L26.5182 124.896L32.8483 127.192C35.0724 127.985 36.1845 130.422 35.3861 132.603Z" fill="#2F2E41"/>
<path d="M34.6448 119.173C34.4452 119.173 34.2456 119.116 34.0745 119.031L30.3106 117.246C29.6833 116.934 29.3696 116.198 29.5978 115.546L40.2621 86.2204C40.5187 85.5121 41.3171 85.1437 42.0299 85.3987C42.3151 85.5121 42.5717 85.7104 42.7428 85.9937L48.3886 95.3156C48.6452 95.7406 48.6452 96.279 48.4171 96.704L35.8994 118.465C35.6143 118.918 35.158 119.173 34.6448 119.173Z" fill="#2F2E41"/>
<path d="M47.4762 39.2426C51.3502 39.2426 54.4907 36.1219 54.4907 32.2724C54.4907 28.4229 51.3502 25.3022 47.4762 25.3022C43.6022 25.3022 40.4617 28.4229 40.4617 32.2724C40.4617 36.1219 43.6022 39.2426 47.4762 39.2426Z" fill="#FFB8B8"/>
<path d="M57.3705 63.9215L44.9669 60.5215L38.3801 47.4028C37.3536 45.3627 38.1805 42.8694 40.2335 41.8493C40.8038 41.566 41.4596 41.4243 42.0869 41.4243H51.9528C52.9794 41.4243 53.9774 41.7927 54.7187 42.4727C57.3705 44.8244 62.9308 51.6246 57.3991 63.7799L57.3705 63.9215Z" fill="#CCCCCC"/>
<path d="M41.8589 55.1665L35.5857 52.2481C34.9014 51.9364 34.6163 51.1147 34.9299 50.4347C34.9584 50.378 34.987 50.3214 35.0155 50.2647L38.8364 44.5412C39.7488 42.6428 42.0014 41.8495 43.9119 42.7562C45.7938 43.6629 46.6207 45.9013 45.7368 47.7996L43.7693 54.3731C43.5412 55.0815 42.7998 55.5065 42.0585 55.2798C41.9729 55.2232 41.9159 55.1948 41.8589 55.1665Z" fill="#CCCCCC"/>
<path d="M49.4436 129.373H52.9509L54.6047 115.971H49.4436V129.373Z" fill="#FFB8B8"/>
<path d="M59.6802 132.603H48.7023V128.382H55.4316C57.7983 128.382 59.6802 130.28 59.6802 132.603Z" fill="#2F2E41"/>
<path d="M50.7838 124.273C50.128 124.273 49.5862 123.82 49.4437 123.196C48.4457 118.493 43.2276 94.3807 39.15 81.9703C35.0155 69.3334 42.0585 63.5816 43.5127 62.5615C43.6553 62.4482 43.7978 62.3065 43.8834 62.1365L44.9384 59.8131C45.1665 59.3315 45.6513 59.0198 46.193 59.0198C54.12 59.0764 56.8003 61.5415 57.5702 62.6182C57.7983 62.9299 57.8839 63.3549 57.7983 63.7232L52.7513 84.3221C52.7228 84.4637 52.7228 84.5771 52.7228 84.7187L57.7128 122.091C57.8268 122.828 57.2851 123.536 56.5437 123.621H56.5152L50.9264 124.273C50.8694 124.273 50.8123 124.273 50.7838 124.273Z" fill="#2F2E41"/>
<path d="M40.1195 27.909C41.7163 29.014 43.6268 29.5807 45.5657 29.5807C44.8814 30.0624 44.083 30.374 43.2561 30.5157C45.8509 31.0541 48.5027 31.0824 51.0975 30.5724C51.6678 30.4874 52.238 30.289 52.7513 30.0057C53.2646 29.7224 53.6352 29.2407 53.7778 28.6457C53.9489 27.6823 53.179 26.7756 52.3806 26.1806C49.8999 24.3672 46.7348 23.7156 43.7693 24.4806C42.7998 24.7356 41.8304 25.1323 41.203 25.9256C40.5757 26.719 40.4046 27.8807 40.9749 28.674L40.1195 27.909Z" fill="#2F2E41"/>
<path d="M168.661 58.0849C170.709 58.0849 172.368 56.4357 172.368 54.4014C172.368 52.3671 170.709 50.718 168.661 50.718C166.614 50.718 164.955 52.3671 164.955 54.4014C164.955 56.4357 166.614 58.0849 168.661 58.0849Z" fill="#F67506"/>
<path d="M168.291 55.8181C168.205 55.8181 168.12 55.7898 168.063 55.7331L167.179 55.0814C167.008 54.9398 166.979 54.7131 167.093 54.5431C167.207 54.3731 167.464 54.3447 167.635 54.4581L168.205 54.8831L169.545 53.1547C169.688 52.9847 169.916 52.9564 170.087 53.0697C170.258 53.2114 170.287 53.4381 170.173 53.6081L168.604 55.6481C168.519 55.7614 168.405 55.8181 168.291 55.8181Z" fill="white"/>
<path d="M168.661 68.8517C170.709 68.8517 172.368 67.2026 172.368 65.1683C172.368 63.134 170.709 61.4849 168.661 61.4849C166.614 61.4849 164.955 63.134 164.955 65.1683C164.955 67.2026 166.614 68.8517 168.661 68.8517Z" fill="#F67506"/>
<path d="M168.291 66.585C168.205 66.585 168.12 66.5566 168.063 66.5L167.179 65.8483C167.008 65.7066 166.979 65.4799 167.093 65.3099C167.207 65.1399 167.464 65.1116 167.635 65.2249L168.205 65.6499L169.545 63.9216C169.688 63.7516 169.916 63.7232 170.087 63.8366C170.258 63.9782 170.287 64.2049 170.173 64.3749L168.604 66.415C168.519 66.5283 168.405 66.585 168.291 66.585Z" fill="white"/>
<path d="M170.658 81.3188C172.705 81.3188 174.364 79.6696 174.364 77.6353C174.364 75.601 172.705 73.9519 170.658 73.9519C168.61 73.9519 166.951 75.601 166.951 77.6353C166.951 79.6696 168.61 81.3188 170.658 81.3188Z" fill="#F67506"/>
<path d="M170.287 79.052C170.201 79.052 170.116 79.0237 170.059 78.967L169.175 78.3153C169.004 78.1737 168.975 77.947 169.089 77.777C169.203 77.607 169.46 77.5786 169.631 77.692L170.201 78.117L171.541 76.3886C171.684 76.2186 171.912 76.1903 172.083 76.3036C172.254 76.4453 172.283 76.6719 172.169 76.842L170.6 78.882C170.515 78.9953 170.401 79.052 170.287 79.052Z" fill="white"/>
<path d="M206.414 108.378C206.386 108.378 206.357 108.378 206.357 108.378H201.766V107.698H206.386C206.5 107.698 208.667 107.754 210.691 105.346C213.685 101.748 216.138 92.794 210.862 70.6935C203.734 40.9994 209.693 14.762 212.573 4.84514C213.087 3.08842 212.06 1.27505 210.321 0.765033C210.036 0.680031 209.722 0.623363 209.408 0.623363H140.689C139.634 0.623363 138.636 1.13338 138.009 1.9834C136.783 3.65511 135.1 6.85685 134.074 12.6653L133.418 12.552C134.501 6.63018 136.212 3.3151 137.495 1.61505C138.237 0.595029 139.434 -0.0283203 140.717 -0.0283203H209.437C211.632 -0.0283203 213.429 1.72839 213.429 3.93845C213.429 4.30679 213.372 4.67513 213.286 5.04347C210.406 14.9037 204.504 40.9994 211.604 70.5518C216.964 92.964 214.398 102.088 211.29 105.799C209.095 108.264 206.842 108.378 206.414 108.378Z" fill="#E6E6E6"/>
<path d="M194.011 120.703C193.982 120.703 193.954 120.703 193.954 120.703H189.363V120.023H193.982C194.096 120.023 196.263 120.08 198.288 117.671C201.282 114.073 203.734 105.119 198.459 83.0187C191.33 53.3246 197.29 27.0872 200.17 17.1703C200.683 15.4136 199.656 13.6002 197.917 13.0902C197.632 13.0052 197.318 12.9486 197.005 12.9486H128.285C127.23 12.9486 126.232 13.4586 125.605 14.3086C124.379 15.9803 122.697 19.182 121.67 24.9905L121.014 24.8772C122.098 18.9554 123.809 15.6403 125.092 13.9402C125.833 12.9202 127.031 12.2969 128.314 12.2969H197.033C199.229 12.2969 201.025 14.0536 201.025 16.2636C201.025 16.632 200.968 17.0003 200.882 17.3687C198.003 27.2289 192.1 53.3246 199.2 82.877C204.561 105.289 201.995 114.413 198.886 118.125C196.719 120.561 194.467 120.703 194.011 120.703Z" fill="#CCCCCC"/>
<path d="M186.711 95.1741C179.639 65.6217 185.542 39.526 188.393 29.6658C188.992 27.5691 187.766 25.359 185.656 24.764C185.285 24.6506 184.914 24.6223 184.544 24.6223H115.825C114.541 24.6223 113.344 25.2173 112.602 26.2657C109.837 30.0625 104.077 42.6428 110.492 77.4087C113.943 96.0241 113.886 108.718 112.745 117.076C112.118 121.78 111.148 125.123 110.264 127.362L110.179 127.588C109.979 128.042 109.894 128.523 109.894 129.005C109.894 130.138 110.35 131.187 111.177 131.952C111.433 132.207 111.747 132.405 112.089 132.575C112.374 132.717 112.659 132.83 112.945 132.887C113.258 132.972 113.572 133 113.886 133H181.55C181.55 133 181.578 133 181.635 133C182.063 133 184.344 132.887 186.369 130.422C189.477 126.71 192.072 117.558 186.711 95.1741ZM185.884 129.968C183.888 132.405 181.692 132.32 181.578 132.32H113.886C112.774 132.32 111.747 131.782 111.148 130.875C110.606 130.082 110.435 129.118 110.692 128.212C110.721 128.07 110.778 127.957 110.806 127.815C111.804 125.237 112.545 122.573 113.03 119.853C114.627 111.126 114.941 97.6958 111.148 77.267C104.761 42.7278 110.407 30.3458 113.116 26.634C113.743 25.784 114.741 25.274 115.796 25.274H184.515C186.34 25.274 187.823 26.7474 187.823 28.5607C187.823 28.8724 187.766 29.1841 187.68 29.4674C184.8 39.3844 178.869 65.6217 185.969 95.3158C191.33 117.416 188.878 126.342 185.884 129.968Z" fill="#3F3D56"/>
<path d="M154.062 56.7814H118.648C117.136 56.7814 115.939 55.5631 115.939 54.0897C115.939 52.6163 117.165 51.3979 118.648 51.3979H154.062C155.573 51.3979 156.771 52.6163 156.771 54.0897C156.771 55.5631 155.545 56.7814 154.062 56.7814Z" fill="#CCCCCC"/>
<path d="M154.062 68.3984H118.648C117.136 68.3984 115.939 67.18 115.939 65.7066C115.939 64.2333 117.165 63.0149 118.648 63.0149H154.062C155.573 63.0149 156.771 64.2333 156.771 65.7066C156.771 67.18 155.545 68.3984 154.062 68.3984Z" fill="#CCCCCC"/>
<path d="M156.914 80.2987H121.499C119.988 80.2987 118.79 79.0804 118.79 77.607C118.79 76.1336 120.016 74.9153 121.499 74.9153H156.914C158.425 74.9153 159.622 76.1336 159.622 77.607C159.622 79.0804 158.396 80.2987 156.914 80.2987Z" fill="#CCCCCC"/>
<path d="M158.91 92.7656H123.495C121.984 92.7656 120.786 91.5472 120.786 90.0738C120.786 88.6004 122.012 87.3821 123.495 87.3821H158.91C160.421 87.3821 161.618 88.6004 161.618 90.0738C161.618 91.5472 160.392 92.7656 158.91 92.7656Z" fill="#CCCCCC"/>
<path d="M158.91 35.8424H133.475C131.964 35.8424 130.766 34.6241 130.766 33.1507C130.766 31.6773 131.992 30.459 133.475 30.459H158.91C160.421 30.459 161.618 31.6773 161.618 33.1507C161.618 34.6241 160.421 35.8424 158.91 35.8424Z" fill="#F67506"/>
<path d="M172.939 93.7575C174.986 93.7575 176.645 92.1083 176.645 90.074C176.645 88.0397 174.986 86.3906 172.939 86.3906C170.891 86.3906 169.232 88.0397 169.232 90.074C169.232 92.1083 170.891 93.7575 172.939 93.7575Z" fill="#CCCCCC"/>
<path d="M160.621 104.949H125.206C123.695 104.949 122.497 103.731 122.497 102.258C122.497 100.784 123.723 99.5659 125.206 99.5659H160.621C162.132 99.5659 163.329 100.784 163.329 102.258C163.329 103.731 162.103 104.949 160.621 104.949Z" fill="#CCCCCC"/>
<path d="M174.649 105.941C176.697 105.941 178.356 104.292 178.356 102.258C178.356 100.223 176.697 98.5742 174.649 98.5742C172.602 98.5742 170.943 100.223 170.943 102.258C170.943 104.292 172.602 105.941 174.649 105.941Z" fill="#CCCCCC"/>
</g>
<defs>
<clipPath id="clip0">
<rect width="242" height="133" fill="white"/>
</clipPath>
</defs>
</svg>
