<svg width="219" height="163" viewBox="0 0 219 163" fill="none" xmlns="http://www.w3.org/2000/svg">
<path opacity="0.1" d="M154.164 163C172.997 163 188.263 162.136 188.263 161.071C188.263 160.006 172.997 159.142 154.164 159.142C135.332 159.142 120.066 160.006 120.066 161.071C120.066 162.136 135.332 163 154.164 163Z" fill="#F67506"/>
<path opacity="0.1" d="M201.711 107.546C201.707 114.177 200.278 120.728 197.523 126.747C194.768 132.766 190.753 138.11 185.754 142.41C180.755 146.71 174.892 149.863 168.569 151.653C162.245 153.443 155.613 153.827 149.128 152.777H77.2031C74.4251 153.162 71.6243 153.355 68.8202 153.355C66.8072 153.355 64.8184 153.258 62.854 153.064C47.7388 151.583 33.7127 144.468 23.5122 133.109C13.3117 121.749 7.66874 106.96 7.68424 91.6272C7.68424 57.535 35.0566 29.8994 68.8202 29.8994C96.013 29.8994 119.055 47.8261 126.996 72.613C135.187 65.5768 145.595 61.7208 156.35 61.738C181.398 61.738 201.711 82.2466 201.711 107.546Z" fill="#F67506"/>
<path opacity="0.1" d="M187.303 144.035C182.268 148.142 176.477 151.121 170.292 152.786C164.106 154.45 157.659 154.764 151.352 153.708H77.7957C74.9547 154.115 72.0904 154.32 69.2227 154.32C67.1641 154.32 65.1302 154.217 63.1212 154.012C50.9395 152.763 39.376 147.808 29.8635 139.758C20.3509 131.709 13.3072 120.921 9.60522 108.729C15.5942 95.3563 30.9805 85.8403 49.02 85.8403C66.5989 85.8403 81.6665 94.8785 87.9551 107.715C91.0517 107.127 94.1929 106.832 97.3403 106.834C115.56 106.834 131.073 116.547 136.93 130.121C141.782 128.584 146.826 127.809 151.895 127.82C166.755 127.828 179.816 134.283 187.303 144.035Z" fill="#F67506"/>
<path d="M67.2273 144.235C67.2273 149.174 65.3483 151.855 62.2708 153.308C50.6785 152.179 39.5616 148.095 29.9666 141.438C30.2126 139.76 30.6839 138.122 31.3677 136.571L40.1204 139.316L32.3253 134.69C33.3795 132.875 34.7265 131.251 36.3108 129.883L51.0159 134.494L39.4954 127.67C41.8676 126.359 44.4933 125.582 47.1918 125.392C49.8904 125.201 52.5977 125.603 55.1278 126.568C57.6578 127.534 59.9504 129.04 61.8481 130.984C63.7457 132.928 65.2033 135.264 66.1206 137.83L66.1607 137.946C66.1913 138.032 66.2219 138.119 66.2506 138.208C66.3538 138.515 66.4487 138.825 66.5354 139.139C66.5679 139.251 66.5985 139.362 66.6252 139.476C66.652 139.59 66.6806 139.692 66.7055 139.8C66.7303 139.908 66.7514 139.993 66.7705 140.081C66.7839 140.139 66.7972 140.197 66.8087 140.255C66.8297 140.347 66.8489 140.448 66.8661 140.534C66.8928 140.669 66.9196 140.806 66.9425 140.941C66.9655 141.076 66.9903 141.223 67.0113 141.363C67.0324 141.504 67.0572 141.676 67.0763 141.834C67.0954 141.992 67.1107 142.115 67.1241 142.256C67.1241 142.3 67.1337 142.342 67.1375 142.387C67.1509 142.51 67.1604 142.634 67.17 142.757C67.1709 142.773 67.1709 142.789 67.17 142.805C67.1815 142.959 67.191 143.113 67.1987 143.268C67.2063 143.422 67.212 143.572 67.2159 143.719C67.2169 143.734 67.2169 143.748 67.2159 143.763C67.2254 143.917 67.2273 144.075 67.2273 144.235Z" fill="#F67506"/>
<path opacity="0.1" d="M67.2273 144.235C67.2273 149.174 65.3483 151.855 62.2708 153.308C54.7742 152.58 47.448 150.611 40.5868 147.479L40.9003 147.269C42.3167 146.323 43.7809 145.355 45.4477 145.033C46.9138 144.75 48.4258 144.989 49.9149 144.904C52.5071 144.744 54.9473 143.617 56.76 141.741C57.8247 140.631 58.6715 139.268 59.9426 138.42C61.3227 137.506 63.0736 137.31 64.7099 137.537C65.1852 137.607 65.6562 137.704 66.1206 137.828L66.1607 137.944C66.1913 138.031 66.2219 138.117 66.2505 138.206C66.3538 138.513 66.4487 138.824 66.5354 139.137C66.5679 139.249 66.5984 139.361 66.6252 139.474C66.652 139.588 66.6806 139.69 66.7055 139.798C66.7303 139.906 66.7514 139.991 66.7705 140.08C66.7839 140.137 66.7972 140.195 66.8087 140.253C66.8297 140.346 66.8488 140.446 66.866 140.533C66.8928 140.668 66.9196 140.804 66.9425 140.939C66.9654 141.074 66.9903 141.221 67.0113 141.361C67.0323 141.502 67.0572 141.674 67.0763 141.832C67.0954 141.99 67.1107 142.113 67.1241 142.254C67.1241 142.298 67.1337 142.341 67.1375 142.385C67.1509 142.508 67.1604 142.632 67.17 142.755C67.1709 142.771 67.1709 142.787 67.17 142.803C67.1814 142.957 67.191 143.112 67.1987 143.266C67.2063 143.42 67.212 143.57 67.2159 143.717C67.2169 143.732 67.2169 143.746 67.2159 143.761C67.2254 143.917 67.2273 144.075 67.2273 144.235Z" fill="black"/>
<path d="M178.82 147.441C178.822 147.943 178.771 148.445 178.667 148.937C178.648 149.029 178.627 149.12 178.606 149.208C178.063 151.404 176.532 153.009 174.705 153.112C174.644 153.112 174.583 153.112 174.514 153.112C172.581 153.112 170.947 151.431 170.408 149.116C170.393 149.054 170.379 148.993 170.366 148.923C170.263 148.431 170.211 147.93 170.213 147.427C170.213 144.291 172.138 141.751 174.514 141.751C176.89 141.751 178.82 144.305 178.82 147.441Z" fill="#3F3D56"/>
<path opacity="0.1" d="M178.82 147.441C178.822 147.944 178.771 148.445 178.667 148.937C178.648 149.029 178.627 149.12 178.606 149.209C178.541 149.209 178.478 149.209 178.415 149.209C177.942 149.183 177.471 149.118 177.008 149.016C176.598 149.144 176.179 149.24 175.754 149.305C175.429 149.354 175.101 149.385 174.772 149.397C174.661 149.397 174.55 149.397 174.439 149.397C174.045 149.397 173.652 149.371 173.262 149.318C172.631 149.233 172.011 149.078 171.413 148.856C171.086 148.966 170.753 149.056 170.415 149.126C170.4 149.064 170.387 149.002 170.373 148.933C170.27 148.441 170.219 147.94 170.22 147.437C170.22 144.301 172.145 141.76 174.521 141.76C176.897 141.76 178.82 144.305 178.82 147.441Z" fill="black"/>
<path d="M187.995 136.866C187.997 135.486 187.676 134.125 187.059 132.894L182.001 134.48L186.441 131.849C185.697 130.764 184.72 129.861 183.583 129.207C182.447 128.554 181.179 128.166 179.874 128.073C179.666 127.755 179.438 127.451 179.191 127.163L171.927 129.443L177.886 125.91C176.746 125.028 175.408 124.443 173.991 124.206C172.573 123.97 171.12 124.089 169.759 124.554C168.398 125.019 167.172 125.815 166.189 126.871C165.206 127.928 164.496 129.212 164.123 130.611L170.345 137.834L163.595 132.911C161.885 134.134 160.668 135.935 160.165 137.987C159.663 140.039 159.908 142.205 160.856 144.09C161.804 145.976 163.392 147.454 165.331 148.258C167.27 149.061 169.43 149.135 171.419 148.466C173.218 149.133 175.183 149.188 177.016 148.622C178.293 148.904 179.617 148.894 180.89 148.592C182.163 148.29 183.353 147.705 184.372 146.878C185.391 146.052 186.213 145.005 186.779 143.816C187.344 142.627 187.637 141.325 187.638 140.006C187.638 139.814 187.638 139.621 187.619 139.428C187.869 138.598 187.996 137.734 187.995 136.866Z" fill="#F67506"/>
<path opacity="0.1" d="M187.845 138.501C185.173 137.99 182.434 137.955 179.751 138.397C176.714 138.904 173.61 140.018 170.639 139.204C168.896 138.726 167.39 137.62 165.686 137.005C164.043 136.427 162.273 136.32 160.573 136.697C159.925 138.259 159.738 139.977 160.032 141.644C160.326 143.312 161.091 144.859 162.233 146.1C163.376 147.341 164.849 148.224 166.476 148.644C168.103 149.063 169.816 149.002 171.409 148.466C173.208 149.133 175.174 149.188 177.006 148.622C178.284 148.906 179.609 148.897 180.884 148.596C182.158 148.295 183.349 147.709 184.369 146.883C185.389 146.056 186.212 145.009 186.778 143.819C187.344 142.629 187.638 141.326 187.638 140.006C187.638 139.814 187.638 139.621 187.619 139.428C187.711 139.123 187.786 138.814 187.845 138.501Z" fill="black"/>
<path d="M140.639 38.053H139.596C139.288 38.053 139.038 38.3049 139.038 38.6158V55.4352C139.038 55.746 139.288 55.9979 139.596 55.9979H140.639C140.947 55.9979 141.197 55.746 141.197 55.4352V38.6158C141.197 38.3049 140.947 38.053 140.639 38.053Z" fill="#3A3768"/>
<path d="M67.9337 23.9934H67.8386C67.5304 23.9934 67.2805 24.2454 67.2805 24.5562V29.3386C67.2805 29.6494 67.5304 29.9013 67.8386 29.9013H67.9337C68.2419 29.9013 68.4918 29.6494 68.4918 29.3386V24.5562C68.4918 24.2454 68.2419 23.9934 67.9337 23.9934Z" fill="#3A3768"/>
<path d="M68.0435 34.8115H67.7949C67.4867 34.8115 67.2368 35.0635 67.2368 35.3743V44.5311C67.2368 44.8419 67.4867 45.0939 67.7949 45.0939H68.0435C68.3517 45.0939 68.6016 44.8419 68.6016 44.5311V35.3743C68.6016 35.0635 68.3517 34.8115 68.0435 34.8115Z" fill="#3A3768"/>
<path d="M67.9995 48.6917H67.8168C67.5085 48.6917 67.2587 48.9436 67.2587 49.2544V58.4997C67.2587 58.8105 67.5085 59.0625 67.8168 59.0625H67.9995C68.3078 59.0625 68.5576 58.8105 68.5576 58.4997V49.2544C68.5576 48.9436 68.3078 48.6917 67.9995 48.6917Z" fill="#3A3768"/>
<path d="M130.701 4.4707H77.47C72.222 4.4707 67.9678 8.76068 67.9678 14.0526V142.928C67.9678 148.22 72.222 152.51 77.47 152.51H130.701C135.949 152.51 140.203 148.22 140.203 142.928V14.0526C140.203 8.76068 135.949 4.4707 130.701 4.4707Z" fill="#3F3D56"/>
<path d="M106.262 8.89185H98.0611C97.5402 8.89185 97.1179 9.31765 97.1179 9.84291V10.0051C97.1179 10.5304 97.5402 10.9562 98.0611 10.9562H106.262C106.783 10.9562 107.205 10.5304 107.205 10.0051V9.84291C107.205 9.31765 106.783 8.89185 106.262 8.89185Z" fill="#E6E8EC"/>
<path d="M109.89 11.0962C110.532 11.0962 111.053 10.5714 111.053 9.92395C111.053 9.27654 110.532 8.75171 109.89 8.75171C109.248 8.75171 108.728 9.27654 108.728 9.92395C108.728 10.5714 109.248 11.0962 109.89 11.0962Z" fill="#E6E8EC"/>
<path d="M129.996 8.32666H121.735V9.33179C121.735 10.5949 121.237 11.8064 120.351 12.6995C119.466 13.5927 118.264 14.0945 117.012 14.0945H90.6473C89.3947 14.0945 88.1934 13.5927 87.3076 12.6995C86.4219 11.8064 85.9243 10.5949 85.9243 9.33179V8.32666H78.1646C77.4114 8.32666 76.6655 8.47631 75.9696 8.76707C75.2737 9.05782 74.6414 9.48399 74.1089 10.0212C73.5764 10.5584 73.154 11.1962 72.866 11.8981C72.5779 12.5999 72.4299 13.3521 72.4302 14.1117V142.87C72.4299 143.629 72.5779 144.381 72.866 145.083C73.154 145.785 73.5764 146.423 74.1089 146.96C74.6414 147.497 75.2737 147.923 75.9696 148.214C76.6655 148.505 77.4114 148.655 78.1646 148.655H129.996C131.518 148.655 132.977 148.045 134.053 146.96C135.129 145.875 135.733 144.404 135.733 142.87V14.1117C135.733 12.5774 135.129 11.106 134.053 10.0211C132.977 8.93616 131.518 8.32666 129.996 8.32666Z" fill="#F67506"/>
<path opacity="0.1" d="M111.396 31.4299H75.084V37.328H111.396V31.4299Z" fill="black" stroke="#F67506" stroke-miterlimit="10"/>
<path opacity="0.1" d="M83.8575 71.7336C88.1645 71.7336 91.6561 68.2127 91.6561 63.8695C91.6561 59.5263 88.1645 56.0054 83.8575 56.0054C79.5504 56.0054 76.0588 59.5263 76.0588 63.8695C76.0588 68.2127 79.5504 71.7336 83.8575 71.7336Z" fill="black" stroke="#F67506" stroke-miterlimit="10"/>
<path d="M81.6642 62.3948V65.3438H83.6139L86.0509 67.912V59.8242L83.6139 62.3948H81.6642Z" fill="white"/>
<path opacity="0.1" d="M104.573 71.7336C108.88 71.7336 112.371 68.2127 112.371 63.8695C112.371 59.5263 108.88 56.0054 104.573 56.0054C100.266 56.0054 96.7742 59.5263 96.7742 63.8695C96.7742 68.2127 100.266 71.7336 104.573 71.7336Z" fill="black" stroke="#F67506" stroke-miterlimit="10"/>
<path d="M104.573 67.1526C104.388 67.1517 104.208 67.2059 104.054 67.3085C103.9 67.411 103.78 67.5573 103.709 67.7288C103.638 67.9002 103.619 68.0891 103.654 68.2715C103.69 68.454 103.778 68.6217 103.908 68.7535C104.038 68.8853 104.204 68.9752 104.384 69.0118C104.565 69.0484 104.753 69.0301 104.923 68.9592C105.093 68.8883 105.239 68.768 105.342 68.6135C105.444 68.459 105.499 68.2773 105.499 68.0914C105.499 67.8433 105.401 67.6053 105.228 67.4293C105.054 67.2534 104.819 67.1539 104.573 67.1526ZM101.843 58.7085C101.659 58.7071 101.478 58.7609 101.324 58.8631C101.17 58.9654 101.049 59.1115 100.978 59.2829C100.906 59.4543 100.887 59.6433 100.922 59.8259C100.957 60.0085 101.045 60.1764 101.175 60.3085C101.305 60.4405 101.471 60.5307 101.652 60.5675C101.832 60.6043 102.02 60.5861 102.19 60.5153C102.361 60.4445 102.507 60.3242 102.609 60.1696C102.712 60.0151 102.767 59.8333 102.767 59.6473C102.767 59.3996 102.67 59.1619 102.497 58.9861C102.324 58.8102 102.089 58.7105 101.843 58.7085ZM101.843 61.5249C101.659 61.5234 101.478 61.5773 101.324 61.6797C101.17 61.782 101.049 61.9283 100.978 62.0998C100.906 62.2714 100.887 62.4605 100.922 62.6431C100.957 62.8258 101.046 62.9938 101.176 63.1257C101.306 63.2576 101.472 63.3476 101.653 63.3841C101.834 63.4207 102.022 63.4022 102.192 63.331C102.363 63.2597 102.508 63.139 102.611 62.9842C102.713 62.8293 102.767 62.6473 102.767 62.4612C102.767 62.2137 102.67 61.9763 102.497 61.8008C102.324 61.6254 102.089 61.5262 101.843 61.5249ZM101.843 64.3388C101.659 64.3373 101.478 64.3911 101.324 64.4934C101.17 64.5956 101.049 64.7417 100.978 64.9131C100.906 65.0846 100.887 65.2735 100.922 65.4561C100.957 65.6387 101.045 65.8067 101.175 65.9387C101.305 66.0707 101.471 66.1609 101.652 66.1977C101.832 66.2345 102.02 66.2164 102.19 66.1455C102.361 66.0747 102.507 65.9544 102.609 65.7999C102.712 65.6453 102.767 65.4635 102.767 65.2775C102.767 65.0298 102.67 64.7922 102.497 64.6163C102.324 64.4405 102.089 64.3407 101.843 64.3388ZM107.302 60.5861C107.487 60.5871 107.667 60.5328 107.821 60.4303C107.974 60.3277 108.095 60.1814 108.166 60.01C108.237 59.8385 108.256 59.6496 108.221 59.4672C108.185 59.2848 108.097 59.117 107.967 58.9852C107.837 58.8535 107.671 58.7636 107.491 58.7269C107.31 58.6903 107.122 58.7086 106.952 58.7795C106.782 58.8504 106.636 58.9708 106.533 59.1252C106.431 59.2797 106.376 59.4614 106.376 59.6473C106.376 59.7703 106.4 59.8921 106.446 60.0058C106.492 60.1195 106.56 60.2229 106.646 60.3101C106.732 60.3973 106.835 60.4665 106.947 60.5139C107.06 60.5612 107.18 60.5858 107.302 60.5861ZM104.573 64.3388C104.388 64.3378 104.208 64.392 104.054 64.4946C103.9 64.5971 103.78 64.7434 103.709 64.9149C103.638 65.0863 103.619 65.2752 103.654 65.4577C103.69 65.6401 103.778 65.8078 103.908 65.9396C104.038 66.0714 104.204 66.1613 104.384 66.1979C104.565 66.2345 104.753 66.2162 104.923 66.1453C105.093 66.0744 105.239 65.9541 105.342 65.7996C105.444 65.6451 105.499 65.4634 105.499 65.2775C105.499 65.0294 105.401 64.7914 105.228 64.6155C105.054 64.4395 104.819 64.3401 104.573 64.3388ZM107.302 64.3388C107.118 64.3378 106.937 64.392 106.784 64.4946C106.63 64.5971 106.51 64.7434 106.439 64.9149C106.367 65.0863 106.348 65.2752 106.384 65.4577C106.419 65.6401 106.507 65.8078 106.637 65.9396C106.767 66.0714 106.933 66.1613 107.114 66.1979C107.295 66.2345 107.482 66.2162 107.652 66.1453C107.823 66.0744 107.969 65.9541 108.071 65.7996C108.174 65.6451 108.228 65.4634 108.228 65.2775C108.228 65.0294 108.131 64.7914 107.957 64.6155C107.784 64.4395 107.548 64.3401 107.302 64.3388ZM107.302 61.5249C107.118 61.5239 106.937 61.5782 106.783 61.6809C106.63 61.7835 106.51 61.9299 106.438 62.1015C106.367 62.2731 106.348 62.4622 106.384 62.6447C106.419 62.8272 106.508 62.9949 106.638 63.1266C106.768 63.2583 106.935 63.348 107.115 63.3843C107.296 63.4207 107.484 63.402 107.654 63.3307C107.825 63.2594 107.97 63.1387 108.072 62.9839C108.174 62.8291 108.229 62.6472 108.228 62.4612C108.228 62.2133 108.131 61.9755 107.957 61.8C107.784 61.6245 107.548 61.5255 107.302 61.5249ZM104.573 61.5249C104.388 61.5239 104.208 61.5782 104.054 61.6809C103.9 61.7835 103.78 61.9299 103.709 62.1015C103.638 62.2731 103.619 62.4622 103.654 62.6447C103.69 62.8272 103.778 62.9949 103.909 63.1266C104.039 63.2583 104.205 63.348 104.386 63.3843C104.567 63.4207 104.754 63.402 104.925 63.3307C105.095 63.2594 105.241 63.1387 105.343 62.9839C105.445 62.8291 105.499 62.6472 105.499 62.4612C105.499 62.2133 105.401 61.9755 105.228 61.8C105.054 61.6245 104.819 61.5255 104.573 61.5249ZM104.573 58.7085C104.388 58.7076 104.208 58.7618 104.054 58.8643C103.9 58.9669 103.78 59.1132 103.709 59.2846C103.638 59.4561 103.619 59.645 103.654 59.8274C103.69 60.0099 103.778 60.1776 103.908 60.3094C104.038 60.4412 104.204 60.531 104.384 60.5677C104.565 60.6043 104.753 60.586 104.923 60.5151C105.093 60.4442 105.239 60.3239 105.342 60.1694C105.444 60.0149 105.499 59.8332 105.499 59.6473C105.499 59.3992 105.401 59.1611 105.228 58.9852C105.054 58.8093 104.819 58.7098 104.573 58.7085Z" fill="white"/>
<g opacity="0.4">
<path opacity="0.1" d="M83.8575 95.3258C88.1645 95.3258 91.6561 91.805 91.6561 87.4617C91.6561 83.1185 88.1645 79.5977 83.8575 79.5977C79.5504 79.5977 76.0588 83.1185 76.0588 87.4617C76.0588 91.805 79.5504 95.3258 83.8575 95.3258Z" fill="black" stroke="#F67506" stroke-miterlimit="10"/>
<path opacity="0.4" d="M87.5131 87.9532H84.3449V91.1481H83.3701V87.9532H80.2019V86.9702H83.3701V83.7754H84.3449V86.9702H87.5131V87.9532Z" fill="white"/>
</g>
<path opacity="0.1" d="M125.288 71.7336C129.595 71.7336 133.087 68.2127 133.087 63.8695C133.087 59.5263 129.595 56.0054 125.288 56.0054C120.981 56.0054 117.49 59.5263 117.49 63.8695C117.49 68.2127 120.981 71.7336 125.288 71.7336Z" fill="black" stroke="#F67506" stroke-miterlimit="10"/>
<path d="M125.288 59.0747C124.704 59.0824 124.128 59.206 123.591 59.4384C123.055 59.6708 122.569 60.0075 122.162 60.4292C121.754 60.8509 121.433 61.3495 121.217 61.8963C121.001 62.4431 120.894 63.0276 120.901 63.6162V67.1477C120.899 67.3439 120.934 67.5388 121.007 67.721C121.079 67.9033 121.186 68.0695 121.321 68.2101C121.457 68.3506 121.619 68.4629 121.798 68.5403C121.977 68.6178 122.169 68.659 122.364 68.6616H123.826V64.6042H121.876V63.6212C121.876 62.7087 122.236 61.8335 122.875 61.1883C123.515 60.5431 124.383 60.1806 125.288 60.1806C126.193 60.1806 127.061 60.5431 127.701 61.1883C128.34 61.8335 128.7 62.7087 128.7 63.6212V64.6042H126.75V68.6591H128.213C128.407 68.6569 128.6 68.6159 128.778 68.5385C128.957 68.4612 129.119 68.349 129.255 68.2083C129.391 68.0677 129.498 67.9014 129.57 67.719C129.642 67.5365 129.678 67.3416 129.675 67.1453V63.6162C129.683 63.0276 129.575 62.4431 129.359 61.8963C129.143 61.3495 128.822 60.8509 128.414 60.4292C128.007 60.0075 127.521 59.6708 126.985 59.4384C126.448 59.206 125.872 59.0824 125.288 59.0747Z" fill="white"/>
<g opacity="0.4">
<path opacity="0.1" d="M104.573 95.3258C108.88 95.3258 112.371 91.805 112.371 87.4617C112.371 83.1185 108.88 79.5977 104.573 79.5977C100.266 79.5977 96.7742 83.1185 96.7742 87.4617C96.7742 91.805 100.266 95.3258 104.573 95.3258Z" fill="black" stroke="#F67506" stroke-miterlimit="10"/>
<path opacity="0.4" d="M107.497 86.6189V84.6529C107.496 84.5783 107.481 84.5047 107.452 84.4362C107.423 84.3677 107.38 84.3057 107.327 84.2536C107.274 84.2016 107.212 84.1606 107.143 84.133C107.074 84.1053 107.001 84.0916 106.927 84.0926H100.02C99.8715 84.0913 99.7281 84.1495 99.6217 84.2545C99.5153 84.3595 99.4544 84.5028 99.4525 84.6529V90.2585C99.4551 90.4084 99.5161 90.5513 99.6224 90.6562C99.7287 90.7611 99.8717 90.8195 100.02 90.8188H106.925C107.074 90.8202 107.217 90.762 107.324 90.6571C107.431 90.5521 107.492 90.4089 107.495 90.2585V88.2925L109.688 90.5338V84.3777L107.497 86.6189Z" fill="white"/>
</g>
<path opacity="0.1" d="M125.288 95.3258C129.595 95.3258 133.087 91.805 133.087 87.4617C133.087 83.1185 129.595 79.5977 125.288 79.5977C120.981 79.5977 117.49 83.1185 117.49 87.4617C117.49 91.805 120.981 95.3258 125.288 95.3258Z" fill="black" stroke="#F67506" stroke-miterlimit="10"/>
<path d="M124.903 89.4868C124.483 89.7267 124.009 89.8529 123.527 89.8529C123.045 89.8529 122.571 89.7267 122.151 89.4868C121.074 89.8185 120.414 90.917 120.17 91.8829H126.884C126.641 90.917 125.982 89.8185 124.903 89.4868ZM123.528 84.3259C123.05 84.3254 122.581 84.4682 122.183 84.7362C121.785 85.0041 121.474 85.3852 121.291 85.8312C121.107 86.2773 121.059 86.7681 121.152 87.2417C121.246 87.7154 121.476 88.1504 121.815 88.4918C122.153 88.8333 122.585 89.0657 123.054 89.1598C123.524 89.2539 124.011 89.2054 124.453 89.0204C124.895 88.8354 125.273 88.5222 125.539 88.1205C125.805 87.7188 125.946 87.2467 125.946 86.7638C125.946 86.1172 125.691 85.4972 125.238 85.04C124.784 84.5828 124.17 84.3259 123.528 84.3259ZM123.528 88.6217C123.165 88.6149 122.811 88.501 122.51 88.2941C122.21 88.0871 121.976 87.7961 121.837 87.4568H125.217C125.079 87.7962 124.846 88.0874 124.546 88.2948C124.246 88.5022 123.892 88.6167 123.528 88.6242V88.6217Z" fill="white"/>
<path d="M126.809 90.4085H130.406C130.294 89.8984 130.052 89.4264 129.705 89.0387C129.358 88.651 128.916 88.3609 128.425 88.1967C128.005 88.4366 127.53 88.5627 127.048 88.5629C126.724 88.5658 126.402 88.5109 126.097 88.4007C125.927 88.7014 125.712 88.9734 125.459 89.2068C126.016 89.4644 126.486 89.8825 126.809 90.4085ZM126.443 86.1692H128.739C128.6 86.5076 128.365 86.7975 128.065 87.0036C127.764 87.2096 127.411 87.3228 127.048 87.3292C126.85 87.3277 126.654 87.2928 126.468 87.226C126.438 87.423 126.388 87.6166 126.319 87.8035C126.652 87.9106 127.004 87.9438 127.351 87.9007C127.698 87.8575 128.031 87.7392 128.328 87.5537C128.625 87.3683 128.879 87.1201 129.072 86.8263C129.265 86.5325 129.393 86.2001 129.446 85.8518C129.5 85.5035 129.478 85.1477 129.382 84.8088C129.286 84.47 129.118 84.1561 128.891 83.8887C128.663 83.6214 128.38 83.4069 128.063 83.2601C127.745 83.1133 127.4 83.0377 127.05 83.0383C126.643 83.0389 126.243 83.1428 125.887 83.3403C125.53 83.5379 125.229 83.8228 125.01 84.1688C125.376 84.3812 125.692 84.6693 125.939 85.0141C126.186 85.359 126.358 85.7526 126.443 86.1692Z" fill="white"/>
<path d="M104.573 126.782C108.88 126.782 112.371 123.262 112.371 118.918C112.371 114.575 108.88 111.054 104.573 111.054C100.266 111.054 96.7742 114.575 96.7742 118.918C96.7742 123.262 100.266 126.782 104.573 126.782Z" fill="#FF6F61"/>
<path d="M100.569 120.86C100.995 120.453 101.481 120.115 102.009 119.857C102.091 119.82 102.16 119.76 102.208 119.684C102.256 119.608 102.281 119.52 102.28 119.429L102.321 117.901C103.811 117.454 105.404 117.497 106.869 118.024L106.827 119.552C106.826 119.641 106.848 119.729 106.891 119.806C106.933 119.884 106.995 119.949 107.071 119.995C107.6 120.273 108.08 120.638 108.489 121.076C108.533 121.123 108.586 121.161 108.644 121.187C108.703 121.214 108.766 121.228 108.83 121.23C108.894 121.232 108.958 121.221 109.018 121.198C109.078 121.175 109.132 121.14 109.179 121.096L110.417 119.911C110.51 119.822 110.565 119.699 110.569 119.569C110.572 119.439 110.525 119.313 110.436 119.218C109.688 118.421 108.791 117.781 107.798 117.334C106.804 116.887 105.732 116.641 104.645 116.611C103.557 116.582 102.474 116.769 101.457 117.161C100.441 117.553 99.5114 118.144 98.7214 118.899C98.6749 118.943 98.6377 118.996 98.6116 119.056C98.5856 119.115 98.5714 119.178 98.5699 119.243C98.5683 119.307 98.5793 119.372 98.6024 119.432C98.6255 119.492 98.6601 119.547 98.7043 119.594L99.8766 120.843C99.9207 120.889 99.9736 120.927 100.032 120.953C100.091 120.979 100.154 120.994 100.218 120.995C100.282 120.997 100.346 120.986 100.405 120.963C100.465 120.939 100.52 120.904 100.566 120.86H100.569Z" fill="white"/>
<path opacity="0.1" d="M126.263 42.4889C129.628 42.4889 132.356 39.7382 132.356 36.345C132.356 32.9519 129.628 30.2012 126.263 30.2012C122.898 30.2012 120.17 32.9519 120.17 36.345C120.17 39.7382 122.898 42.4889 126.263 42.4889Z" fill="black" stroke="#F67506" stroke-miterlimit="10"/>
<path d="M127.64 37.7236C127.22 37.9635 126.745 38.0896 126.263 38.0896C125.78 38.0896 125.306 37.9635 124.886 37.7236C123.809 38.0553 123.148 39.1538 122.905 40.1221H129.621C129.377 39.1538 128.717 38.0553 127.64 37.7236ZM126.263 32.5627C125.784 32.5623 125.316 32.705 124.918 32.9728C124.519 33.2407 124.209 33.6216 124.025 34.0675C123.842 34.5134 123.793 35.0041 123.887 35.4777C123.98 35.9512 124.21 36.3862 124.548 36.7278C124.887 37.0693 125.318 37.302 125.787 37.3963C126.257 37.4907 126.744 37.4425 127.186 37.2579C127.628 37.0732 128.006 36.7605 128.272 36.3591C128.538 35.9577 128.68 35.4858 128.68 35.0031C128.68 34.3565 128.425 33.7365 127.972 33.2791C127.519 32.8216 126.904 32.564 126.263 32.5627ZM126.263 36.861C125.899 36.8535 125.546 36.7394 125.245 36.5325C124.945 36.3256 124.711 36.035 124.571 35.6961H127.954C127.815 36.0351 127.581 36.3259 127.281 36.5332C126.98 36.7404 126.627 36.8552 126.263 36.8634V36.861Z" fill="white"/>
<path opacity="0.1" d="M77.3352 27.2644C76.8898 27.0041 76.2877 27.2528 75.9818 27.6711C75.676 28.0893 75.5995 28.6348 75.5135 29.1418C75.3434 30.281 75.2191 31.5898 75.9818 32.4494C74.7355 28.6387 71.1515 25.7185 67.189 25.2925" stroke="#F67506" stroke-width="3" stroke-miterlimit="10"/>
<path opacity="0.1" d="M154.565 90.1506C154.279 89.9829 153.893 90.1506 153.696 90.4127C153.521 90.6985 153.418 91.0225 153.394 91.3572C153.285 92.0916 153.203 92.932 153.696 93.4775C153.276 92.2542 152.524 91.1743 151.525 90.3608C150.527 89.5474 149.322 89.0331 148.047 88.8765" stroke="#F67506" stroke-width="3" stroke-miterlimit="10"/>
<path opacity="0.1" d="M57.1747 65.2312C56.888 65.0654 56.5018 65.2312 56.305 65.4933C56.1302 65.7796 56.0266 66.1043 56.0029 66.4397C55.894 67.1722 55.8118 68.0126 56.305 68.56C55.8848 67.3369 55.1326 66.2573 54.1341 65.4439C53.1355 64.6305 51.9307 64.116 50.6565 63.959" stroke="#F67506" stroke-width="3" stroke-miterlimit="10"/>
<path d="M133.508 153.681C133.75 154.142 134.205 154.425 134.643 154.677C137.687 156.436 140.894 157.892 144.218 159.023C144.301 159.072 144.393 159.101 144.489 159.108C144.584 159.116 144.68 159.101 144.769 159.067C144.858 159.032 144.939 158.977 145.004 158.907C145.07 158.836 145.119 158.752 145.147 158.66C145.53 158.011 145.949 156.951 145.849 156.095C146.164 155.902 146.392 155.594 146.486 155.236C146.617 154.8 146.816 154.388 147.076 154.015C147.529 153.327 148.076 152.636 148.149 151.799C148.142 151.501 148.171 151.202 148.233 150.911C148.362 150.525 148.703 150.271 148.959 149.964C149.359 149.476 149.55 148.846 149.732 148.233C150.487 145.688 151.242 143.142 151.871 140.557C152.074 139.72 152.263 138.881 152.542 138.068C152.784 137.355 153.093 136.672 153.401 135.988C154.5 133.511 155.779 131.12 157.227 128.832C157.454 129.601 157.728 130.354 158.048 131.087C158.213 131.466 158.389 131.839 158.556 132.217C159.188 133.643 159.074 135.473 159.851 136.813C160.174 137.363 160.492 137.912 160.805 138.461C160.982 138.73 161.12 139.023 161.214 139.332C161.265 139.547 161.269 139.771 161.306 139.989C161.47 140.965 162.257 141.653 162.693 142.524C163.092 143.32 163.177 144.233 163.419 145.109C163.992 147.135 165.401 148.895 165.544 151.006C165.562 151.576 165.548 152.146 165.503 152.714C165.467 153.709 165.532 154.706 165.699 155.687C165.712 155.786 165.738 155.883 165.776 155.975C164.536 157.836 162.626 159.137 160.451 159.602C160.04 159.685 159.568 159.773 159.353 160.154C159.094 160.608 159.386 161.232 159.837 161.476C160.287 161.72 160.805 161.696 161.289 161.652C164.761 161.359 168.197 160.72 171.544 159.744C171.713 159.708 171.868 159.623 171.989 159.499C172.109 159.321 172.161 159.106 172.137 158.892C172.135 158.103 171.953 157.325 171.604 156.619L171.846 156.534C171.982 155.558 171.483 154.613 171.096 153.708C170.423 152.129 170.055 150.423 169.523 148.78C168.497 145.607 166.839 142.647 166.439 139.327C166.33 138.414 166.059 137.487 166.001 136.569C165.885 134.7 165.759 132.82 165.355 131C165.016 129.501 164.481 128.071 164.145 126.555C163.808 125.039 163.7 123.446 164.193 121.996C164.334 121.581 164.522 121.188 164.651 120.776C165.135 119.162 164.673 117.415 164.203 115.794C164.055 115.282 163.908 114.771 163.762 114.261C163.566 113.59 163.373 112.917 163.16 112.25C163.189 112.223 163.215 112.197 163.244 112.165C163.67 111.677 163.666 110.93 163.971 110.347C164.121 110.046 164.348 109.8 164.508 109.507C164.81 108.874 164.888 108.155 164.728 107.471C164.6 106.788 164.343 106.139 164.15 105.472C163.624 103.644 163.584 101.708 164.034 99.8589C164.23 99.0705 164.518 98.2968 164.559 97.4841C164.573 96.9407 164.523 96.3976 164.411 95.8659C164.036 93.8157 163.3 91.7363 161.807 90.3817C161.01 89.6495 159.933 89.0076 159.849 87.8947C159.72 87.8447 159.579 87.8395 159.447 87.88C159.379 87.6268 159.333 87.3678 159.311 87.1063H159.323C159.397 87.1147 159.472 87.1147 159.546 87.1063C159.609 87.1022 159.67 87.0847 159.725 87.0551C159.757 87.0363 159.786 87.0142 159.812 86.9892C159.907 86.8918 159.988 86.7827 160.054 86.6645C160.154 86.4986 160.243 86.3204 160.318 86.1984C160.393 86.0763 160.514 85.8811 160.609 85.7102C160.891 85.2221 161.153 84.7258 161.395 84.2214V84.2019C161.42 84.1555 161.441 84.1067 161.463 84.0603L161.492 83.9944L161.536 83.8944C161.536 83.87 161.557 83.8431 161.567 83.8187C161.577 83.7943 161.594 83.7577 161.606 83.726L161.64 83.6454C161.652 83.6161 161.662 83.5868 161.674 83.5551C161.686 83.528 161.696 83.5003 161.705 83.4721C161.717 83.4428 161.727 83.4136 161.737 83.3843C161.746 83.355 161.756 83.3281 161.768 83.2988C161.78 83.2696 161.785 83.2403 161.795 83.211L161.824 83.1231C161.824 83.0938 161.838 83.067 161.848 83.0377L161.872 82.9474L161.894 82.862L161.916 82.7692C161.916 82.7424 161.916 82.7155 161.933 82.6862C161.95 82.6569 161.933 82.6228 161.95 82.591C161.967 82.5593 161.95 82.5373 161.95 82.5105L161.964 82.4153V82.3348C161.964 82.3006 161.964 82.2689 161.964 82.2371C161.964 82.2054 161.964 82.1835 161.964 82.1566C161.964 82.1298 161.964 82.0907 161.964 82.059V82.0028C161.964 81.9687 161.964 81.9369 161.964 81.9028C161.964 81.8686 161.964 81.854 161.964 81.8296C161.964 81.8051 161.964 81.7612 161.964 81.727C161.964 81.6929 161.964 81.6807 161.964 81.6587C161.953 81.5631 161.934 81.4684 161.908 81.3756C161.745 80.8071 161.414 80.3023 160.96 79.9283C160.52 79.5661 160.031 79.2694 159.507 79.0472C159.38 78.9977 159.263 78.924 159.164 78.8299C159.047 78.6594 158.951 78.476 158.876 78.2832C158.663 77.9074 158.237 77.739 157.837 77.6389C157.438 77.5388 157.01 77.4754 156.676 77.2191C156.646 77.1932 156.611 77.1733 156.574 77.1605C156.523 77.1564 156.471 77.1674 156.426 77.1923L155.494 77.6096C155.485 77.5513 155.464 77.4954 155.433 77.4452C155.402 77.3951 155.362 77.3516 155.314 77.3173C155.266 77.283 155.212 77.2586 155.155 77.2456C155.098 77.2325 155.039 77.2309 154.981 77.2411C154.752 77.2972 154.543 77.4183 154.379 77.5901C154.35 77.5611 154.33 77.525 154.32 77.4855C154.311 77.446 154.311 77.4046 154.323 77.3655L153.597 77.8537C153.507 77.9123 153.343 77.9269 153.355 77.8146C152.951 78.2595 152.601 78.7511 152.312 79.279C152.221 79.4404 152.145 79.6094 152.084 79.7843C152.084 79.8209 152.062 79.8575 152.053 79.8941C152.052 79.9014 152.052 79.9088 152.053 79.9161C152.053 79.9478 152.038 79.9819 152.033 80.0161C152.032 80.0258 152.032 80.0357 152.033 80.0454C152.033 80.0869 152.033 80.1308 152.033 80.1723C152.031 80.2195 152.031 80.2667 152.033 80.3139C152.041 80.4495 152.084 80.5808 152.157 80.6947C152.23 80.8086 152.332 80.9011 152.452 80.9631C152.545 80.9979 152.644 81.0136 152.743 81.0095C152.951 80.9846 153.156 80.9421 153.357 80.8826C153.423 80.8664 153.489 80.855 153.556 80.8484C153.587 80.846 153.619 80.846 153.65 80.8484C153.777 80.8454 153.9 80.8878 153.999 80.968L154.013 80.9826C153.485 81.3662 153.055 81.872 152.76 82.4576C152.465 83.0432 152.314 83.6916 152.319 84.3483C152.318 84.9945 152.464 85.6324 152.745 86.213C152.648 86.267 152.568 86.3474 152.515 86.4449C152.461 86.5425 152.436 86.6533 152.442 86.7646C152.379 86.5775 152.346 86.3814 152.343 86.1837C151.946 86.1032 151.658 86.5718 151.515 86.9745C151.222 87.8848 150.994 88.8156 150.835 89.7593C150.712 90.3866 150.593 91.0138 150.467 91.6411C150.342 92.2684 150.225 92.942 150.133 93.5936C149.92 95.2856 149.996 97.0019 150.358 98.6678C150.334 98.7215 150.312 98.7777 150.291 98.8314C150.218 99.0266 150.012 99.1926 149.988 99.4C149.857 100.642 150.637 101.763 151.373 102.736C151.433 102.836 151.516 102.92 151.615 102.981C151.722 103.026 151.84 103.041 151.956 103.024C152.249 103.01 152.542 102.981 152.832 102.937C152.849 103.103 152.868 103.266 152.888 103.425C153.096 105.177 153.452 106.93 153.449 108.694C153.447 110.459 153.115 112.248 153.786 113.82C153.897 114.088 154.112 114.308 154.134 114.586H154.175C153.765 115.428 153.43 116.305 153.173 117.207C152.907 118.267 152.851 119.379 152.554 120.429C152.3 121.32 151.876 122.137 151.535 123.006C150.979 124.418 150.652 125.91 150.567 127.426C150.557 128.123 150.418 128.811 150.155 129.455C149.764 130.227 149.421 131.023 149.129 131.839C148.645 133.289 147.829 134.663 147.677 136.198C147.592 137.067 147.715 137.995 147.355 138.78C147.214 139.088 147.006 139.354 146.842 139.644C146.601 140.11 146.414 140.601 146.283 141.109L143.886 149.122C143.796 149.562 143.594 149.971 143.301 150.31C143.078 150.525 142.785 150.642 142.575 150.864C142.236 151.211 142.151 151.719 142.149 152.236C141.892 152.283 141.643 152.365 141.408 152.48C140.395 152.917 139.304 153.142 138.202 153.142C137.1 153.142 136.01 152.917 134.996 152.48C134.609 152.312 134.169 152.111 133.786 152.304C133.338 152.539 133.266 153.22 133.508 153.681ZM152.597 92.9859C152.741 92.3225 153.01 91.6935 153.391 91.1334C153.933 90.2328 154.505 89.342 155.023 88.4218L155.17 88.2778C155.211 88.395 155.25 88.5219 155.286 88.6317C155.376 88.9446 155.448 89.2624 155.502 89.5836C155.578 89.9855 155.601 90.3959 155.57 90.8039L155.536 90.8308C155.34 90.9577 155.182 91.1357 155.078 91.3458C155.01 91.5551 155.01 91.7808 155.078 91.9901L155.056 92.0145L155.081 91.9974C155.165 92.3343 155.323 92.6808 155.272 93.0225C155.216 93.435 154.887 93.7352 154.681 94.0891C154.197 94.9409 154.352 96.2345 153.556 96.7568L153.541 96.7909C153.37 96.7503 153.211 96.6706 153.075 96.558C152.94 96.4455 152.832 96.303 152.759 96.1417C152.822 95.0995 152.435 94.0305 152.597 92.9859Z" fill="url(#paint0_linear)"/>
<path d="M172.454 158.938C172.479 159.15 172.425 159.363 172.301 159.536C172.173 159.66 172.011 159.745 171.837 159.78C168.342 160.745 164.765 161.376 161.153 161.664C160.635 161.703 160.088 161.733 159.631 161.491C159.173 161.249 158.868 160.632 159.147 160.185C159.372 159.809 159.873 159.722 160.292 159.641C162.558 159.195 164.567 157.884 165.897 155.98C166.056 155.707 166.263 155.466 166.507 155.267C166.972 154.948 167.589 155.023 168.138 155.133C169.107 155.333 170.392 155.57 171.265 156.048C172.139 156.527 172.439 158.003 172.454 158.938Z" fill="#3F3D56"/>
<path opacity="0.1" d="M172.454 158.938C172.479 159.15 172.425 159.363 172.301 159.536C172.173 159.66 172.011 159.745 171.837 159.78C168.342 160.745 164.765 161.376 161.153 161.664C160.635 161.703 160.088 161.733 159.631 161.491C159.173 161.249 158.868 160.632 159.147 160.185C159.372 159.809 159.873 159.722 160.292 159.641C162.558 159.195 164.567 157.884 165.897 155.98C166.056 155.707 166.263 155.466 166.507 155.267C166.972 154.948 167.589 155.023 168.138 155.133C169.107 155.333 170.392 155.57 171.265 156.048C172.139 156.527 172.439 158.003 172.454 158.938Z" fill="black"/>
<path d="M144.327 158.701C144.232 158.893 144.071 159.042 143.874 159.121C143.7 159.151 143.521 159.129 143.359 159.06C139.907 157.949 136.567 156.513 133.382 154.772C132.927 154.528 132.453 154.245 132.198 153.796C131.944 153.346 132.022 152.656 132.489 152.429C132.881 152.238 133.341 152.429 133.743 152.602C135.885 153.473 138.28 153.473 140.423 152.602C140.704 152.46 141.008 152.371 141.321 152.338C141.88 152.326 142.361 152.724 142.773 153.122C143.48 153.822 144.426 154.728 144.9 155.606C145.375 156.485 144.818 157.908 144.327 158.701Z" fill="#3F3D56"/>
<path opacity="0.1" d="M144.327 158.701C144.232 158.893 144.071 159.042 143.874 159.121C143.7 159.151 143.521 159.129 143.359 159.06C139.907 157.949 136.567 156.513 133.382 154.772C132.927 154.528 132.453 154.245 132.198 153.796C131.944 153.346 132.022 152.656 132.489 152.429C132.881 152.238 133.341 152.429 133.743 152.602C135.885 153.473 138.28 153.473 140.423 152.602C140.704 152.46 141.008 152.371 141.321 152.338C141.88 152.326 142.361 152.724 142.773 153.122C143.48 153.822 144.426 154.728 144.9 155.606C145.375 156.485 144.818 157.908 144.327 158.701Z" fill="black"/>
<path d="M162.775 111.962C163.136 112.938 163.438 113.915 163.743 114.891L164.203 116.404C164.687 118.003 165.171 119.726 164.67 121.32C164.537 121.732 164.341 122.12 164.186 122.54C163.673 123.97 163.792 125.559 164.135 127.041C164.479 128.522 165.036 129.945 165.389 131.434C165.817 133.23 165.941 135.095 166.062 136.928C166.122 137.833 166.403 138.749 166.519 139.649C166.936 142.922 168.661 145.856 169.731 148.975C170.285 150.593 170.668 152.275 171.372 153.835C171.774 154.728 172.294 155.653 172.154 156.622C170.186 157.325 168.005 157.313 166.151 156.348C166.035 156.306 165.933 156.229 165.861 156.128C165.788 156.026 165.748 155.905 165.745 155.78C165.575 154.814 165.51 153.831 165.551 152.851C165.598 152.293 165.611 151.732 165.592 151.172C165.445 149.09 163.976 147.355 163.38 145.353C163.138 144.501 163.027 143.591 162.61 142.805C162.155 141.946 161.337 141.26 161.158 140.303C161.119 140.089 161.115 139.869 161.064 139.657C160.964 139.35 160.82 139.059 160.635 138.795L159.648 137.162C158.837 135.839 158.956 134.033 158.3 132.627C158.126 132.254 157.939 131.895 157.767 131.514C157.436 130.792 157.15 130.048 156.913 129.289C155.406 131.533 154.071 133.89 152.919 136.34C152.586 137.008 152.287 137.693 152.024 138.392C151.733 139.193 151.54 140.023 151.324 140.848C150.671 143.398 149.872 145.91 149.095 148.414C148.906 149.019 148.705 149.634 148.292 150.122C148.025 150.425 147.672 150.674 147.536 151.057C147.472 151.344 147.443 151.637 147.449 151.931C147.372 152.758 146.803 153.439 146.331 154.127C146.06 154.497 145.852 154.909 145.716 155.348C145.661 155.544 145.564 155.726 145.432 155.882C145.301 156.038 145.138 156.163 144.955 156.25C144.771 156.336 144.571 156.382 144.369 156.385C144.166 156.387 143.965 156.346 143.78 156.263H143.761C143.569 156.167 143.384 156.056 143.209 155.931C142.751 155.641 142.316 155.315 141.909 154.955C141.549 154.604 141.225 154.218 140.941 153.803C140.892 153.732 140.86 153.651 140.848 153.565C140.836 153.48 140.843 153.393 140.87 153.311C140.897 153.229 140.942 153.155 141.002 153.094C141.062 153.032 141.136 152.986 141.217 152.958C141.166 152.28 141.151 151.506 141.636 151.038C141.861 150.818 142.166 150.701 142.398 150.491C142.7 150.162 142.911 149.757 143.008 149.319C143.834 146.696 144.659 144.073 145.482 141.451C145.619 140.946 145.815 140.459 146.065 140.001C146.237 139.713 146.452 139.452 146.6 139.149C146.975 138.373 146.842 137.46 146.934 136.601C147.091 135.085 147.933 133.733 148.444 132.303C148.75 131.495 149.107 130.708 149.514 129.948C149.787 129.317 149.933 128.637 149.942 127.949C150.032 126.448 150.372 124.973 150.949 123.587C151.302 122.738 151.745 121.925 152.009 121.044C152.321 120.009 152.377 118.911 152.658 117.871C152.927 116.975 153.278 116.106 153.706 115.274C154.057 114.542 154.418 113.793 154.996 113.224C155.945 112.292 157.341 111.987 158.665 111.945C159.989 111.904 161.456 112.101 162.775 111.962Z" fill="#3F3D56"/>
<path d="M154.65 92.9542C156.354 91.9389 158.039 90.8911 159.706 89.8106C159.307 89.2683 159.086 88.6138 159.074 87.9386C159.074 87.9118 159.074 87.885 159.074 87.8581C159.05 87.2016 159.297 86.6378 158.476 86.7232C157.688 86.8257 156.909 86.9889 156.146 87.2113C155.928 87.2675 154.04 87.9679 153.967 87.8972C154.388 88.4005 154.699 88.9876 154.88 89.6203C154.973 89.9289 155.048 90.2426 155.105 90.5599C155.269 91.3995 155.277 92.3856 154.65 92.9542Z" fill="#A0616A"/>
<path d="M152.362 104.213C152.58 105.941 152.951 107.671 152.948 109.409C152.946 111.147 152.6 112.916 153.299 114.474C153.415 114.737 153.638 114.942 153.662 115.23C154.63 115.399 155.574 114.942 156.496 114.613C157.342 114.314 158.219 114.116 159.11 114.022C159.837 113.949 160.582 113.944 161.303 113.805C162.022 113.691 162.686 113.349 163.198 112.829C163.641 112.34 163.637 111.608 163.946 111.035C164.104 110.739 164.341 110.498 164.508 110.207C164.82 109.587 164.901 108.874 164.735 108.199C164.568 107.531 164.366 106.873 164.133 106.226C163.584 104.428 163.542 102.512 164.012 100.691C164.215 99.9124 164.51 99.1485 164.559 98.3455C164.573 97.8092 164.522 97.273 164.406 96.7493C164.014 94.7284 163.247 92.6758 161.693 91.3408C160.863 90.6256 159.74 89.9837 159.653 88.9001C159.294 88.7585 158.91 89.0001 158.602 89.2296L155.151 91.7947C154.946 91.9166 154.778 92.0931 154.667 92.3048C154.451 92.8247 154.947 93.3958 154.868 93.9572C154.809 94.3648 154.466 94.6601 154.253 95.0115C153.745 95.8487 153.909 97.1252 153.079 97.6402C153.004 97.7964 152.934 97.9574 152.871 98.1283C152.574 98.9813 152.375 99.8657 152.278 100.764C152.162 101.913 152.19 103.072 152.362 104.213Z" fill="#3F3D56"/>
<path opacity="0.1" d="M153.977 87.902C154.398 88.4054 154.709 88.9925 154.889 89.6252C155.164 89.6871 155.445 89.7182 155.727 89.7179C157.135 89.7179 158.079 88.09 158.779 86.9722C158.757 86.3156 159.297 86.6427 158.476 86.7281C157.688 86.8306 156.909 86.9938 156.146 87.2162C155.928 87.2724 154.04 87.9728 153.977 87.902Z" fill="black"/>
<path d="M155.727 89.3834C157.914 89.3834 159.686 87.5957 159.686 85.3904C159.686 83.1852 157.914 81.3975 155.727 81.3975C153.54 81.3975 151.767 83.1852 151.767 85.3904C151.767 87.5957 153.54 89.3834 155.727 89.3834Z" fill="#A0616A"/>
<path d="M152.698 88.2178L153.613 89.2291C153.913 89.5606 154.423 89.584 154.752 89.2814L157.826 86.4513C158.155 86.1486 158.178 85.6346 157.878 85.3031L156.963 84.2918C156.663 83.9603 156.153 83.9368 155.824 84.2394L152.75 87.0696C152.421 87.3722 152.398 87.8863 152.698 88.2178Z" fill="#3F3D56"/>
<path opacity="0.1" d="M152.698 88.2178L153.613 89.2291C153.913 89.5606 154.423 89.584 154.752 89.2814L157.826 86.4513C158.155 86.1486 158.178 85.6346 157.878 85.3031L156.963 84.2918C156.663 83.9603 156.153 83.9368 155.824 84.2394L152.75 87.0696C152.421 87.3722 152.398 87.8863 152.698 88.2178Z" fill="black"/>
<path d="M155.974 86.4717C156.155 86.4717 156.303 86.3231 156.303 86.1398C156.303 85.9565 156.155 85.8079 155.974 85.8079C155.792 85.8079 155.644 85.9565 155.644 86.1398C155.644 86.3231 155.792 86.4717 155.974 86.4717Z" fill="white"/>
<path opacity="0.1" d="M152.363 104.213C155.417 103.759 158.191 101.909 160.313 99.6147C160.71 99.2373 161.017 98.7742 161.211 98.2602C161.318 97.8305 161.355 97.3862 161.32 96.9446L161.269 95.1825C161.248 94.4112 161.216 93.6106 160.846 92.937C160.476 92.2634 159.65 91.7777 158.939 92.0584C157.068 92.7906 155.85 94.4649 154.78 96.1783C154.474 96.7122 154.141 97.2296 153.781 97.7281C153.599 97.96 153.352 98.1967 153.055 98.165C152.992 98.1594 152.93 98.1429 152.873 98.1162C152.577 98.9692 152.378 99.8536 152.28 100.752C152.163 101.905 152.19 103.068 152.363 104.213Z" fill="black"/>
<path d="M152.089 93.923C152.241 93.2632 152.522 92.6407 152.917 92.0925C154.1 90.2254 155.431 88.4022 156.063 86.2764C155.141 86.4448 154.996 88.0459 154.061 88.1166L154.134 86.9622C154.134 86.7669 154.134 86.5302 153.977 86.4277C153.819 86.3252 153.539 86.4594 153.435 86.6522C153.331 86.845 153.309 87.0793 153.212 87.277C153.115 87.4747 152.888 87.6505 152.687 87.5626L152.604 87.1794C152.518 87.1612 152.429 87.163 152.343 87.1848C152.258 87.2066 152.178 87.2478 152.111 87.3052C152.043 87.3626 151.99 87.4347 151.954 87.5161C151.918 87.5975 151.902 87.686 151.905 87.7749C151.839 87.5909 151.804 87.3971 151.801 87.2014C151.387 87.1233 151.087 87.5846 150.939 87.9824C150.633 88.878 150.395 89.7959 150.228 90.7282L149.848 92.5855C149.715 93.2274 149.584 93.8693 149.497 94.5161C149.269 96.2329 149.359 97.9775 149.763 99.6611C150.27 99.3775 150.762 99.0671 151.237 98.7312C151.602 98.4188 152.011 98.0649 152.149 97.5889C152.491 96.3881 151.888 95.1312 152.089 93.923Z" fill="#A0616A"/>
<path d="M158.939 91.5606C159.65 91.2799 160.476 91.7656 160.846 92.4392C161.216 93.1129 161.248 93.9036 161.269 94.6847L161.318 96.4517C161.354 96.8931 161.318 97.3376 161.211 97.7672C161.017 98.2804 160.711 98.7431 160.316 99.1218C157.968 101.658 154.829 103.647 151.392 103.815C151.272 103.831 151.149 103.816 151.036 103.771C150.938 103.709 150.856 103.626 150.794 103.527C150.027 102.566 149.216 101.46 149.342 100.235C149.364 100.03 149.584 99.8638 149.656 99.6734C150.118 98.564 150.963 97.6617 152.036 97.1351L152.244 97.0375C152.324 97.1991 152.439 97.3407 152.58 97.4521C152.721 97.5635 152.885 97.642 153.06 97.6818C153.35 97.7111 153.599 97.4768 153.786 97.2449C154.146 96.7456 154.479 96.2274 154.785 95.6927C155.85 93.9622 157.07 92.2952 158.939 91.5606Z" fill="#3F3D56"/>
<path d="M158.694 88.0021C158.358 87.8263 158.305 87.3748 158.271 86.9941C158.233 86.5507 158.166 86.1104 158.07 85.6761C157.966 85.188 157.794 84.6852 157.382 84.4265C157.238 84.3363 157.073 84.2846 156.904 84.2762C156.734 84.2677 156.565 84.3028 156.412 84.3782C156.26 84.4535 156.129 84.5666 156.031 84.707C155.934 84.8473 155.873 85.0103 155.855 85.1806C155.86 85.262 155.836 85.3424 155.787 85.4076C155.755 85.4383 155.715 85.4595 155.671 85.4686C155.481 85.5125 155.282 85.4833 155.112 85.3867C154.943 85.2901 154.815 85.133 154.754 84.9463C154.684 84.7023 154.737 84.3874 154.565 84.1873C154.393 83.9871 154.19 83.992 154.023 83.8602C153.922 83.7593 153.845 83.6366 153.797 83.5014C153.75 83.3661 153.734 83.2218 153.749 83.0792C153.749 82.7155 153.798 82.2811 153.507 82.0566C153.069 81.7124 152.411 82.2591 151.895 82.0566C151.753 81.9865 151.634 81.8748 151.555 81.736C151.476 81.5972 151.44 81.4376 151.453 81.278C151.482 80.9585 151.59 80.6515 151.767 80.3847C152.07 79.8613 152.435 79.377 152.854 78.9422C152.854 79.0496 153.021 79.0374 153.113 78.9788L153.878 78.5102C153.865 78.5491 153.864 78.591 153.875 78.6305C153.885 78.6701 153.908 78.7055 153.938 78.7323C154.112 78.5624 154.329 78.4441 154.565 78.3906C154.684 78.3683 154.806 78.394 154.906 78.462C155.006 78.53 155.076 78.635 155.1 78.7543L156.068 78.3321C156.107 78.3048 156.155 78.2925 156.203 78.2974C156.25 78.3024 156.294 78.3242 156.327 78.3589C156.676 78.603 157.121 78.6738 157.537 78.7714C157.954 78.869 158.397 79.0374 158.619 79.4084C158.699 79.5987 158.8 79.779 158.922 79.9454C159.029 80.0404 159.153 80.1141 159.287 80.1626C159.833 80.3789 160.346 80.6705 160.812 81.029C161.28 81.392 161.625 81.8914 161.802 82.4593C162.063 83.4087 161.686 84.4118 161.248 85.288C160.914 85.9576 160.539 86.6056 160.125 87.2284C159.97 87.4724 159.757 87.9337 159.508 88.0753C159.237 88.1514 158.948 88.1253 158.694 88.0021Z" fill="#3F3D56"/>
<path opacity="0.1" d="M151.903 81.0607C152.418 81.2608 153.076 80.7141 153.514 81.0607C153.798 81.2853 153.757 81.7197 153.757 82.0833C153.741 82.2259 153.757 82.3702 153.804 82.5055C153.852 82.6408 153.929 82.7635 154.03 82.8644C154.197 82.9962 154.434 83.0279 154.572 83.1914C154.71 83.3549 154.691 83.6966 154.761 83.9505C154.822 84.1372 154.95 84.2942 155.119 84.3908C155.289 84.4874 155.488 84.5167 155.678 84.4728C155.722 84.4636 155.762 84.4425 155.794 84.4118C155.843 84.3466 155.867 84.2661 155.862 84.1848C155.88 84.0144 155.941 83.8515 156.038 83.7111C156.136 83.5708 156.267 83.4577 156.419 83.3823C156.572 83.307 156.741 83.2719 156.911 83.2803C157.08 83.2888 157.245 83.3405 157.389 83.4306C157.801 83.6893 157.973 84.2019 158.077 84.6802C158.173 85.1146 158.24 85.5549 158.278 85.9982C158.312 86.379 158.365 86.8305 158.701 87.0062C158.959 87.1331 159.254 87.1592 159.529 87.0794C159.771 86.9379 159.991 86.4693 160.146 86.2325C160.561 85.6058 160.936 84.9537 161.269 84.28C161.547 83.7591 161.748 83.1999 161.865 82.6203C162.039 83.5185 161.681 84.4508 161.269 85.2782C160.935 85.9478 160.56 86.5958 160.146 87.2186C159.991 87.4626 159.778 87.9239 159.529 88.0655C159.254 88.1453 158.959 88.1192 158.701 87.9922C158.365 87.8165 158.312 87.365 158.278 86.9842C158.24 86.5409 158.173 86.1006 158.077 85.6663C157.973 85.1781 157.801 84.6754 157.389 84.4167C157.245 84.3265 157.08 84.2748 156.911 84.2664C156.741 84.2579 156.572 84.293 156.419 84.3684C156.267 84.4437 156.136 84.5568 156.038 84.6972C155.941 84.8375 155.88 85.0005 155.862 85.1708C155.867 85.2522 155.843 85.3326 155.794 85.3978C155.762 85.4285 155.722 85.4496 155.678 85.4588C155.488 85.5027 155.289 85.4735 155.119 85.3769C154.95 85.2802 154.822 85.1232 154.761 84.9365C154.691 84.6924 154.744 84.3776 154.572 84.1775C154.4 83.9773 154.197 83.9822 154.03 83.8504C153.929 83.7495 153.852 83.6268 153.804 83.4916C153.757 83.3563 153.741 83.2119 153.757 83.0694C153.757 82.7057 153.805 82.2713 153.514 82.0467C153.076 81.7026 152.418 82.2493 151.903 82.0467C151.76 81.9767 151.641 81.865 151.562 81.7262C151.483 81.5873 151.447 81.4278 151.46 81.2682C151.468 81.092 151.509 80.919 151.581 80.7581C151.65 80.8933 151.764 81.0002 151.903 81.0607Z" fill="black"/>
<defs>
<linearGradient id="paint0_linear" x1="152.757" y1="161.681" x2="152.757" y2="77.1556" gradientUnits="userSpaceOnUse">
<stop stop-color="#808080" stop-opacity="0.25"/>
<stop offset="0.54" stop-color="#808080" stop-opacity="0.12"/>
<stop offset="1" stop-color="#808080" stop-opacity="0.1"/>
</linearGradient>
</defs>
</svg>
