<svg width="240" height="157" viewBox="0 0 240 157" fill="none" xmlns="http://www.w3.org/2000/svg">
<path d="M96.4917 54.7057C95.6502 55.4427 93.3613 52.8632 93.0583 52.5282C93.0583 52.4947 93.0247 52.4947 93.0247 52.4947L93.6979 50.5852C93.6979 50.5852 96.66 50.4847 97.165 50.9537C97.6699 51.4562 97.4342 53.9017 96.4917 54.7057Z" fill="#ED985F"/>
<path d="M115.861 40.7325L115.614 42.3584C115.614 42.3584 115.504 42.3584 115.312 42.3584C114.737 42.3308 113.284 42.2482 111.667 42.0553C109.227 41.8072 106.349 41.3939 105.198 40.6774C103.444 39.6026 100.566 36.3232 98.7022 33.0162C98.6474 32.9336 98.62 32.8509 98.5652 32.7682C97.5784 31.0321 96.9206 29.2959 96.8658 27.8904C96.8384 27.0361 96.9206 26.3196 97.0851 25.6858C97.3043 24.8591 97.6881 24.1977 98.0718 23.7016C98.1266 23.6189 98.1814 23.5363 98.2637 23.4812C98.8941 22.7095 99.5245 22.4064 99.5245 22.4064C99.8534 22.2686 100.182 22.4339 100.566 22.8198C100.868 23.1229 101.169 23.5914 101.498 24.1977L101.525 24.2252C101.58 24.3355 101.662 24.4732 101.745 24.6386C101.772 24.6661 101.772 24.6937 101.8 24.7213C101.937 25.0244 102.101 25.3551 102.238 25.6858C103.883 29.2959 105.637 34.7524 107.09 36.3783C107.72 37.0673 110.598 38.4452 112.873 39.4648C114.545 40.1813 115.861 40.7325 115.861 40.7325Z" fill="#ED985F"/>
<path d="M155.519 102.249C194.816 102.249 226.673 100.041 226.673 97.3182C226.673 94.5949 194.816 92.3872 155.519 92.3872C116.221 92.3872 84.3645 94.5949 84.3645 97.3182C84.3645 100.041 116.221 102.249 155.519 102.249Z" fill="#F5E9E1"/>
<path d="M163.611 90.3326L159.455 90.1409C159.455 90.1409 158.932 96.8251 157.556 97.5921C156.179 98.3318 154.858 99.2632 153.454 99.181C152.051 99.0988 152.876 101.263 152.876 101.263L160.666 100.879L161.244 100.058L161.712 100.879L163.254 100.852L163.584 98.6605L163.611 90.3326Z" fill="#233824"/>
<path d="M148.197 47.7618C148.197 47.7618 144.343 45.0224 143.573 45.2964C142.83 45.5703 145.555 47.4331 145.224 47.7618C144.894 48.0906 138.591 45.899 138.012 46.5291C137.407 47.1592 143.628 48.1454 143.105 48.7206C142.554 49.2959 136.967 47.5701 136.967 48.7206C136.967 49.8712 143.463 49.9534 142.885 50.5561C142.307 51.1587 136.196 51.1039 136.967 51.9258C137.737 52.7476 144.013 51.4875 143.022 52.501C142.031 53.5146 139.719 54.1447 140.462 54.9117C141.205 55.7062 149.298 52.2271 149.298 52.2271L148.197 47.7618Z" fill="#1B1464"/>
<path d="M136.966 48.7207C136.966 49.159 137.875 49.4329 138.976 49.6521C139.086 49.2412 139.223 48.8302 139.389 48.4467C138.095 48.255 136.966 48.2002 136.966 48.7207Z" fill="#FC7575"/>
<path d="M136.966 51.9258C137.159 52.1449 137.737 52.1997 138.48 52.2271C138.508 51.8984 138.563 51.597 138.618 51.2683C137.462 51.4053 136.636 51.597 136.966 51.9258Z" fill="#FC7575"/>
<path d="M142.031 53.2407C141.013 53.8434 139.939 54.3365 140.49 54.9118C140.737 55.1857 141.893 54.9392 143.242 54.5283C142.912 53.953 142.554 53.4599 142.031 53.2407Z" fill="#FC7575"/>
<path d="M143.573 45.2964C143.132 45.4607 143.903 46.173 144.536 46.8031C144.949 46.5839 145.279 46.3374 145.61 46.1182C144.729 45.5977 143.875 45.1868 143.573 45.2964Z" fill="#FC7575"/>
<path d="M138.012 46.5291C137.765 46.7757 138.673 47.1044 139.801 47.4331C139.912 47.1592 140.022 46.9126 140.159 46.6661C139.086 46.4195 138.205 46.31 138.012 46.5291Z" fill="#FC7575"/>
<path d="M146.821 49.5426C146.821 49.8713 146.545 50.1453 146.215 50.1453C145.885 50.1453 145.61 49.8713 145.61 49.5426C145.61 49.2139 145.885 48.9399 146.215 48.9399C146.573 48.9399 146.821 49.2139 146.821 49.5426Z" fill="#FC7575"/>
<path d="M121.139 34.6401H106.248V49.4604H121.139V34.6401Z" fill="#BDBDBD"/>
<path d="M127.057 19.3816H112.826V34.6402H127.057V19.3816Z" fill="#FBB03B"/>
<path d="M108.796 34.6208H112.815V19.3622H108.796V34.6208Z" fill="#FFE696"/>
<path d="M125.351 34.6401H121.167V49.4604H125.351V34.6401Z" fill="#72797A"/>
<path d="M203.909 36.2014L196.56 75.1561H205.065L211.259 36.2014H203.909ZM204.46 74.4164H197.468L204.542 36.9411H210.405L204.46 74.4164Z" fill="#21420C"/>
<path d="M150.316 81.3199C150.316 81.3199 164.63 76.2794 176.328 78.5805L175.723 42.4748L154.555 40.5024L150.316 81.3199Z" fill="#653870"/>
<path d="M165.125 22.5593C165.125 22.5593 171.098 18.8336 178.42 20.8608C185.742 22.888 169.309 39.8998 169.309 39.8998L157.473 35.6811L159.813 26.7232L165.125 22.5593Z" fill="#552E5D"/>
<path d="M169.53 20.7236C169.53 20.7236 158.684 31.5718 154.776 43.05L147.536 46.0085L147.702 54.1172C147.702 54.1172 158.657 53.7611 159.015 53.7611C159.4 53.7885 169.53 20.7236 169.53 20.7236Z" fill="#9C5E2A"/>
<path d="M154.528 54.6926C154.528 54.6926 158.326 79.4296 158.326 85.0181C158.326 90.6065 157.803 98.4686 157.803 98.4686L163.061 99.1535C163.061 99.1535 167.823 72.8276 167.217 64.6093C166.612 56.391 167.933 52.7202 167.933 52.7202L154.528 54.6926Z" fill="#333333"/>
<path d="M175.805 93.4282L169.777 93.1543C169.777 93.1543 171.098 99.9207 169.722 100.688C168.346 101.427 167.025 102.359 165.621 102.277C164.217 102.194 165.043 104.359 165.043 104.359L172.833 103.975L173.411 103.153L173.879 103.975L175.42 103.948L175.75 101.756L175.805 93.4282Z" fill="#233824"/>
<path d="M160.859 51.6519V66.0612C160.859 66.0612 169.887 93.839 169.887 99.6466H176.108C176.108 99.6466 177.704 59.0209 177.704 55.4323C177.704 51.8436 160.859 51.6519 160.859 51.6519Z" fill="#535683"/>
<path d="M178.393 20.888C178.393 20.888 171.676 19.984 166.034 22.5864C160.391 25.1889 154.968 29.8459 152.243 56.0622L180.595 58.9934C180.595 58.966 187.118 28.6954 178.393 20.888Z" fill="#B07959"/>
<path d="M171.456 14.1492C171.456 14.1492 176.989 14.971 177.76 14.971C177.76 14.971 173.466 10.9989 167.107 9.10866C164.933 8.4512 164.079 8.28683 163.914 8.53338C163.639 8.99909 165.868 10.5606 165.868 10.5606L171.456 14.1492Z" fill="#4F5B0B"/>
<path d="M172.888 11.4096C173.163 9.68377 171.484 8.42363 169.75 8.20448C168.043 8.01272 166.392 7.76617 165.648 8.72497C163.859 10.9987 165.318 16.0118 165.318 16.0118C165.318 16.0118 166.144 18.3678 168.456 18.7239C170.025 18.943 172.365 14.6147 172.888 11.4096Z" fill="#F98A8A"/>
<path d="M173.796 16.4775C173.796 16.4775 173.025 25.2985 172.557 26.9148C172.062 28.531 167.575 27.4626 166.86 26.0381C166.144 24.6136 167.905 19.2991 167.905 19.2991L173.796 16.4775Z" fill="#EA7373"/>
<path d="M166.997 22.5591C167.355 20.888 167.878 19.2991 167.878 19.2991L173.768 16.4775C173.768 16.4775 173.576 18.7239 173.328 21.162C173.218 21.1072 173.163 21.025 173.08 20.9154C172.585 20.1484 172.227 17.7377 172.227 17.7377C172.227 17.7377 171.539 20.0388 171.346 21.3263C171.209 22.1482 169.64 22.4769 168.126 22.5317C167.933 22.1755 167.823 21.7372 167.768 21.3811C167.74 21.7646 167.768 22.1482 167.85 22.5317C167.548 22.5591 167.272 22.5591 166.997 22.5591Z" fill="#D86666"/>
<path d="M165.401 19.2719C165.208 19.5732 164.878 19.9567 164.547 20.1759C164.107 19.4636 163.942 18.587 164.052 17.8747C164.245 16.6146 165.125 16.0667 165.208 15.601C165.208 15.601 165.318 16.6968 166.749 17.1625C168.181 17.6008 169.557 16.6694 170.218 16.2037C170.878 15.738 171.676 15.2997 171.814 14.3957C171.952 13.4643 172.612 9.90301 172.612 9.90301C172.612 9.90301 172.86 9.30034 174.346 10.3687C175.833 11.4097 175.53 11.985 175.613 13.2451C175.695 14.5052 175.2 15.3545 176.136 15.8202C177.072 16.2859 177.952 17.9295 176.934 19.3814C175.915 20.8333 173.768 20.6964 173.245 19.9841C172.722 19.2719 172.337 17.0529 172.337 17.0529C172.337 17.0529 171.676 19.1349 171.484 20.3402C171.374 21.1073 169.777 21.3538 168.291 21.4086C168.098 21.0799 167.988 20.6964 167.905 20.3676C167.878 20.7237 167.905 21.0799 168.016 21.4086C167.245 21.4086 166.529 21.3538 166.061 21.299C165.621 21.2168 165.235 20.9977 164.933 20.6964C165.18 20.258 165.346 19.7649 165.401 19.2719Z" fill="#012540"/>
<path d="M174.512 10.314C175.888 11.1906 175.778 11.9303 175.833 13.0534C175.943 14.6697 175.448 15.1628 176.356 15.6285C178.393 16.8612 177.952 20.2033 175.2 20.5869C174.512 20.6416 173.713 20.5595 173.273 19.9842C173.796 20.4499 174.539 20.4499 175.172 20.3129C177.457 19.8198 177.815 17.0256 176.108 16.0668C174.897 15.5463 175.448 14.4779 175.392 13.0534C175.365 12.0124 175.64 11.492 174.374 10.5058C173.934 10.1496 173.025 9.46478 172.64 9.87569C172.943 9.38259 173.989 9.98527 174.512 10.314Z" fill="#777CAA"/>
<path d="M171.264 13.1903C171.264 13.1903 171.842 12.615 172.64 12.9437C173.438 13.2725 172.475 15.2997 171.732 15.1901C171.016 15.0805 171.264 13.1903 171.264 13.1903Z" fill="#F98A8A"/>
<path d="M171.924 13.4369C171.924 13.4369 172.502 13.0808 172.557 13.4917C172.612 13.9026 172.227 14.6697 171.842 14.6697C171.484 14.6423 171.924 13.4369 171.924 13.4369Z" fill="#D86666"/>
<path d="M167.135 9.1086C165.676 8.67029 164.685 8.45114 164.217 8.42374C164.96 8.34156 166.474 7.76628 167.135 7.10882C167.52 6.7253 168.181 6.09523 168.814 5.46516C169.887 4.42418 171.649 4.36939 172.722 5.43777L172.75 5.46516C173.218 5.93087 174.126 6.15002 175.062 6.2596C176.163 6.36917 176.824 7.57452 176.301 8.56072C175.888 9.35515 175.557 10.2318 175.557 10.8344C175.557 12.3685 177.787 14.9436 177.787 14.9436C177.787 14.9436 173.465 10.9988 167.135 9.1086Z" fill="#9DBA25"/>
<path d="M169.282 25.8191L165.373 75.6493L172.915 76.4163L170.218 25.8191H169.282Z" fill="#64132C"/>
<path d="M162.51 24.6138L154.528 62.4726L163.336 64.0341L165.346 25.8191L162.51 24.6138Z" fill="#64132C"/>
<path d="M178.393 20.8882C178.393 20.8882 170.273 18.6419 168.373 26.4218C166.474 34.2018 172.282 81.7582 172.282 81.7582L183.623 80.7173C183.623 80.7173 186.733 30.394 183.623 25.463C180.512 20.5047 178.393 20.8882 178.393 20.8882Z" fill="#F57408"/>
<path d="M182.274 59.5414C182.274 59.5414 183.347 74.8274 181.723 76.5258C180.099 78.2243 174.291 76.5258 174.291 76.5258V58.9387L182.274 59.5414Z" fill="#F58A31"/>
<path d="M162.235 25.8739C160.914 27.6546 159.455 30.1475 158.519 33.243C156.4 40.2285 152.243 81.3473 152.243 81.3473H150.316C150.316 81.3473 152.518 39.5985 155.822 32.1472C157.748 27.7642 159.125 26.778 161.877 24.7234C161.987 25.0795 162.125 25.4904 162.235 25.8739Z" fill="#F57408"/>
<path d="M189.332 88.8091H207.224V64.0173H189.332V88.8091Z" fill="#9E7D55"/>
<path d="M189.322 88.8091H201.158V64.0173H189.322V88.8091Z" fill="#C7B299"/>
<path d="M187.34 88.8127H202.948V70.5956H187.34V88.8127Z" fill="#603813"/>
<path d="M204.499 100.802H206.316V97.4868H204.499V100.802Z" fill="#4F6E9E"/>
<path d="M196.446 100.802H198.262V97.4868H196.446V100.802Z" fill="#4F6E9E"/>
<path d="M187.315 100.802H189.131V97.4868H187.315V100.802Z" fill="#4F6E9E"/>
<path d="M175.943 48.2277C175.943 48.2277 172.089 45.4882 171.319 45.7622C170.575 46.0361 173.3 47.8989 172.97 48.2277C172.64 48.5564 166.336 46.3649 165.758 46.9949C165.153 47.625 171.374 48.6112 170.851 49.1865C170.3 49.7617 164.712 48.0359 164.712 49.1865C164.712 50.337 171.208 50.4192 170.63 51.0219C170.052 51.6246 163.942 51.5698 164.712 52.3916C165.483 53.2134 171.759 51.9533 170.768 52.9669C169.777 53.9805 167.465 54.6105 168.208 55.3776C168.951 56.172 177.044 52.6929 177.044 52.6929L175.943 48.2277Z" fill="#1B1464"/>
<path d="M170.603 53.1311C169.557 54.0625 167.52 54.6378 168.208 55.3774C168.566 55.761 170.576 55.1583 172.585 54.446C172.034 53.9255 171.346 53.4872 170.603 53.1311Z" fill="#FC7575"/>
<path d="M165.758 46.995C165.345 47.4333 168.126 48.0359 169.75 48.5564C169.942 48.3099 170.025 48.0359 170.052 47.6798C168.208 47.1593 166.089 46.6388 165.758 46.995Z" fill="#FC7575"/>
<path d="M168.043 51.5149C166.254 51.7067 164.244 51.8984 164.712 52.3641C165.07 52.7476 166.667 52.6654 168.153 52.5833C168.153 52.2545 168.126 51.871 168.043 51.5149Z" fill="#FC7575"/>
<path d="M181.173 22.3401C181.173 22.3401 196.945 37.5439 194.248 47.1319C191.55 56.7199 175.695 54.1722 175.695 54.1722L175.09 46.9128C175.09 46.9128 184.311 44.913 184.311 43.0228C184.311 41.1326 177.512 26.1479 181.173 22.3401Z" fill="#C27535"/>
<path d="M182.632 50.1453H179.163V53.5969H182.632V50.1453Z" fill="#3F2424"/>
<path d="M193.027 41.8845L189.105 38.3188L185.522 42.2223L189.445 45.7879L193.027 41.8845Z" fill="#3F2424"/>
<path d="M200.028 53.5967C199.23 53.5967 189.953 53.9803 188.963 56.6101C187.999 59.24 189.486 64.4175 193.119 64.4175C196.752 64.4175 201.707 67.4856 203.909 67.4856C206.111 67.4856 212.222 62.2807 209.579 57.1854C206.909 52.0901 200.028 53.5967 200.028 53.5967Z" fill="#006837"/>
<path d="M209.58 57.1856C208.396 54.9119 206.387 53.953 204.515 53.5969C204.515 53.5969 197.771 55.0214 197.771 58.9662C197.771 62.6644 202.23 67.1297 203.689 67.4858C203.772 67.4858 203.854 67.4858 203.937 67.4858C204.102 67.4584 204.267 67.431 204.432 67.4036C206.91 66.7736 212.029 61.9522 209.58 57.1856Z" fill="#004022"/>
<path d="M196.918 70.5813H187.311V88.7985H196.918V70.5813Z" fill="#C69C6D"/>
<path d="M180.265 22.0935C179.384 26.1204 171.649 30.0926 166.667 30.0926C164.355 30.0926 163.006 28.038 162.235 25.8465C162.097 25.463 161.987 25.0795 161.877 24.6959C161.327 22.614 162.923 21.1895 163.309 20.2855C164.3 17.9022 163.226 21.2443 168.841 19.7376C174.484 18.1761 181.145 18.0939 180.265 22.0935Z" fill="#64132C"/>
<path d="M172.612 34.6674C172.612 35.5166 171.924 36.2015 171.071 36.2015C170.218 36.2015 169.53 35.5166 169.53 34.6674C169.53 33.8182 170.218 33.1333 171.071 33.1333C171.924 33.1333 172.612 33.8182 172.612 34.6674Z" fill="#3F2424"/>
<path d="M171.594 44.0088C172.445 44.0088 173.135 43.322 173.135 42.4748C173.135 41.6275 172.445 40.9407 171.594 40.9407C170.742 40.9407 170.052 41.6275 170.052 42.4748C170.052 43.322 170.742 44.0088 171.594 44.0088Z" fill="#3F2424"/>
<path d="M190.229 101.236C190.229 102.386 189.293 103.345 188.109 103.345C186.953 103.345 185.99 102.414 185.99 101.236C185.99 100.085 186.926 99.1262 188.109 99.1262C189.293 99.1536 190.229 100.085 190.229 101.236Z" fill="#012540"/>
<path d="M200.386 101.236C200.386 102.386 199.45 103.345 198.266 103.345C197.11 103.345 196.147 102.414 196.147 101.236C196.147 100.085 197.083 99.1262 198.266 99.1262C199.45 99.1536 200.386 100.085 200.386 101.236Z" fill="#012540"/>
<path d="M207.722 103.188C208.804 102.742 209.317 101.508 208.869 100.431C208.421 99.3552 207.182 98.8441 206.1 99.2899C205.019 99.7357 204.505 100.97 204.953 102.046C205.401 103.122 206.641 103.633 207.722 103.188Z" fill="#012540"/>
<path d="M190.917 91.3188L190.834 88.8259C189.898 63.5958 191.054 75.0466 191.853 65.2942C191.715 64.9929 191.302 63.6506 191.853 60.8838C192.486 57.706 197.881 53.6791 198.101 53.4873L198.404 53.8982C198.349 53.9256 192.954 58.0074 192.348 60.9659C192.128 62.0891 191.88 64.1437 192.348 65.1847C192.266 66.1161 191.935 70.0608 191.247 70.7457C190.752 71.6771 191.275 86.6344 191.412 91.2914L190.917 91.3188Z" fill="#012540"/>
<path d="M205.065 92.0035H204.542C204.377 80.1966 205.01 58.0072 203.799 53.9255C203.331 53.8159 200.992 53.8707 198.9 53.9803L198.872 53.4598C203.854 53.2132 204.074 53.4324 204.185 53.542C205.533 54.8843 204.928 82.8812 205.065 92.0035Z" fill="#012540"/>
<path d="M186.871 87.5385C192.403 82.7171 206.827 69.6774 207.047 67.2393C207.102 66.5271 212.442 65.9792 187.201 87.922C186.953 88.1412 186.595 87.7576 186.871 87.5385Z" fill="#012540"/>
<path d="M186.625 97.4871H207.214V88.8031H186.625V97.4871Z" fill="#754C24"/>
<path d="M201.571 97.4871H207.214V88.8031H201.571V97.4871Z" fill="#603813"/>
<path d="M198.762 53.0764C199.01 51.9807 199.45 49.6795 198.844 49.1043C198.679 48.9673 198.487 48.9125 198.266 48.9673C198.046 49.0221 197.881 49.1864 197.743 49.4056C197.275 50.2822 197.826 52.3094 198.074 53.1312C198.046 53.1586 198.019 53.186 197.991 53.186C197.083 52.5833 195.073 51.4876 193.89 52.6655C193.532 53.0216 193.559 53.2956 193.642 53.4599C193.89 53.953 195.073 54.09 196.284 54.09C196.835 54.09 197.358 54.0626 197.826 54.0352C197.936 54.2818 198.184 54.4735 198.487 54.4735C198.899 54.4735 199.23 54.1448 199.23 53.7339C199.202 53.4326 199.037 53.186 198.762 53.0764ZM198.211 49.6521C198.266 49.5152 198.349 49.4878 198.404 49.4878C198.431 49.4878 198.431 49.4878 198.459 49.4878C198.487 49.4878 198.487 49.4878 198.487 49.4878C198.734 49.7343 198.624 50.9945 198.376 52.3094C198.156 51.3506 197.936 50.1726 198.211 49.6521ZM194.11 53.2682C194.11 53.2408 194.137 53.186 194.248 53.049C194.523 52.7751 194.853 52.6655 195.238 52.6655C196.037 52.6655 196.973 53.1586 197.551 53.5421C195.789 53.6517 194.22 53.5147 194.11 53.2682Z" fill="#012540"/>
<path d="M95.7052 3.95858C95.7052 3.71203 95.5125 1.13697 91.5488 1C91.5488 1 93.5031 1.21915 93.8334 2.09577C93.8334 2.09577 92.5122 1.05479 91.4111 1.38352C90.3376 1.71225 89.7045 3.60246 89.677 4.23252C89.677 4.86259 90.2826 6.86237 90.9707 7.02674C91.2185 7.08153 91.5212 7.08153 91.7965 7.02674C91.6038 7.30068 91.4387 7.62941 91.2735 7.98554C89.677 11.2181 91.3286 14.3684 92.6498 14.0397C93.5031 13.8205 93.7508 15.2724 93.7508 15.2724L102.091 8.53342C102.119 8.50603 99.0633 2.17795 95.7052 3.95858Z" fill="#2C3A64"/>
<path d="M98.6229 99.2357L96.8612 99.8932C96.8612 99.8932 89.154 89.2642 88.2181 79.8954C88.0529 78.2243 88.108 76.608 88.4658 75.1014C88.4658 75.1014 88.3833 74.663 88.2456 73.9234C88.1906 73.5673 88.108 73.1564 88.0254 72.6633C87.7777 71.2388 87.4199 69.2938 87.0345 67.0474C86.1261 61.9247 84.9425 55.3775 84.0342 50.5835L84.5021 50.4191L89.677 48.7481L90.7505 45.3786L94.6041 44.365C94.6041 44.365 95.4574 46.036 96.2281 53.953C96.3657 54.994 96.5034 56.1445 96.5859 57.3773C96.8887 61.1577 96.9163 65.8695 96.2281 71.2388C96.063 72.6085 95.8152 74.033 95.54 75.4849C95.3473 76.5532 95.3198 78.0051 95.4023 79.6762C95.7877 87.3466 98.6229 99.2357 98.6229 99.2357Z" fill="#2B478B"/>
<path d="M96.5859 57.4049L88.218 73.951C88.163 73.5949 88.0804 73.1839 87.9978 72.6909C87.7501 71.2663 87.3923 69.3214 87.0069 67.075C86.0986 61.9523 84.9149 55.4051 84.0066 50.6111L84.4745 50.4467L89.6494 48.7757L90.7229 45.4062L94.5765 44.3926C94.5765 44.3926 95.4298 46.0636 96.2005 53.9806C96.3657 54.9942 96.5033 56.1447 96.5859 57.4049Z" fill="#233862"/>
<path d="M92.9252 46.5021L92.7325 44.8584C89.4845 45.7076 80.8138 42.4751 80.8138 42.4751C80.8138 42.4751 77.6759 45.2145 78.0888 51.8165C78.2815 55.0217 78.6668 68.6914 79.0522 72.7458C79.1898 74.1976 79.2999 75.266 79.355 75.6769C79.3825 75.8139 79.3274 75.9235 79.2724 76.0331C78.6943 76.9919 78.2264 77.9781 77.8686 78.9916C74.0975 88.9906 78.4466 101.291 78.4466 101.291L79.5752 100.825C79.5752 100.825 82.0525 87.1277 84.0619 81.0736C84.3922 80.06 84.7225 79.2382 85.0253 78.7451C85.9061 77.348 86.7044 75.0469 87.4476 72.3074C88.8514 67.1573 89.9524 60.4457 90.6956 55.2408C90.7782 55.2682 92.9252 46.5021 92.9252 46.5021Z" fill="#2B478B"/>
<path d="M99.1184 26.4767C98.1 26.9424 96.8613 27.2712 95.3749 27.3533C89.7872 27.6547 88.5485 22.8059 88.3008 19.5734C89.099 19.272 89.8147 19.2994 90.2001 19.3268C90.5854 19.3542 90.9983 19.3816 91.3561 19.4364C92.0443 19.0803 93.2554 17.3544 93.9711 14.478L94.2188 14.5876L98.2376 16.4778C98.2376 16.4778 97.7972 17.7927 97.4944 19.0255C97.2467 20.0117 97.0815 20.9431 97.2191 21.217C97.5495 21.354 97.7146 21.4362 97.7146 21.4362C97.7697 21.491 98.6505 23.7099 99.1184 26.4767Z" fill="#FFB27D"/>
<path d="M100.495 30.1201C100.44 30.2296 100.412 30.3392 100.357 30.4488C98.9533 33.4622 96.3384 46.0087 96.3384 46.0087C96.7237 48.2551 79.3274 45.5704 79.2724 43.5159C78.6668 41.3517 81.4469 37.8452 83.0159 36.092C83.2086 35.8728 83.4012 35.6263 83.5389 35.3798C83.9242 34.7497 84.172 34.0374 84.2545 33.2978C84.5573 30.394 84.4472 27.6546 84.4747 26.0109C84.7775 25.7918 85.0803 25.5726 85.3556 25.3808C85.7685 25.0795 86.1538 24.7782 86.4291 24.5042C86.7319 24.1755 86.9245 23.8742 86.9521 23.4906C86.9796 23.2167 86.9521 22.9428 86.9245 22.6414C86.9245 22.5044 86.897 22.3675 86.8695 22.2305C86.6493 20.8334 86.0712 19.5459 86.0712 19.5459C87.5576 18.9432 90.2276 19.2993 90.2276 19.2993C90.2276 19.2993 90.2276 19.4363 90.2276 19.6828C90.2276 20.6416 90.2276 23.1345 90.5304 23.6002C90.9158 24.1755 98.045 26.7506 98.4303 25.9561C98.7882 25.1617 97.7972 21.5183 97.7422 21.3813C100.137 22.3127 100.99 23.1071 100.99 23.1071C99.5314 24.0385 101.623 27.1889 100.495 30.1201Z" fill="#F99746"/>
<path d="M98.2375 16.4503C98.2375 16.4503 97.7971 17.7652 97.4943 18.9979C95.1546 18.3405 94.439 15.875 94.2188 14.5601L98.2375 16.4503Z" fill="#ED985F"/>
<path d="M98.733 17.8475C98.733 17.8475 93.1178 16.5599 93.9711 13.0809C94.8244 9.6018 94.6867 7.10893 98.3201 7.79378C101.954 8.47864 102.311 9.95793 102.311 11.1907C102.311 12.396 100.219 18.094 98.733 17.8475Z" fill="#FFB27D"/>
<path d="M102.642 9.19096C102.036 7.93083 101.32 7.98562 100.88 8.23217C98.2375 5.79408 95.6501 7.79386 95.6501 7.79386C94.6592 10.2046 92.4846 11.1634 92.4846 11.1634C92.4846 11.1634 93.3379 12.04 95.8428 12.0126C96.6135 12.0126 97.3842 11.6564 98.0724 11.1634C96.7236 12.5057 95.1271 13.3275 95.1271 13.3275C98.265 12.7248 100.357 9.10878 100.577 8.72526C100.852 9.10878 101.348 9.958 101.403 10.6429C101.458 11.6017 101.128 13.4371 101.678 13.5193C101.706 13.574 103.55 11.0812 102.642 9.19096Z" fill="#2C3A64"/>
<path d="M100.963 23.1072C100.963 23.1072 102.311 25.4631 102.532 26.0658C102.532 26.0658 100.77 26.011 100.054 27.3533C100.054 27.3533 99.8892 23.4359 100.963 23.1072Z" fill="#F99746"/>
<path d="M91.6589 41.7899C88.2182 41.7625 85.328 38.2013 83.5388 35.3797C83.9242 34.7496 84.1719 34.0374 84.2545 33.2977C84.5573 30.3939 84.4472 27.6545 84.4747 26.0108C84.7775 25.7917 85.0803 25.5725 85.3555 25.3808C85.7684 25.0794 86.1538 24.7781 86.429 24.5042C89.2367 29.216 96.3108 41.8447 91.6589 41.7899Z" fill="#ED7D2B"/>
<path d="M84.9977 102.194H76.0518C76.0518 102.194 75.8316 100.852 76.2995 99.811C76.7399 98.8248 77.4556 98.3865 77.2904 97.1812C77.8685 97.7564 78.7768 98.4139 80.0705 98.2495C80.2357 98.4961 81.089 99.8658 81.612 100.249C82.19 100.66 84.805 100.523 84.9977 102.194Z" fill="#233862"/>
<path d="M104.156 102.194H95.2097C95.2097 102.194 94.8794 100.77 95.4574 99.811C95.9804 98.9618 95.7877 98.4687 95.4024 97.7565C95.8152 97.9208 96.3382 98.0578 96.9163 98.0304C97.3567 98.003 97.8246 97.8112 98.2375 97.5647C98.6229 98.003 100.274 99.8658 100.77 100.222C101.375 100.66 103.99 100.523 104.156 102.194Z" fill="#233862"/>
<path d="M110.899 43.8994C110.872 43.4611 110.294 43.4611 109.826 43.4611C109.083 43.4611 107.927 43.4063 107.238 43.1597C107.238 43.1597 109.385 43.1323 108.945 42.4475C108.862 42.3105 107.789 42.4201 106.605 42.4201C106.11 42.4201 104.899 43.0776 104.954 43.1323C104.101 43.0228 103.302 42.8584 103.055 42.8036C102.476 42.4749 101.761 42.0914 100.99 41.6804C99.1734 40.6669 97.1089 39.4341 95.6776 38.3931C94.8518 37.8179 94.2463 37.2974 94.0261 36.9138C93.6957 36.3386 93.3104 35.4346 92.8975 34.3114C92.6773 33.7361 92.4571 33.0786 92.2369 32.3938C91.824 31.2706 91.4386 30.0653 91.0257 28.8325C90.2825 26.6136 89.4568 24.3947 88.7136 22.6688C88.2181 21.6004 87.7226 20.6964 87.2822 20.1485C86.9244 19.7102 86.5666 19.4911 86.2363 19.5459C86.1812 19.5459 86.1537 19.5733 86.0986 19.5733C86.0986 19.5733 84.1718 20.1212 84.1443 23.9837C84.1443 24.2029 84.1443 24.4221 84.1443 24.6686C84.1718 25.3535 84.3094 26.1753 84.5021 27.0793C84.8324 28.6134 85.3554 30.3666 86.0436 32.1472C86.2363 32.6403 86.4289 33.1334 86.6216 33.6265C88.0805 37.2152 89.9247 40.5573 91.4937 41.6804C91.5487 41.7352 91.6038 41.7626 91.6864 41.8174C92.347 42.2283 93.3104 42.6392 94.4114 43.0228C96.0079 43.5707 97.8797 44.0364 99.5587 44.4473C100.55 44.6664 101.43 44.8582 102.201 44.9952C102.201 44.9952 102.311 45.0225 102.532 45.0773C102.559 45.0773 102.587 45.0773 102.642 45.1047C103.357 45.2691 104.816 45.6526 106.192 46.1731C108.119 46.9401 109.551 45.9813 110.184 45.3239C110.597 44.8856 110.899 44.3103 110.899 43.8994Z" fill="#FFB27D"/>
<path d="M88.686 22.6689C86.0986 21.9567 84.1167 23.9564 84.1167 23.9564C84.1442 20.0938 86.071 19.5734 86.071 19.5734C86.8418 19.2446 87.7501 20.5869 88.686 22.6689Z" fill="#F99746"/>
<g clip-path="url(#clip0)">
<path d="M13.8981 140.408C15.899 139.74 18.5128 139.126 21.6133 138.566C22.8031 138.349 24.0649 138.151 25.3988 137.952C28.1388 137.537 31.1672 137.176 34.43 136.869C35.115 136.796 35.836 136.742 36.539 136.67C38.2515 136.525 40.0361 136.381 41.8567 136.255C49.1393 135.767 57.2511 135.478 65.8135 135.478C97.0709 135.478 122.416 139.162 122.416 143.695C122.416 148.083 98.7113 151.677 68.878 151.894C67.8685 151.894 66.841 151.912 65.8135 151.912C39.6575 151.912 17.6476 149.33 11.1582 145.844C9.89632 145.158 9.21133 144.435 9.21133 143.695C9.1933 142.521 10.8697 141.42 13.8981 140.408Z" fill="#F5E9E1"/>
<path d="M76.467 74.8347L76.3048 72.9204L74.2678 70.049L75.7099 69.5975L79.3692 68.532C79.3692 68.532 81.3341 67.6471 82.3255 70.8075C83.317 73.9678 81.6946 74.2929 81.6946 74.2929L77.5666 75.4487L76.467 74.8347Z" fill="#3F3D56"/>
<path d="M72.6816 66.4553L73.673 67.2319L73.6009 67.5389L72.7897 67.8639L73.9795 69.0559L75.4757 68.7489L78.3418 71.53L77.0079 71.8731L78.3058 73.2637L77.0259 78.4467L75.4937 78.8801L74.9168 78.7357L68.2832 72.2885L69.5811 67.1055L72.6816 66.4553Z" fill="#3F3D56"/>
<path d="M71.9785 70.627L70.9871 74.0943L74.9348 77.8507L75.8001 74.4194L71.9785 70.627Z" fill="#F67506"/>
<path d="M72.6816 66.4553L73.6731 67.2319L73.601 67.5389L72.7898 67.8639L73.9795 69.0559L75.4757 68.7489L78.3419 71.53L77.0079 71.8731L78.3058 73.2637L78.1255 74.0041H78.0534L76.5753 74.4014L75.9985 74.2569L69.4009 67.8278L69.5811 67.1055L72.6816 66.4553Z" stroke="#3F3D56" stroke-miterlimit="10"/>
<path d="M73.1563 67.1602C73.2071 66.957 73.0134 66.7334 72.7237 66.6607C72.4339 66.588 72.1579 66.6938 72.1071 66.897C72.0563 67.1002 72.25 67.3238 72.5398 67.3965C72.8295 67.4692 73.1055 67.3634 73.1563 67.1602Z" fill="#F67506"/>
<path d="M77.3458 72.7088C77.3965 72.5056 77.2028 72.2819 76.9131 72.2093C76.6234 72.1366 76.3473 72.2424 76.2965 72.4456C76.2458 72.6488 76.4395 72.8724 76.7292 72.9451C77.0189 73.0178 77.295 72.912 77.3458 72.7088Z" fill="#F67506"/>
<path d="M77.2422 81.3903L76.1606 77.9591C76.1606 77.9591 76.3409 72.1801 79.0448 72.7219C81.7488 73.2637 79.4054 78.862 79.4054 78.862L80.3067 81.9321L77.2422 81.3903Z" fill="#FFB6B6"/>
<path d="M63.5784 75.9543C67.5308 75.9543 70.7348 72.7444 70.7348 68.7848C70.7348 64.8251 67.5308 61.6152 63.5784 61.6152C59.626 61.6152 56.422 64.8251 56.422 68.7848C56.422 72.7444 59.626 75.9543 63.5784 75.9543Z" fill="#FFB6B6"/>
<path d="M58.3148 72.5774C59.7929 73.8415 59.162 79.3316 59.162 79.3316L56.0074 82.9254C56.0074 82.9254 68.4275 79.9637 67.382 79.5483C66.3364 79.1329 65.9038 73.8596 65.9038 73.8596L58.3148 72.5774Z" fill="#FFB6B6"/>
<path d="M76.341 90.2394C76.341 90.2394 79.2252 96.0183 82.4699 95.6571C85.7146 95.296 84.2725 90.2394 84.2725 90.2394C84.2725 90.2394 82.2896 86.4469 82.2896 84.0992C82.2896 81.7515 78.8647 79.9456 78.8647 79.9456L75.9805 80.3067L76.341 90.2394Z" fill="#F67506"/>
<path d="M53.9884 117.328C52.0055 117.689 53.4476 122.746 55.6107 129.428C57.7739 136.11 62.8212 140.805 63.1817 140.986C63.5422 141.166 67.6883 138.819 68.7698 136.832C69.8514 134.846 67.8685 127.622 67.8685 127.622C70.6626 127.044 73.4927 126.611 76.3408 126.358C80.6671 125.997 85.1737 116.064 85.1737 116.064C85.1737 116.064 91.1223 109.743 91.1223 107.034C91.1223 104.325 87.5171 103.784 85.7145 103.423C83.9118 103.061 77.6027 109.021 77.6027 109.021C77.6027 109.021 55.9712 116.967 53.9884 117.328Z" fill="#2F2E41"/>
<path d="M83.1908 116.606C83.1908 116.606 83.5514 125.094 83.9119 125.455C84.2724 125.816 82.8303 126.358 82.2895 126.719C81.7487 127.08 81.929 127.08 82.2895 128.344C82.6501 129.609 81.7487 129.789 81.3882 129.789C81.0277 129.789 81.5685 132.859 82.1093 133.04C82.6501 133.22 87.8776 133.943 89.1395 133.762C90.4013 133.582 89.6803 132.137 89.3197 131.234C88.9592 130.331 89.1395 127.803 90.0408 125.636C90.9421 123.468 91.4829 112.452 91.6631 109.382C91.8434 106.312 90.5816 106.493 90.5816 106.493L83.1908 116.606Z" fill="#2F2E41"/>
<path d="M82.8303 132.318C82.8303 132.318 81.929 138.819 82.1093 140.625C82.2895 142.431 86.0751 140.986 86.0751 140.986C87.445 140.011 88.8871 139.18 90.4014 138.458C92.7448 137.374 92.204 134.304 92.204 134.304C91.8435 132.318 88.779 133.221 88.779 133.221L82.8303 132.318Z" fill="#2F2E41"/>
<path d="M63.4701 140.986L61.6315 139.469L62.2984 137.537C63.7405 136.453 62.659 130.674 62.659 130.674L68.4273 135.369C69.1304 140.083 63.4701 140.986 63.4701 140.986Z" fill="#2F2E41"/>
<path d="M55.9713 133.04C56.4941 134.015 54.9078 137.212 53.8082 140.083C52.8888 142.449 55.9713 150.377 55.9713 150.377C55.9713 150.377 56.6924 151.821 59.3963 151.099C62.1002 150.377 62.3165 140.227 62.3165 140.227C62.3165 140.227 63.0015 136.11 63.5423 132.317C64.0831 128.525 60.2976 127.441 60.2976 127.441C56.3318 126.9 55.4486 132.083 55.9713 133.04Z" fill="#2F2E41"/>
<path d="M56.512 78.1396C55.9712 78.3202 55.4305 78.1396 54.5292 78.1396C53.6278 78.1396 52.5463 79.0426 51.2844 79.2232C50.0226 79.4038 48.941 83.738 48.941 83.738C48.941 83.738 51.4647 92.5871 51.4647 93.1289C51.4647 93.6706 52.0055 94.7542 53.0871 95.8378C54.1686 96.9213 53.4476 97.6437 52.7265 98.9078C52.0055 100.172 53.4476 101.436 54.1686 102.52C54.8897 103.603 52.7265 115.884 52.7265 117.328C52.7265 118.773 53.9884 118.592 63.5422 119.495C73.0961 120.398 77.7829 117.69 80.4868 114.619C83.1908 111.549 78.504 111.911 78.8645 109.382C79.225 106.854 77.2421 92.4065 77.2421 92.4065L78.8645 79.9456C78.8645 79.9456 68.4093 77.4173 67.1475 77.0561C65.8856 76.6949 64.2633 78.5008 61.9199 78.1396C59.5765 77.7785 58.1344 77.5979 58.1344 77.5979L56.512 78.1396Z" fill="#F67506"/>
<path d="M75.4215 66.2746C75.3314 65.8592 74.8807 64.4687 73.9433 64.1255C73.2764 63.8727 72.0145 64.3964 71.3836 64.3242L71.3115 64.0894C71.2574 63.6379 71.1493 63.1865 70.969 62.7711C70.3021 61.0555 68.9681 59.701 67.2737 58.9967C65.2187 58.1298 61.9559 57.4255 59.1258 59.6829C55.2322 62.7891 55.9172 67.4304 56.2056 68.7307C56.2597 68.9474 56.2957 69.1641 56.3318 69.3808C56.512 70.5185 56.9987 70.6449 56.9987 70.6449C56.9987 70.6449 56.9807 70.6088 56.9627 70.5546L60.4778 70.8978L62.3705 70.5727C62.4066 70.7533 62.4066 70.8617 62.4066 70.8617C67.9406 70.0129 71.1673 67.0873 71.6901 66.5816C72.1587 66.8886 73.006 67.3943 73.8352 67.5026C75.079 67.6652 75.5116 66.69 75.4215 66.2746ZM61.1628 69.0557L56.7103 68.8932C56.6382 67.6652 56.9627 66.2565 58.7473 66.1843C60.4778 66.1121 61.4151 67.5207 61.9199 68.8029L61.1628 69.0557Z" fill="#2F2E41"/>
<path d="M62.3101 58.651C62.7418 58.5772 63.0688 58.3819 63.0403 58.2148C63.0119 58.0476 62.6388 57.972 62.207 58.0458C61.7752 58.1196 61.4482 58.3149 61.4767 58.4821C61.5052 58.6492 61.8783 58.7248 62.3101 58.651Z" fill="#2F2E41"/>
</g>
<defs>
<clipPath id="clip0">
<rect width="122" height="101" fill="white" transform="translate(0 54)"/>
</clipPath>
</defs>
</svg>
